<svg viewBox="0 0 60 60" xmlns="http://www.w3.org/2000/svg" xmlns:xlink="http://www.w3.org/1999/xlink" id="Capa_1" overflow="hidden"><defs id="defs73"></defs><g id="g38" transform="matrix(0.90566 0 0 0.90566 0.830189 2.83019)"><g id="g36"><path d="M56.5 49 56.5 49 56.5 1C56.5 0.4 56.1 0 55.5 0L10.5 0C9.9 0 9.5 0.4 9.5 1L9.5 15 11.5 15 11.5 2 54.5 2 54.5 48 45.5 48C44.9 48 44.5 48.4 44.5 49L44.5 58 11.5 58 11.5 43 9.5 43 9.5 59C9.5 59.6 9.9 60 10.5 60L45.5 60C45.8 60 46 59.9 46.2 59.7L56.2 49.7C56.3 49.6 56.3 49.5 56.4 49.4L56.4 49.3C56.5 49.2 56.5 49.1 56.5 49ZM46.5 50 53.1 50 49.8 53.3 46.5 56.6Z" id="path2" fill="#7030A0"/><path d="M16.5 38 22.5 38 26.5 38 26.5 36 23.5 36 23.5 17C23.5 16.4 23.1 16 22.5 16L16.5 16C15.9 16 15.5 16.4 15.5 17L15.5 23 10.5 23C9.9 23 9.5 23.4 9.5 24L9.5 28 4.5 28C3.9 28 3.5 28.4 3.5 29L3.5 37C3.5 37.6 3.9 38 4.5 38L10.5 38ZM17.5 18 21.5 18 21.5 36 17.5 36 17.5 24ZM11.5 25 15.5 25 15.5 36 11.5 36 11.5 29ZM5.5 30 9.5 30 9.5 36 5.5 36Z" id="path4" fill="#7030A0"/><path d="M50.5 24 50.5 7C50.5 6.4 50.1 6 49.5 6L28.5 6C27.9 6 27.5 6.4 27.5 7L27.5 24C27.5 24.6 27.9 25 28.5 25L49.5 25C50.1 25 50.5 24.6 50.5 24ZM48.5 12 36.5 12 36.5 8 48.5 8ZM34.5 8 34.5 12 29.5 12C29.5 10.4 29.5 8 29.5 8ZM29.5 14 34.5 14 34.5 23 29.5 23C29.5 23 29.5 18.3 29.5 14ZM36.5 23 36.5 14 48.5 14 48.5 23Z" id="path6" fill="#7030A0"/><rect x="28.5" y="28" width="21" height="2" id="rect8" fill="#7030A0"/><rect x="28.5" y="33" width="21" height="2" id="rect10" fill="#7030A0"/><rect x="28.5" y="38" width="21" height="2" id="rect12" fill="#7030A0"/><rect x="14.5" y="6" width="6" height="2" id="rect14" fill="#7030A0"/><rect x="14.5" y="11" width="9" height="2" id="rect16" fill="#7030A0"/><rect x="14.5" y="43" width="7" height="2" id="rect18" fill="#7030A0"/><rect x="24.5" y="43" width="7" height="2" id="rect20" fill="#7030A0"/><rect x="34.5" y="43" width="7" height="2" id="rect22" fill="#7030A0"/><rect x="14.5" y="48" width="7" height="2" id="rect24" fill="#7030A0"/><rect x="24.5" y="48" width="7" height="2" id="rect26" fill="#7030A0"/><rect x="34.5" y="48" width="7" height="2" id="rect28" fill="#7030A0"/><rect x="14.5" y="53" width="7" height="2" id="rect30" fill="#7030A0"/><rect x="24.5" y="53" width="7" height="2" id="rect32" fill="#7030A0"/><rect x="34.5" y="53" width="7" height="2" id="rect34" fill="#7030A0"/></g></g><g id="g40"></g><g id="g42"></g><g id="g44"></g><g id="g46"></g><g id="g48"></g><g id="g50"></g><g id="g52"></g><g id="g54"></g><g id="g56"></g><g id="g58"></g><g id="g60"></g><g id="g62"></g><g id="g64"></g><g id="g66"></g><g id="g68"></g></svg>