<svg width="374" height="354" xmlns="http://www.w3.org/2000/svg" xmlns:xlink="http://www.w3.org/1999/xlink" overflow="hidden"><defs><clipPath id="clip0"><rect x="61" y="221" width="374" height="354"/></clipPath><clipPath id="clip1"><rect x="62" y="222" width="372" height="352"/></clipPath><clipPath id="clip2"><rect x="62" y="222" width="372" height="352"/></clipPath><clipPath id="clip3"><rect x="35" y="222" width="421" height="422"/></clipPath></defs><g clip-path="url(#clip0)" transform="translate(-61 -221)"><g clip-path="url(#clip1)"><g clip-path="url(#clip2)"><g clip-path="url(#clip3)"><path d="M210.217 257.516C218.91 257.516 225.983 250.442 225.983 241.75 225.983 233.057 218.91 225.983 210.217 225.983 201.524 225.983 194.451 233.057 194.451 241.75 194.451 250.442 201.524 257.516 210.217 257.516ZM210.217 236.494C213.117 236.494 215.472 238.85 215.472 241.75 215.472 244.649 213.117 247.005 210.217 247.005 207.317 247.005 204.962 244.649 204.962 241.75 204.962 238.85 207.317 236.494 210.217 236.494Z" fill="#2A6279" transform="matrix(1 0 0 1.00065 35.3571 222.879)"/><path d="M204.962 68.3205 215.472 68.3205 215.472 78.8314 204.962 78.8314Z" fill="#2A6279" transform="matrix(1 0 0 1.00065 35.3571 222.879)"/><path d="M313.151 110.364 289.049 134.466 289.049 162.918 261.573 162.918C250.684 162.918 240.793 169.771 236.961 179.968L227.598 204.962 215.472 204.962 215.472 141.626C250.689 138.923 278.538 109.472 278.538 73.5759 278.538 35.9057 247.887 5.25542 210.217 5.25542 172.547 5.25542 141.896 35.9057 141.896 73.5759 141.896 109.475 169.745 138.923 204.962 141.626L204.962 204.962 192.836 204.962 183.465 179.968C179.641 169.771 169.75 162.918 158.861 162.918L99.8525 162.918 99.8525 99.8531C99.8525 88.2605 90.4233 78.8314 78.8308 78.8314L68.3199 78.8314C56.7274 78.8314 47.2982 88.2605 47.2982 99.8531L47.2982 243.341 73.5753 282.757 99.8525 243.341 99.8525 173.429 158.861 173.429C165.4 173.429 171.333 177.54 173.628 183.661L181.612 204.962 168.173 204.962C153.683 204.962 141.896 216.749 141.896 231.239L141.896 289.048 131.385 289.048 131.385 304.815C131.385 319.305 143.172 331.092 157.662 331.092L262.771 331.092C277.261 331.092 289.048 319.305 289.048 304.815L289.048 289.048 278.537 289.048 278.537 231.239C278.537 216.749 266.75 204.962 252.26 204.962L238.821 204.962 246.81 183.661C249.102 177.54 255.035 173.429 261.572 173.429L289.048 173.429 289.048 225.983 373.135 225.983 373.135 110.364ZM158.786 47.2988 178.684 47.2988C181.584 47.2988 183.939 49.6591 183.939 52.5542 183.939 55.4494 181.584 57.8097 178.684 57.8097 169.991 57.8097 162.918 64.8832 162.918 73.5759 162.918 82.2687 169.991 89.3422 178.684 89.3422 181.584 89.3422 183.939 91.7025 183.939 94.5976 183.939 97.4928 181.584 99.8531 178.684 99.8531L158.786 99.8531C154.741 91.9603 152.407 83.0405 152.407 73.5759 152.407 64.1114 154.741 55.1916 158.786 47.2988ZM165.656 110.364 178.684 110.364C187.377 110.364 194.45 103.29 194.45 94.5976 194.45 85.9049 187.377 78.8314 178.684 78.8314 175.784 78.8314 173.428 76.4711 173.428 73.5759 173.428 70.6808 175.784 68.3205 178.684 68.3205 187.377 68.3205 194.45 61.247 194.45 52.5542 194.45 43.8615 187.377 36.788 178.684 36.788L165.656 36.788C176.268 23.9593 192.301 15.7663 210.216 15.7663 222.545 15.7663 233.955 19.6773 243.351 26.2771L220.727 26.2771C212.034 26.2771 204.961 33.3506 204.961 42.0434 204.961 50.7362 212.034 57.8097 220.727 57.8097L241.749 57.8097C244.649 57.8097 247.004 60.1699 247.004 63.0651 247.004 65.9603 244.649 68.3205 241.749 68.3205L225.983 68.3205 225.983 78.8314 241.749 78.8314C250.442 78.8314 257.515 71.7579 257.515 63.0651 257.515 54.3723 250.442 47.2988 241.749 47.2988L220.727 47.2988C217.827 47.2988 215.472 44.9386 215.472 42.0434 215.472 39.1482 217.827 36.788 220.727 36.788L254.777 36.788C263.049 46.7895 268.026 59.6115 268.026 73.5759 268.026 79.0472 267.212 84.324 265.788 89.3422L220.727 89.3422C212.035 89.3422 204.961 96.4157 204.961 105.108 204.961 113.801 212.035 120.875 220.727 120.875L231.238 120.875 231.238 110.364 220.727 110.364C217.828 110.364 215.472 108.004 215.472 105.108 215.472 102.213 217.828 99.8531 220.727 99.8531L261.647 99.8531C252.056 118.54 232.632 131.386 210.217 131.386 192.306 131.386 176.272 123.193 165.656 110.364ZM78.8302 236.494 78.8302 141.896 89.341 141.896 89.341 236.494ZM89.341 131.386 57.8085 131.386 57.8085 120.875 89.341 120.875ZM68.3193 141.896 68.3193 236.494 57.8085 236.494 57.8085 141.896ZM68.3193 89.3422 78.8302 89.3422C84.6275 89.3422 89.341 94.0557 89.341 99.8531L89.341 110.364 57.8085 110.364 57.8085 99.8531C57.8085 94.0557 62.522 89.3422 68.3193 89.3422ZM62.3695 247.005 84.7732 247.005 73.5746 263.806ZM278.539 304.815C278.539 313.507 271.465 320.581 262.772 320.581L157.664 320.581C148.971 320.581 141.898 313.507 141.898 304.815L141.898 299.559 278.539 299.559ZM268.028 231.239 268.028 289.048 152.408 289.048 152.408 231.239C152.408 222.546 159.482 215.472 168.175 215.472L252.261 215.472C260.954 215.472 268.028 222.546 268.028 231.239ZM362.625 215.472 299.56 215.472 299.56 138.815 317.501 120.874 362.625 120.874Z" fill="#2A6279" transform="matrix(1 0 0 1.00065 35.3571 222.879)"/><path d="M320.581 131.386 352.113 131.386 352.113 141.896 320.581 141.896Z" fill="#2A6279" transform="matrix(1 0 0 1.00065 35.3571 222.879)"/><path d="M310.07 152.407 352.113 152.407 352.113 162.918 310.07 162.918Z" fill="#2A6279" transform="matrix(1 0 0 1.00065 35.3571 222.879)"/><path d="M310.07 173.429 352.113 173.429 352.113 183.94 310.07 183.94Z" fill="#2A6279" transform="matrix(1 0 0 1.00065 35.3571 222.879)"/><path d="M310.07 194.451 352.113 194.451 352.113 204.962 310.07 204.962Z" fill="#2A6279" transform="matrix(1 0 0 1.00065 35.3571 222.879)"/><path d="M17.6054-1.05108C16.6974-0.581851 15.7496-0.227575 14.7618 0.00936967 13.7788 0.253372 12.7558 0.375375 11.693 0.375375 8.5022 0.375375 5.9707-0.516185 4.10055-2.29925 2.23533-4.08237 1.30395-6.50359 1.30395-9.56314 1.30395-12.6227 2.23539-15.0438 4.10055-16.827 5.97046-18.6102 8.50196-19.5017 11.693-19.5017 12.7558-19.5017 13.7788-19.382 14.7618-19.145 15.7495-18.9057 16.6974-18.5491 17.6054-18.0752L17.6054-14.1149C16.6857-14.739 15.78-15.1964 14.8932-15.485 14.004-15.7783 13.0679-15.9261 12.0872-15.9261 10.3229-15.9261 8.93626-15.3583 7.92974-14.2275 6.92088-13.1013 6.41883-11.5458 6.41883-9.56328 6.41883-7.58544 6.92091-6.02995 7.92974-4.89911 8.93626-3.77294 10.3229-3.20986 12.0872-3.20986 13.0679-3.20986 14.004-3.35298 14.8932-3.64156 15.7801-3.93483 16.6857-4.39468 17.6054-5.02112Z" fill="#2A6279" transform="matrix(1 0 0 1.00065 77.4005 638.326)"/><path d="M12.8851-10.4544C12.4769-10.6421 12.0733-10.7782 11.6745-10.8673 11.2803-10.9612 10.8815-11.0081 10.4826-11.0081 9.30012-11.0081 8.38982-10.628 7.75166-9.87256 7.11819-9.11476 6.80382-8.02847 6.80382-6.61606L6.80382 0.000372384 2.20536 0.000372384 2.20536-14.3677 6.80382-14.3677 6.80382-12.0121C7.39036-12.9506 8.06609-13.6356 8.83092-14.0673 9.60043-14.499 10.5202-14.7149 11.59-14.7149 11.7402-14.7149 11.9044-14.7078 12.0874-14.6961 12.2681-14.682 12.5285-14.6539 12.8664-14.6116Z" fill="#2A6279" transform="matrix(1 0 0 1.00065 96.686 638.326)"/><path d="M16.5543-7.22606 16.5543-5.9122 5.8086-5.9122C5.92121-4.83529 6.30833-4.02824 6.9723-3.49098 7.64097-2.95136 8.57709-2.68387 9.77833-2.68387 10.7403-2.68387 11.7303-2.82464 12.7439-3.10618 13.7574-3.39241 14.7992-3.82878 15.869-4.41067L15.869-0.872653C14.785-0.459727 13.7011-0.150047 12.6125 0.0564463 11.5239 0.2676 10.4376 0.375526 9.35598 0.375526 6.75175 0.375526 4.72934-0.283775 3.28431-1.60466 1.84378-2.93023 1.1258-4.78608 1.1258-7.16976 1.1258-9.5159 1.83201-11.3577 3.24671-12.6973 4.66616-14.0417 6.61583-14.7151 9.09339-14.7151 11.3504-14.7151 13.1593-14.0323 14.5177-12.6692 15.8738-11.3108 16.5542-9.49723 16.5542-7.2261ZM11.8338-8.74635C11.8338-9.62145 11.5757-10.3253 11.0643-10.8579 10.5575-11.3952 9.89353-11.665 9.07471-11.665 8.17846-11.665 7.45351-11.414 6.89746-10.9142 6.34611-10.4121 6.00121-9.6895 5.86511-8.74635Z" fill="#2A6279" transform="matrix(1 0 0 1.00065 109.644 638.326)"/><path d="M8.64352-6.46627C7.68625-6.46627 6.96599-6.30204 6.48501-5.97827 6.0017-5.65215 5.76241-5.17356 5.76241-4.54243 5.76241-3.96058 5.95479-3.50306 6.34426-3.17229 6.73138-2.84618 7.27336-2.68429 7.96779-2.68429 8.83119-2.68429 9.55613-2.99398 10.145-3.61339 10.7386-4.23275 11.0366-5.00701 11.0366-5.94079L11.0366-6.46633ZM15.6636-8.20243 15.6636-0.000360372 11.0369-0.000360372 11.0369-2.1307C10.4176-1.26028 9.72308-0.624465 8.9535-0.225593 8.18393 0.173279 7.24786 0.375027 6.14747 0.375027 4.65763 0.375027 3.44702-0.0590169 2.51558-0.929459 1.58882-1.79754 1.12664-2.9237 1.12664-4.30795 1.12664-5.99719 1.7038-7.23128 2.86279-8.01491 4.0265-8.80323 5.84716-9.19741 8.32471-9.19741L11.0369-9.19741 11.0369-9.56342C11.0369-10.2884 10.7483-10.821 10.1735-11.1588 9.60336-11.4966 8.70947-11.6656 7.48943-11.6656 6.5064-11.6656 5.59375-11.5647 4.7491-11.3652 3.90451-11.1705 3.11614-10.8772 2.38416-10.4831L2.38416-13.9835C3.37188-14.2275 4.35966-14.4082 5.34972-14.5278 6.34447-14.6522 7.33459-14.7155 8.32465-14.7155 10.9195-14.7155 12.7918-14.2017 13.9367-13.1764 15.0864-12.1559 15.6635-10.4971 15.6635-8.20259Z" fill="#2A6279" transform="matrix(1 0 0 1.00065 127.465 638.326)"/><path d="M7.22606-18.4504 7.22606-14.3681 11.9559-14.3681 11.9559-11.0834 7.22606-11.0834 7.22606-4.99253C7.22606-4.32152 7.35744-3.86871 7.62022-3.63177 7.88299-3.3995 8.40853-3.28454 9.19684-3.28454L11.5618-3.28454 11.5618 0.000132136 7.62022 0.000132136C5.8043 0.000132136 4.51855-0.377604 3.76309-1.1354 3.00529-1.89086 2.62756-3.17655 2.62756-4.99252L2.62756-11.0834 0.347068-11.0834 0.347068-14.3681 2.62756-14.3681 2.62756-18.4504Z" fill="#2A6279" transform="matrix(1 0 0 1.00065 145.198 638.326)"/><path d="M16.5543-7.22606 16.5543-5.9122 5.8086-5.9122C5.92121-4.83529 6.30833-4.02824 6.9723-3.49098 7.64097-2.95136 8.57709-2.68387 9.77833-2.68387 10.7403-2.68387 11.7303-2.82464 12.7439-3.10618 13.7574-3.39241 14.7992-3.82878 15.869-4.41067L15.869-0.872653C14.785-0.459727 13.7011-0.150047 12.6125 0.0564463 11.5239 0.2676 10.4376 0.375526 9.35598 0.375526 6.75175 0.375526 4.72934-0.283775 3.28431-1.60466 1.84378-2.93023 1.1258-4.78608 1.1258-7.16976 1.1258-9.5159 1.83201-11.3577 3.24671-12.6973 4.66616-14.0417 6.61583-14.7151 9.09339-14.7151 11.3504-14.7151 13.1593-14.0323 14.5177-12.6692 15.8738-11.3108 16.5542-9.49723 16.5542-7.2261ZM11.8338-8.74635C11.8338-9.62145 11.5757-10.3253 11.0643-10.8579 10.5575-11.3952 9.89353-11.665 9.07471-11.665 8.17846-11.665 7.45351-11.414 6.89746-10.9142 6.34611-10.4121 6.00121-9.6895 5.86511-8.74635Z" fill="#2A6279" transform="matrix(1 0 0 1.00065 157.759 638.326)"/><path d="M11.9842-12.2659 11.9842-19.961 16.6014-19.961 16.6014 0 11.9842 0 11.9842-2.074C11.3507-1.22941 10.6539-0.60999 9.89137-0.215803 9.12654 0.178354 8.24435 0.375436 7.24492 0.375436 5.47357 0.375436 4.01893-0.328431 2.88105-1.7361 1.74786-3.14384 1.18244-4.95507 1.18244-7.16985 1.18244-9.38464 1.74787-11.1959 2.88105-12.6036 4.01893-14.0113 5.47357-14.7151 7.24492-14.7151 8.23967-14.7151 9.11717-14.5134 9.882-14.1145 10.6515-13.7204 11.3507-13.1033 11.9842-12.2658ZM8.9529-2.96586C9.94062-2.96586 10.6914-3.32483 11.2052-4.04512 11.7237-4.76304 11.9842-5.80475 11.9842-7.1702 11.9842-8.54034 11.7237-9.58439 11.2052-10.3047 10.6914-11.0226 9.94062-11.384 8.9529-11.384 7.97689-11.384 7.22846-11.0227 6.70995-10.3047 6.19613-9.58445 5.94043-8.5404 5.94043-7.1702 5.94043-5.80475 6.19616-4.76304 6.70995-4.04512 7.22845-3.32485 7.97689-2.96586 8.9529-2.96586Z" fill="#2A6279" transform="matrix(1 0 0 1.00065 175.581 638.326)"/><path d="M9.85377-2.96556C10.8345-2.96556 11.5852-3.32453 12.1061-4.04482 12.6246-4.76274 12.885-5.80445 12.885-7.1699 12.885-8.54004 12.6246-9.58409 12.1061-10.3044 11.5852-11.0223 10.8345-11.3837 9.85377-11.3837 8.87074-11.3837 8.11762-11.02 7.59208-10.295 7.06653-9.57478 6.80376-8.53307 6.80376-7.16996 6.80376-5.81154 7.06653-4.76982 7.59208-4.04488 8.11762-3.32461 8.87074-2.96562 9.85377-2.96562ZM6.80376-12.2656C7.43489-13.1031 8.13642-13.7202 8.90593-14.1143 9.67545-14.5132 10.56-14.7149 11.5618-14.7149 13.3308-14.7149 14.7855-14.0111 15.9257-12.6034 17.0636-11.1957 17.6337-9.38445 17.6337-7.16966 17.6337-4.95487 17.0636-3.14365 15.9257-1.73591 14.7855-0.328179 13.3308 0.375628 11.5618 0.375628 10.56 0.375628 9.67551 0.173855 8.90593-0.224992 8.13636-0.62384 7.43489-1.24088 6.80376-2.07376L6.80376 0.000240248 2.2053 0.000240248 2.2053-19.9608 6.80376-19.9608Z" fill="#2A6279" transform="matrix(1 0 0 1.00065 203.538 638.326)"/><path d="M0.319079-14.368 4.91755-14.368 8.77467-4.61757 12.0593-14.368 16.6578-14.368 10.6144 1.361C10.0067 2.96112 9.29583 4.07785 8.48403 4.71132 7.67691 5.34948 6.60943 5.66859 5.28386 5.66859L2.62798 5.66859 2.62798 2.65612 4.06382 2.65612C4.84511 2.65612 5.41053 2.52943 5.76244 2.28073 6.11906 2.03673 6.39591 1.59098 6.59766 0.948079L6.71966 0.553922Z" fill="#2A6279" transform="matrix(1 0 0 1.00065 222.347 638.326)"/><path d="M2.41185-19.1544 15.7474-19.1544 15.7474-15.4192 7.34835-15.4192 7.34835-11.8531 15.2411-11.8531 15.2411-8.11792 7.34835-8.11792 7.34835-3.73526 16.0291-3.73526 16.0291-0.000120124 2.41185-0.000120124Z" fill="#2A6279" transform="matrix(1 0 0 1.00065 248.624 638.326)"/><path d="M2.05526-5.59327 2.05526-14.3677 6.67253-14.3677 6.67253-12.9319C6.67253-12.1553 6.66549-11.1793 6.65376-10.0039 6.64672-8.82611 6.64437-8.04248 6.64437-7.64829 6.64437-6.48928 6.67253-5.65874 6.72883-5.152 6.78983-4.64522 6.89776-4.27455 7.04791-4.04458 7.23561-3.74427 7.47961-3.51199 7.77995-3.35014 8.08495-3.1859 8.43691-3.10614 8.83103-3.10614 9.7883-3.10614 10.5391-3.47214 11.0834-4.20413 11.6324-4.94085 11.9092-5.96377 11.9092-7.27294L11.9092-14.3675 16.4983-14.3675 16.4983 0.000570589 11.9092 0.000570589 11.9092-2.07343C11.2148-1.24055 10.4781-0.623474 9.70379-0.224662 8.93428 0.174186 8.0826 0.375958 7.15116 0.375958 5.4854 0.375958 4.21845-0.133163 3.35038-1.15376 2.48698-2.17199 2.05532-3.65246 2.05532-5.5927Z" fill="#2A6279" transform="matrix(1 0 0 1.00065 266.575 638.326)"/><path d="M13.8143-13.9176 13.8143-10.1731C13.1949-10.6048 12.5685-10.9192 11.9373-11.1209 11.3109-11.3274 10.661-11.4306 9.98531-11.4306 8.70196-11.4306 7.70013-11.0552 6.98221-10.3044 6.26897-9.55834 5.91238-8.51428 5.91238-7.16991 5.91238-5.83023 6.269-4.78617 6.98221-4.0354 7.70013-3.28462 8.70196-2.90924 9.98531-2.90924 10.7032-2.90924 11.386-3.01481 12.0311-3.22831 12.674-3.44651 13.2699-3.76559 13.8143-4.18558L13.8143-0.422338C13.101-0.159567 12.3714 0.0375087 11.6276 0.1689 10.8886 0.304977 10.1472 0.375363 9.40349 0.375363 6.81331 0.375363 4.78622-0.290964 3.32221-1.62356 1.8582-2.95616 1.12622-4.80498 1.12622-7.16992 1.12622-9.53955 1.85826-11.3883 3.32221-12.7163 4.78622-14.0489 6.81331-14.7152 9.40349-14.7152 10.1543-14.7152 10.8957-14.6495 11.6276-14.5181 12.3596-14.3868 13.087-14.185 13.8143-13.9175Z" fill="#2A6279" transform="matrix(1 0 0 1.00065 285.283 638.326)"/><path d="M8.64352-6.46627C7.68625-6.46627 6.96599-6.30204 6.48501-5.97827 6.0017-5.65215 5.76241-5.17356 5.76241-4.54243 5.76241-3.96058 5.95479-3.50306 6.34426-3.17229 6.73138-2.84618 7.27336-2.68429 7.96779-2.68429 8.83119-2.68429 9.55613-2.99398 10.145-3.61339 10.7386-4.23275 11.0366-5.00701 11.0366-5.94079L11.0366-6.46633ZM15.6636-8.20243 15.6636-0.000360372 11.0369-0.000360372 11.0369-2.1307C10.4176-1.26028 9.72308-0.624465 8.9535-0.225593 8.18393 0.173279 7.24786 0.375027 6.14747 0.375027 4.65763 0.375027 3.44702-0.0590169 2.51558-0.929459 1.58882-1.79754 1.12664-2.9237 1.12664-4.30795 1.12664-5.99719 1.7038-7.23128 2.86279-8.01491 4.0265-8.80323 5.84716-9.19741 8.32471-9.19741L11.0369-9.19741 11.0369-9.56342C11.0369-10.2884 10.7483-10.821 10.1735-11.1588 9.60336-11.4966 8.70947-11.6656 7.48943-11.6656 6.5064-11.6656 5.59375-11.5647 4.7491-11.3652 3.90451-11.1705 3.11614-10.8772 2.38416-10.4831L2.38416-13.9835C3.37188-14.2275 4.35966-14.4082 5.34972-14.5278 6.34447-14.6522 7.33459-14.7155 8.32465-14.7155 10.9195-14.7155 12.7918-14.2017 13.9367-13.1764 15.0864-12.1559 15.6635-10.4971 15.6635-8.20259Z" fill="#2A6279" transform="matrix(1 0 0 1.00065 300.859 638.326)"/><path d="M2.20542-19.961 6.80388-19.961 6.80388 0 2.20542 0Z" fill="#2A6279" transform="matrix(1 0 0 1.00065 318.592 638.326)"/><path d="M0.319079-14.368 4.91755-14.368 8.77467-4.61757 12.0593-14.368 16.6578-14.368 10.6144 1.361C10.0067 2.96112 9.29583 4.07785 8.48403 4.71132 7.67691 5.34948 6.60943 5.66859 5.28386 5.66859L2.62798 5.66859 2.62798 2.65612 4.06382 2.65612C4.84511 2.65612 5.41053 2.52943 5.76244 2.28073 6.11906 2.03673 6.39591 1.59098 6.59766 0.948079L6.71966 0.553922Z" fill="#2A6279" transform="matrix(1 0 0 1.00065 327.599 638.326)"/><path d="M6.80382-2.074 6.80382 5.46198 2.20536 5.46198 2.20536-14.3681 6.80382-14.3681 6.80382-12.2659C7.43495-13.1035 8.13648-13.7206 8.90599-14.1147 9.67551-14.5135 10.56-14.7153 11.5619-14.7153 13.3309-14.7153 14.7855-14.0114 15.9257-12.6038 17.0636-11.196 17.6338-9.38481 17.6338-7.17002 17.6338-4.95524 17.0637-3.14401 15.9257-1.73627 14.7855-0.328539 13.3309 0.375267 11.5619 0.375267 10.56 0.375267 9.67557 0.173495 8.90599-0.225353 8.13642-0.6242 7.43495-1.24124 6.80382-2.07412ZM9.85383-11.3836C8.8708-11.3836 8.11768-11.02 7.59214-10.295 7.06659-9.57472 6.80382-8.53301 6.80382-7.1699 6.80382-5.81148 7.06659-4.76976 7.59214-4.04482 8.11768-3.32455 8.8708-2.96556 9.85383-2.96556 10.8345-2.96556 11.5853-3.32453 12.1062-4.04482 12.6247-4.76274 12.8851-5.80445 12.8851-7.1699 12.8851-8.54004 12.6247-9.58409 12.1062-10.3044 11.5853-11.0223 10.8345-11.3837 9.85383-11.3837Z" fill="#2A6279" transform="matrix(1 0 0 1.00065 344.726 638.326)"/></g></g></g></g></svg>