<svg viewBox="0 0 512 512" xmlns="http://www.w3.org/2000/svg" xmlns:xlink="http://www.w3.org/1999/xlink" id="Layer_1" overflow="hidden"><defs id="defs53"></defs><g id="g6" transform="matrix(0.898438 0 0 0.898438 55.9427 26)"><g id="g4"><path d="M439.965 443.599C439.965 425.106 424.92 410.06 406.425 410.06L322.635 410.06C318.122 410.06 314.465 413.718 314.465 418.23 314.465 422.742 318.122 426.4 322.635 426.4L406.425 426.4C415.909 426.4 423.625 434.116 423.625 443.6 423.625 445.512 423.294 447.377 422.693 449.144 417.871 446.458 412.326 444.922 406.426 444.922L291.988 444.922C299.678 432.045 297.988 415.084 286.91 404.007L190.863 307.96C176.999 294.095 150.78 283.235 131.174 283.235L13.55 283.235C9.038 283.235 5.38 286.893 5.38 291.405 5.38 295.917 9.038 299.575 13.55 299.575L131.173 299.575C146.457 299.575 168.5 308.705 179.309 319.513L275.355 415.56C282.061 422.266 282.061 433.177 275.355 439.883 268.651 446.589 257.738 446.589 251.032 439.883L172.973 361.824C169.782 358.633 164.609 358.633 161.419 361.824 158.228 365.015 158.228 370.188 161.419 373.378L239.478 451.437C245.865 457.824 254.207 461.082 262.595 461.23 262.793 461.244 262.992 461.261 263.193 461.261L406.424 461.261C415.908 461.261 423.624 468.977 423.624 478.46 423.624 487.944 415.908 495.66 406.432 495.66L246.49 495.518C242.148 495.515 234.779 493.594 230.913 491.471L68.335 391.074C68.24 391.015 68.144 390.959 68.046 390.904 61.752 387.365 51.561 384.697 44.339 384.697L13.55 384.697C9.038 384.697 5.38 388.355 5.38 392.867 5.38 397.379 9.038 401.037 13.55 401.037L44.339 401.037C48.68 401.037 56.044 402.952 59.908 405.075L222.486 505.472C222.581 505.531 222.678 505.587 222.775 505.643 229.067 509.18 239.256 511.852 246.475 511.859L406.425 512C424.92 512 439.965 496.954 439.965 478.46 439.965 472.084 438.175 466.119 435.074 461.037 438.254 455.825 439.965 449.826 439.965 443.599Z" id="path2" fill="#385723"/></g></g><g id="g12" transform="matrix(0.898438 0 0 0.898438 -63.5082 26)"><g id="g10"><path d="M355.625 0C272.366 0 204.631 67.737 204.631 150.995 204.631 204.155 232.823 253.595 278.416 280.775L292.987 321.602 292.987 352.869C292.987 371.699 307.167 389.853 307.77 390.616 309.32 392.576 311.681 393.72 314.18 393.72L397.072 393.72C399.571 393.72 401.932 392.576 403.482 390.616 404.086 389.852 418.265 371.698 418.265 352.869L418.265 321.601 432.837 280.774C478.431 253.594 506.622 204.154 506.622 150.994 506.621 67.736 438.885 0 355.625 0ZM392.866 377.379 318.371 377.379C315.788 373.471 312.398 367.387 310.592 361.039L400.647 361.039C398.832 367.368 395.443 373.463 392.866 377.379ZM401.923 344.698 309.327 344.698 309.327 328.358 401.923 328.358ZM422.104 268.117C420.403 269.084 419.107 270.63 418.45 272.472L404.335 312.018 306.916 312.018 292.802 272.472C292.144 270.63 290.848 269.084 289.148 268.117 247.094 244.193 220.971 199.315 220.971 150.995 220.971 76.747 281.376 16.34 355.625 16.34 429.874 16.34 490.28 76.747 490.28 150.995 490.281 199.315 464.157 244.193 422.104 268.117Z" id="path8" fill="#385723"/></g></g><g id="g18" transform="matrix(0.898438 0 0 0.898438 -63.5155 26)"><g id="g16"><path d="M409.558 161.147C393.915 149.384 375.266 143.166 355.626 143.166 336.021 143.166 317.379 149.392 301.712 161.171 298.854 163.321 297.726 167.08 298.928 170.449L325.667 245.345 325.667 287.507C325.667 292.019 329.324 295.677 333.837 295.677 338.35 295.677 342.007 292.019 342.007 287.507L342.007 252.103 369.241 252.103 369.241 287.507C369.241 292.019 372.898 295.677 377.411 295.677 381.924 295.677 385.581 292.019 385.581 287.507L385.581 245.352 412.34 170.425C413.544 167.057 412.417 163.296 409.558 161.147ZM369.242 235.762 342.008 235.762 342.008 233.039C342.008 225.53 348.117 219.422 355.626 219.422 363.134 219.422 369.242 225.53 369.242 233.039ZM379.213 214.603C373.725 207.596 365.196 203.081 355.626 203.081 346.058 203.081 337.53 207.595 332.041 214.599L316.422 170.85C328.149 163.411 341.586 159.506 355.626 159.506 369.693 159.506 383.136 163.403 394.847 170.826Z" id="path14" fill="#385723"/></g></g><g id="g20" transform="matrix(0.898438 0 0 0.898438 0.546406 26)"></g><g id="g22" transform="matrix(0.898438 0 0 0.898438 0.546406 26)"></g><g id="g24" transform="matrix(0.898438 0 0 0.898438 0.546406 26)"></g><g id="g26" transform="matrix(0.898438 0 0 0.898438 0.546406 26)"></g><g id="g28" transform="matrix(0.898438 0 0 0.898438 0.546406 26)"></g><g id="g30" transform="matrix(0.898438 0 0 0.898438 0.546406 26)"></g><g id="g32" transform="matrix(0.898438 0 0 0.898438 0.546406 26)"></g><g id="g34" transform="matrix(0.898438 0 0 0.898438 0.546406 26)"></g><g id="g36" transform="matrix(0.898438 0 0 0.898438 0.546406 26)"></g><g id="g38" transform="matrix(0.898438 0 0 0.898438 0.546406 26)"></g><g id="g40" transform="matrix(0.898438 0 0 0.898438 0.546406 26)"></g><g id="g42" transform="matrix(0.898438 0 0 0.898438 0.546406 26)"></g><g id="g44" transform="matrix(0.898438 0 0 0.898438 0.546406 26)"></g><g id="g46" transform="matrix(0.898438 0 0 0.898438 0.546406 26)"></g><g id="g48" transform="matrix(0.898438 0 0 0.898438 0.546406 26)"></g></svg>