<?xml version="1.0" encoding="UTF-8"?>
<!DOCTYPE svg PUBLIC "-//W3C//DTD SVG 1.1//EN" "http://www.w3.org/Graphics/SVG/1.1/DTD/svg11.dtd">
<svg xmlns="http://www.w3.org/2000/svg" version="1.1" width="512px" height="512px" style="shape-rendering:geometricPrecision; text-rendering:geometricPrecision; image-rendering:optimizeQuality; fill-rule:evenodd; clip-rule:evenodd" xmlns:xlink="http://www.w3.org/1999/xlink">
<g><path style="opacity:0.929" fill="#2A6279" d="M 322.5,-0.5 C 328.167,-0.5 333.833,-0.5 339.5,-0.5C 391.711,7.8851 430.545,35.2184 456,81.5C 468.642,107.043 473.975,134.043 472,162.5C 470.664,168.501 467.164,172.668 461.5,175C 451.5,175.667 441.5,175.667 431.5,175C 427.667,173.833 425.167,171.333 424,167.5C 423.934,161.163 423.934,154.83 424,148.5C 418.889,135.028 409.389,130.194 395.5,134C 387.857,137.769 383.524,143.935 382.5,152.5C 386.164,160.69 384.831,167.857 378.5,174C 360.924,175.639 343.258,175.972 325.5,175C 319.307,172.807 315.141,168.641 313,162.5C 311.612,148.545 311.112,134.545 311.5,120.5C 283.491,121.653 269.324,108.32 269,80.5C 273.272,74.698 277.939,74.3647 283,79.5C 283.343,94.2316 290.676,102.898 305,105.5C 313.027,101.74 320.027,103.073 326,109.5C 327.303,125.075 327.97,140.741 328,156.5C 328.374,157.416 328.874,158.25 329.5,159C 342.162,159.5 354.829,159.667 367.5,159.5C 365.702,133.63 377.702,119.297 403.5,116.5C 422.987,117.479 435.153,127.479 440,146.5C 440.499,150.821 440.666,155.154 440.5,159.5C 445.833,159.5 451.167,159.5 456.5,159.5C 456.754,97.8057 429.42,53.3057 374.5,26C 359.491,19.4973 343.824,15.9973 327.5,15.5C 327.667,29.1707 327.5,42.8374 327,56.5C 325.833,60.3333 323.333,62.8333 319.5,64C 310.163,63.4065 300.829,63.4065 291.5,64C 286.167,59.3333 286.167,54.6667 291.5,50C 297.974,47.8723 304.641,47.039 311.5,47.5C 311.102,34.7808 311.602,22.1142 313,9.5C 315.022,4.98004 318.189,1.6467 322.5,-0.5 Z"/></g>
<g><path style="opacity:0.908" fill="#2A6279" d="M 149.5,35.5 C 156.46,34.6356 160.293,37.6356 161,44.5C 163.131,54.0769 164.131,63.7436 164,73.5C 158.148,79.2876 153.148,78.6209 149,71.5C 147.608,62.1468 146.108,52.8135 144.5,43.5C 144.71,39.8048 146.377,37.1381 149.5,35.5 Z"/></g>
<g><path style="opacity:0.9" fill="#2A6279" d="M 80.5,71.5 C 82.9267,71.523 85.26,72.023 87.5,73C 94,79.5 100.5,86 107,92.5C 110.5,103.667 106.667,107.5 95.5,104C 89,97.5 82.5,91 76,84.5C 73.5283,78.7792 75.0283,74.4458 80.5,71.5 Z"/></g>
<g><path style="opacity:0.935" fill="#2A6279" d="M 286.5,511.5 C 254.167,511.5 221.833,511.5 189.5,511.5C 178.744,508.03 171.244,501.03 167,490.5C 165.706,466.216 165.039,441.883 165,417.5C 163.151,407.285 160.484,397.285 157,387.5C 153.28,378.566 149.447,369.732 145.5,361C 146.992,354.582 150.992,352.249 157.5,354C 169.037,370.766 176.37,389.266 179.5,409.5C 196.5,409.5 213.5,409.5 230.5,409.5C 230.029,392.738 230.529,376.072 232,359.5C 233.663,357.083 235.829,355.25 238.5,354C 245.161,354.12 251.827,354.12 258.5,354C 272.641,347.91 276.807,337.744 271,323.5C 266.882,316.775 260.882,313.441 253,313.5C 244.894,316.064 237.894,314.397 232,308.5C 230.529,291.928 230.029,275.262 230.5,258.5C 217.167,258.5 203.833,258.5 190.5,258.5C 192.471,278.053 184.471,291.886 166.5,300C 138.026,305.267 121.693,293.601 117.5,265C 117.536,262.906 117.869,260.906 118.5,259C 113.845,258.501 109.179,258.334 104.5,258.5C 109.102,285.038 120.602,308.038 139,327.5C 141.537,336.635 138.037,340.468 128.5,339C 100.453,309.87 86.1196,274.87 85.5,234C 87.043,178.882 110.376,135.882 155.5,105C 179.624,89.6242 205.957,81.9575 234.5,82C 241.308,84.4399 245.142,89.2733 246,96.5C 246.667,109.5 246.667,122.5 246,135.5C 245.444,140.389 242.944,143.889 238.5,146C 233.313,146.637 228.146,146.471 223,145.5C 208.036,147.796 201.37,156.463 203,171.5C 208.424,185.26 218.258,189.927 232.5,185.5C 240.006,186.175 244.506,190.175 246,197.5C 246.5,212.496 246.667,227.496 246.5,242.5C 259.5,242.5 272.5,242.5 285.5,242.5C 283.274,223.446 290.607,209.613 307.5,201C 330.938,194.471 347.438,202.304 357,224.5C 358.304,230.423 358.804,236.423 358.5,242.5C 382.451,238.611 391.618,248.278 386,271.5C 380.722,290.697 372.389,308.364 361,324.5C 317.167,370.02 300.167,424.353 310,487.5C 306.642,500.023 298.809,508.023 286.5,511.5 Z M 221.5,97.5 C 224.448,97.2229 227.281,97.5562 230,98.5C 230.832,109.182 230.666,119.849 229.5,130.5C 207.318,128.345 193.152,138.012 187,159.5C 184.924,183.201 195.424,197.701 218.5,203C 222.537,203.607 226.537,203.44 230.5,202.5C 230.5,215.833 230.5,229.167 230.5,242.5C 214.497,242.333 198.497,242.5 182.5,243C 173.596,248.05 171.262,255.384 175.5,265C 171.132,283.683 160.132,289.35 142.5,282C 137.01,277.853 134.01,272.353 133.5,265.5C 135.695,258.075 134.695,251.242 130.5,245C 129.167,244.333 127.833,243.667 126.5,243C 118.173,242.5 109.84,242.334 101.5,242.5C 100.833,186.989 123.833,144.489 170.5,115C 186.628,106.236 203.628,100.403 221.5,97.5 Z M 317.5,214.5 C 329.55,213.939 337.716,219.272 342,230.5C 341.934,236.83 341.934,243.163 342,249.5C 343.717,254.551 347.217,257.385 352.5,258C 359.167,258.333 365.833,258.667 372.5,259C 367.781,280.935 358.615,300.768 345,318.5C 319.939,343.948 303.772,374.281 296.5,409.5C 279.833,409.5 263.167,409.5 246.5,409.5C 246.5,396.5 246.5,383.5 246.5,370.5C 264.832,371.92 278.332,364.586 287,348.5C 294.01,323.685 285.51,306.852 261.5,298C 256.511,297.501 251.511,297.334 246.5,297.5C 246.5,284.5 246.5,271.5 246.5,258.5C 261.504,258.667 276.504,258.5 291.5,258C 296.598,256.567 300.098,253.4 302,248.5C 302.265,244.172 302.098,239.838 301.5,235.5C 302.272,224.93 307.605,217.93 317.5,214.5 Z M 181.5,425.5 C 219.167,425.5 256.833,425.5 294.5,425.5C 294.5,429.5 294.5,433.5 294.5,437.5C 271.164,437.333 247.831,437.5 224.5,438C 216.973,442.661 216.639,447.661 223.5,453C 247.164,453.5 270.831,453.667 294.5,453.5C 294.5,458.167 294.5,462.833 294.5,467.5C 256.833,467.5 219.167,467.5 181.5,467.5C 181.5,462.833 181.5,458.167 181.5,453.5C 186.511,453.666 191.511,453.499 196.5,453C 202.194,447.138 201.527,442.138 194.5,438C 190.179,437.501 185.846,437.334 181.5,437.5C 181.5,433.5 181.5,429.5 181.5,425.5 Z M 182.5,483.5 C 219.835,483.333 257.168,483.5 294.5,484C 292.807,489.693 289.14,493.36 283.5,495C 268.377,496.125 253.21,496.625 238,496.5C 222.79,496.625 207.623,496.125 192.5,495C 187.147,492.82 183.813,488.987 182.5,483.5 Z"/></g>
<g><path style="opacity:0.906" fill="#2A6279" d="M 44.5,141.5 C 54.5062,142.89 64.5062,144.39 74.5,146C 81.0038,149.52 82.0038,154.187 77.5,160C 75.4664,161.006 73.2998,161.506 71,161.5C 61.7697,160.372 52.603,158.872 43.5,157C 38.4648,153.987 37.2981,149.82 40,144.5C 41.4087,143.219 42.9087,142.219 44.5,141.5 Z"/></g>
<g><path style="opacity:0.912" fill="#2A6279" d="M 416.5,291.5 C 426.835,292.186 437.168,293.019 447.5,294C 449.333,294.5 450.5,295.667 451,297.5C 453.022,304.974 450.189,308.974 442.5,309.5C 432.812,308.888 423.145,308.054 413.5,307C 407.936,300.533 408.936,295.366 416.5,291.5 Z"/></g>
<g><path style="opacity:0.905" fill="#2A6279" d="M 392.5,350.5 C 395.32,350.248 397.986,350.748 400.5,352C 407.946,357.812 415.113,363.978 422,370.5C 423.717,379.116 420.217,382.949 411.5,382C 403.39,375.858 395.557,369.358 388,362.5C 386.309,357.131 387.809,353.131 392.5,350.5 Z"/></g>
<g><path style="opacity:0.901" fill="#2A6279" d="M 339.5,384.5 C 344.28,383.641 347.78,385.308 350,389.5C 352.578,398.978 355.078,408.478 357.5,418C 356.239,424.915 352.239,427.249 345.5,425C 343.667,424.5 342.5,423.333 342,421.5C 339.108,412.097 336.608,402.597 334.5,393C 334.525,389.105 336.192,386.272 339.5,384.5 Z"/></g>
</svg>
