<svg viewBox="0 0 512.107 512.107" xmlns="http://www.w3.org/2000/svg" xmlns:xlink="http://www.w3.org/1999/xlink" id="Layer_1" overflow="hidden"><defs id="defs47"></defs><g id="g14"></g><g id="g16"></g><g id="g18"></g><g id="g20"></g><g id="g22"></g><g id="g24"></g><g id="g26"></g><g id="g28"></g><g id="g30"></g><g id="g32"></g><g id="g34"></g><g id="g36"></g><g id="g38"></g><g id="g40"></g><g id="g42"></g><g id="g1060" transform="translate(0.813927 3.99339)"><path d="M459.586 67.9487C454.372 67.7289 442.43 67.9829 430.323 73.5309 420.222 78.1597 410.339 88.1222 397.229 100.093 384.119 112.065 368.964 125.863 353.792 136.764 325.928 156.787 278.623 159.602 214.142 123.147 180.844 104.322 162.372 94.7083 139.457 95.0178 116.542 95.3274 92.051 104.803 43.637 120.959 38.6649 122.618 35.9068 128.221 37.4765 133.475 37.4765 133.475 37.4766 133.475 37.4766 133.475 39.0469 138.729 44.3504 141.643 49.3223 139.984 49.3227 139.983 49.3232 139.983 49.3236 139.983 97.9366 123.761 121.86 115.209 139.698 114.968 157.536 114.727 172.155 122.038 205.234 140.739 273.505 179.337 329.045 178.675 364.411 153.261 380.856 141.445 396.462 127.162 409.574 115.19 422.685 103.217 434.483 93.3724 437.835 91.8361 448.6 86.9031 460.316 87.988 460.316 87.988 465.5 88.571 470.15 84.6029 470.703 79.1247 471.254 73.6461 467.498 68.7323 462.314 68.1494 462.313 68.1494 462.313 68.1494 462.313 68.1493 462.313 68.1494 461.324 68.0219 459.586 67.9487Z" id="path965" color="#000000" stroke-width="0.970459" stroke-linecap="round" stroke-linejoin="round" fill="#663300" font-family="Arial" font-weight="400" font-size="12" overflow="visible"/><g id="g1003" transform="translate(390.282 63.5975)"><path d="M-169.894 39.1373C-186.428 40.2033-199.761 53.4303-201.041 69.8573-202.534 89.3773-187.174 105.697-167.974 105.804-167.867 105.804-167.867 105.804-167.761 105.804-149.308 105.804-134.268 90.9773-134.268 72.6313-134.161 53.4303-150.268 37.8573-169.894 39.1373ZM-167.441 85.3233C-167.548 85.3233-167.548 85.3233-167.654 85.3233-174.907 85.3233-180.881 79.4563-180.987 72.2033-181.094 64.8433-175.227 58.7633-167.867 58.6563-160.507 58.5493-154.427 64.4163-154.32 71.7763-154.214 79.1373-160.081 85.2173-167.441 85.3233Z" id="path975" fill="#663300"/><path d="M-167.441 85.3233C-167.548 85.3233-167.548 85.3233-167.654 85.3233-174.907 85.3233-180.881 79.4563-180.987 72.2033-181.094 64.8433-175.227 58.7633-167.867 58.6563-160.507 58.5494-154.427 64.4163-154.32 71.7763-154.214 79.1373-160.081 85.2173-167.441 85.3233Z" id="path999" fill="#663300"/></g><g id="g1009" transform="translate(560.927 40.2441)"><path d="M-169.894 39.1373C-186.428 40.2033-199.761 53.4303-201.041 69.8573-202.534 89.3773-187.174 105.697-167.974 105.804-167.867 105.804-167.867 105.804-167.761 105.804-149.308 105.804-134.268 90.9773-134.268 72.6313-134.161 53.4303-150.268 37.8573-169.894 39.1373ZM-167.441 85.3233C-167.548 85.3233-167.548 85.3233-167.654 85.3233-174.907 85.3233-180.881 79.4563-180.987 72.2033-181.094 64.8433-175.227 58.7633-167.867 58.6563-160.507 58.5493-154.427 64.4163-154.32 71.7763-154.214 79.1373-160.081 85.2173-167.441 85.3233Z" id="path1005" fill="#663300"/><path d="M-167.441 85.3233C-167.548 85.3233-167.548 85.3233-167.654 85.3233-174.907 85.3233-180.881 79.4563-180.987 72.2033-181.094 64.8433-175.227 58.7633-167.867 58.6563-160.507 58.5494-154.427 64.4163-154.32 71.7763-154.214 79.1373-160.081 85.2173-167.441 85.3233Z" id="path1007" fill="#663300"/></g></g><g id="g1042" transform="translate(2.76069 14.6981)"><path d="M460.324 322.255C455.11 322.035 443.168 322.289 431.061 327.837 420.96 332.466 411.077 342.428 397.967 354.399 384.857 366.371 369.702 380.169 354.531 391.07 326.666 411.093 279.361 413.908 214.88 377.453 181.582 358.628 163.11 349.014 140.195 349.324 117.28 349.633 92.7893 359.109 44.3754 375.265 39.4033 376.924 36.6451 382.527 38.2148 387.781 38.2149 387.781 38.2149 387.781 38.2149 387.781 39.7853 393.035 45.0888 395.949 50.0606 394.29 50.0611 394.289 50.0615 394.289 50.0619 394.289 98.675 378.067 122.598 369.514 140.437 369.274 158.275 369.033 172.894 376.344 205.972 395.045 274.244 433.643 329.783 432.981 365.15 407.567 381.594 395.751 397.201 381.468 410.312 369.496 423.424 357.523 435.221 347.678 438.574 346.142 449.338 341.209 461.054 342.294 461.054 342.294 466.239 342.877 470.889 338.909 471.441 333.431 471.992 327.952 468.237 323.038 463.052 322.455 463.052 322.455 463.051 322.455 463.051 322.455 463.051 322.455 462.062 322.328 460.324 322.255Z" id="path957" color="#000000" stroke-width="0.970459" stroke-linecap="round" stroke-linejoin="round" fill="#663300" font-family="Arial" font-weight="400" font-size="12" overflow="visible"/><g id="g1021" transform="translate(574.661 297.426)"><path d="M-169.894 39.1373C-186.428 40.2033-199.761 53.4303-201.041 69.8573-202.534 89.3773-187.174 105.697-167.974 105.804-167.867 105.804-167.867 105.804-167.761 105.804-149.308 105.804-134.268 90.9773-134.268 72.6313-134.161 53.4303-150.268 37.8573-169.894 39.1373ZM-167.441 85.3233C-167.548 85.3233-167.548 85.3233-167.654 85.3233-174.907 85.3233-180.881 79.4563-180.987 72.2033-181.094 64.8433-175.227 58.7633-167.867 58.6563-160.507 58.5493-154.427 64.4163-154.32 71.7763-154.214 79.1373-160.081 85.2173-167.441 85.3233Z" id="path1017" fill="#663300"/><path d="M-167.441 85.3233C-167.548 85.3233-167.548 85.3233-167.654 85.3233-174.907 85.3233-180.881 79.4563-180.987 72.2033-181.094 64.8433-175.227 58.7633-167.867 58.6563-160.507 58.5494-154.427 64.4163-154.32 71.7763-154.214 79.1373-160.081 85.2173-167.441 85.3233Z" id="path1019" fill="#663300"/></g><g id="g1027" transform="translate(363.578 310.159)"><path d="M-169.894 39.1373C-186.428 40.2033-199.761 53.4303-201.041 69.8573-202.534 89.3773-187.174 105.697-167.974 105.804-167.867 105.804-167.867 105.804-167.761 105.804-149.308 105.804-134.268 90.9773-134.268 72.6313-134.161 53.4303-150.268 37.8573-169.894 39.1373ZM-167.441 85.3233C-167.548 85.3233-167.548 85.3233-167.654 85.3233-174.907 85.3233-180.881 79.4563-180.987 72.2033-181.094 64.8433-175.227 58.7633-167.867 58.6563-160.507 58.5493-154.427 64.4163-154.32 71.7763-154.214 79.1373-160.081 85.2173-167.441 85.3233Z" id="path1023" fill="#663300"/><path d="M-167.441 85.3233C-167.548 85.3233-167.548 85.3233-167.654 85.3233-174.907 85.3233-180.881 79.4563-180.987 72.2033-181.094 64.8433-175.227 58.7633-167.867 58.6563-160.507 58.5494-154.427 64.4163-154.32 71.7763-154.214 79.1373-160.081 85.2173-167.441 85.3233Z" id="path1025" fill="#663300"/></g></g><g id="g1051" transform="translate(2.76069 33.9)"><path d="M459.599 172.088C454.385 171.868 442.443 172.122 430.336 177.67 420.235 182.299 410.352 192.261 397.242 204.233 384.132 216.204 368.976 230.002 353.805 240.904 325.941 260.927 278.635 263.741 214.154 227.286 180.857 208.461 162.384 198.848 139.469 199.157 116.554 199.467 92.0638 208.942 43.6498 225.098 38.6777 226.757 35.9196 232.361 37.4893 237.614 37.4893 237.615 37.4893 237.615 37.4893 237.615 39.0597 242.868 44.3632 245.782 49.3351 244.123 49.3355 244.123 49.3359 244.122 49.3364 244.122 97.9494 227.9 121.873 219.348 139.711 219.107 157.549 218.866 172.168 226.177 205.247 244.878 273.518 283.476 329.058 282.815 364.424 257.401 380.869 245.584 396.475 231.302 409.587 219.329 422.698 207.356 434.495 197.512 437.848 195.975 448.613 191.042 460.329 192.127 460.329 192.127 465.513 192.71 470.163 188.742 470.715 183.264 471.267 177.785 467.511 172.872 462.326 172.289 462.326 172.289 462.326 172.289 462.326 172.289 462.326 172.289 461.336 172.161 459.599 172.088Z" id="path963" color="#000000" stroke-width="0.970459" stroke-linecap="round" stroke-linejoin="round" fill="#663300" font-family="Arial" font-weight="400" font-size="12" overflow="visible"/><g id="g1015" transform="translate(305.866 140.595)"><path d="M-169.894 39.1373C-186.428 40.2033-199.761 53.4303-201.041 69.8573-202.534 89.3773-187.174 105.697-167.974 105.804-167.867 105.804-167.867 105.804-167.761 105.804-149.308 105.804-134.268 90.9773-134.268 72.6313-134.161 53.4303-150.268 37.8573-169.894 39.1373ZM-167.441 85.3233C-167.548 85.3233-167.548 85.3233-167.654 85.3233-174.907 85.3233-180.881 79.4563-180.987 72.2033-181.094 64.8433-175.227 58.7633-167.867 58.6563-160.507 58.5493-154.427 64.4163-154.32 71.7763-154.214 79.1373-160.081 85.2173-167.441 85.3233Z" id="path1011" fill="#663300"/><path d="M-167.441 85.3233C-167.548 85.3233-167.548 85.3233-167.654 85.3233-174.907 85.3233-180.881 79.4563-180.987 72.2033-181.094 64.8433-175.227 58.7633-167.867 58.6563-160.507 58.5494-154.427 64.4163-154.32 71.7763-154.214 79.1373-160.081 85.2173-167.441 85.3233Z" id="path1013" fill="#663300"/></g><g id="g1033" transform="translate(477.768 192.709)"><path d="M-169.894 39.1373C-186.428 40.2033-199.761 53.4303-201.041 69.8573-202.534 89.3773-187.174 105.697-167.974 105.804-167.867 105.804-167.867 105.804-167.761 105.804-149.308 105.804-134.268 90.9773-134.268 72.6313-134.161 53.4303-150.268 37.8573-169.894 39.1373ZM-167.441 85.3233C-167.548 85.3233-167.548 85.3233-167.654 85.3233-174.907 85.3233-180.881 79.4563-180.987 72.2033-181.094 64.8433-175.227 58.7633-167.867 58.6563-160.507 58.5493-154.427 64.4163-154.32 71.7763-154.214 79.1373-160.081 85.2173-167.441 85.3233Z" id="path1029" fill="#663300"/><path d="M-167.441 85.3233C-167.548 85.3233-167.548 85.3233-167.654 85.3233-174.907 85.3233-180.881 79.4563-180.987 72.2033-181.094 64.8433-175.227 58.7633-167.867 58.6563-160.507 58.5494-154.427 64.4163-154.32 71.7763-154.214 79.1373-160.081 85.2173-167.441 85.3233Z" id="path1031" fill="#663300"/></g></g></svg>