<svg width="721" height="564" xmlns="http://www.w3.org/2000/svg" xmlns:xlink="http://www.w3.org/1999/xlink" overflow="hidden"><defs><clipPath id="clip0"><rect x="120" y="75" width="721" height="564"/></clipPath><clipPath id="clip1"><rect x="121" y="76" width="720" height="563"/></clipPath><clipPath id="clip2"><rect x="121" y="76" width="720" height="563"/></clipPath><clipPath id="clip3"><rect x="121" y="63" width="720" height="721"/></clipPath></defs><g clip-path="url(#clip0)" transform="translate(-120 -75)"><g clip-path="url(#clip1)"><g clip-path="url(#clip2)"><g clip-path="url(#clip3)"><path d="M448.066 70.2483 90 70.2483C86.2714 70.2483 83.25 73.2698 83.25 76.9983L83.25 509.626C83.25 513.354 86.2714 516.376 90 516.376L448.066 516.376C451.795 516.376 454.816 513.354 454.816 509.626L454.816 76.9983C454.816 73.2698 451.795 70.2483 448.066 70.2483ZM202.608 502.876 96.7577 502.876 96.7577 83.7535 202.608 83.7535ZM321.963 502.876 216.113 502.876 216.113 83.7535 321.963 83.7535ZM441.319 502.876 335.469 502.876 335.469 83.7535 441.319 83.7535Z" fill="#2A6279" transform="matrix(1 0 0 1.00038 121 63.6762)"/><path d="M588.384 65.6198C587.962 61.9193 584.623 59.2515 580.919 59.6653L462.314 72.9966C460.538 73.1975 458.911 74.0975 457.794 75.4957 456.677 76.894 456.163 78.6819 456.364 80.4577L504.686 510.38C504.887 512.156 505.787 513.783 507.185 514.9 508.584 516.017 510.371 516.531 512.147 516.334L630.762 503.003C632.538 502.802 634.165 501.902 635.282 500.504 636.399 499.106 636.913 497.318 636.713 495.542ZM517.349 502.166 470.528 85.6563 575.72 73.836 622.537 490.335Z" fill="#2A6279" transform="matrix(1 0 0 1.00038 121 63.6762)"/><path d="M149.678 203.091C159.381 203.091 168.686 199.234 175.548 192.372 182.411 185.513 186.264 176.204 186.264 166.501 186.264 156.799 182.407 147.493 175.544 140.63 168.686 133.772 159.376 129.915 149.674 129.919 139.97 129.919 130.666 133.772 123.807 140.635 116.945 147.493 113.087 156.803 113.087 166.505 113.099 176.204 116.961 185.506 123.819 192.364 130.678 199.223 139.979 203.08 149.679 203.092ZM149.678 143.418C155.801 143.418 161.675 145.849 166.002 150.18 170.333 154.511 172.764 160.381 172.764 166.504 172.764 172.628 170.329 178.502 165.998 182.829 161.671 187.16 155.797 189.591 149.674 189.591 143.551 189.591 137.681 187.16 133.349 182.829 129.022 178.498 126.587 172.627 126.587 166.504 126.595 160.381 129.03 154.515 133.361 150.184 137.688 145.857 143.559 143.422 149.678 143.418Z" fill="#2A6279" transform="matrix(1 0 0 1.00038 121 63.6762)"/><path d="M269.033 203.091C278.736 203.091 288.041 199.234 294.904 192.376 301.766 185.513 305.619 176.208 305.619 166.501 305.619 156.798 301.766 147.493 294.904 140.635 288.041 133.772 278.736 129.915 269.033 129.919 259.33 129.919 250.025 133.772 243.163 140.635 236.3 147.493 232.447 156.803 232.447 166.505 232.459 176.204 236.316 185.506 243.175 192.364 250.033 199.223 259.335 203.08 269.034 203.092ZM269.033 143.418C275.156 143.418 281.03 145.849 285.358 150.18 289.689 154.511 292.12 160.381 292.12 166.504 292.12 172.628 289.689 178.502 285.358 182.829 281.026 187.16 275.156 189.591 269.033 189.591 262.91 189.591 257.036 187.16 252.709 182.829 248.377 178.498 245.947 172.627 245.947 166.504 245.955 160.381 248.39 154.515 252.717 150.184 257.044 145.857 262.914 143.422 269.033 143.418Z" fill="#2A6279" transform="matrix(1 0 0 1.00038 121 63.6762)"/><path d="M388.389 203.091C398.092 203.091 407.397 199.234 414.259 192.376 421.122 185.513 424.975 176.208 424.975 166.501 424.975 156.798 421.122 147.493 414.259 140.635 407.397 133.772 398.091 129.915 388.389 129.919 378.685 129.919 369.381 133.772 362.518 140.635 355.655 147.493 351.802 156.803 351.802 166.505 351.814 176.204 355.671 185.506 362.53 192.364 369.389 199.223 378.69 203.08 388.39 203.092ZM388.389 143.418C394.512 143.418 400.386 145.849 404.713 150.18 409.044 154.511 411.475 160.381 411.475 166.504 411.475 172.628 409.044 178.502 404.713 182.829 400.382 187.16 394.512 189.591 388.389 189.591 382.266 189.591 376.391 187.16 372.064 182.829 367.733 178.498 365.302 172.627 365.302 166.504 365.31 160.381 367.745 154.515 372.072 150.188 376.399 145.857 382.27 143.426 388.388 143.418Z" fill="#2A6279" transform="matrix(1 0 0 1.00038 121 63.6762)"/><path d="M531.617 129.919C521.914 129.919 512.605 133.772 505.747 140.635 498.884 147.497 495.031 156.803 495.031 166.505 495.031 176.212 498.888 185.517 505.747 192.376 512.609 199.238 521.915 203.091 531.621 203.091 541.324 203.091 550.629 199.238 557.488 192.376 564.35 185.513 568.203 176.208 568.203 166.505 568.195 156.802 564.334 147.504 557.475 140.646 550.617 133.787 541.316 129.926 531.616 129.918ZM531.617 189.592C525.494 189.592 519.62 187.158 515.293 182.826 510.961 178.499 508.531 172.625 508.531 166.502 508.531 160.379 510.966 154.509 515.293 150.178 519.624 145.85 525.494 143.415 531.617 143.419 537.74 143.419 543.614 145.85 547.942 150.182 552.273 154.509 554.704 160.383 554.704 166.506 554.7 172.625 552.261 178.495 547.934 182.822 543.606 187.149 537.736 189.584 531.617 189.592Z" fill="#2A6279" transform="matrix(1 0 0 1.00038 121 63.6762)"/><path d="M168.089 294.079C164.361 294.079 161.339 297.1 161.339 300.829L161.339 416.029C161.339 419.757 164.361 422.779 168.089 422.779 171.818 422.779 174.839 419.757 174.839 416.029L174.839 300.829C174.839 297.1 171.818 294.079 168.089 294.079Z" fill="#2A6279" transform="matrix(1 0 0 1.00038 121 63.6762)"/><path d="M131.266 294.079C127.538 294.079 124.516 297.1 124.516 300.829L124.516 416.029C124.516 419.757 127.538 422.779 131.266 422.779 134.995 422.779 138.016 419.757 138.016 416.029L138.016 300.829C138.016 297.1 134.995 294.079 131.266 294.079Z" fill="#2A6279" transform="matrix(1 0 0 1.00038 121 63.6762)"/><path d="M287.434 294.079C283.706 294.079 280.684 297.1 280.684 300.829L280.684 416.029C280.684 419.757 283.706 422.779 287.434 422.779 291.163 422.779 294.184 419.757 294.184 416.029L294.184 300.829C294.184 297.1 291.163 294.079 287.434 294.079Z" fill="#2A6279" transform="matrix(1 0 0 1.00038 121 63.6762)"/><path d="M250.622 294.079C246.893 294.079 243.872 297.1 243.872 300.829L243.872 416.029C243.872 419.757 246.893 422.779 250.622 422.779 254.35 422.779 257.372 419.757 257.372 416.029L257.372 300.829C257.372 297.1 254.35 294.079 250.622 294.079Z" fill="#2A6279" transform="matrix(1 0 0 1.00038 121 63.6762)"/><path d="M406.8 294.079C403.071 294.079 400.05 297.1 400.05 300.829L400.05 416.029C400.05 419.757 403.071 422.779 406.8 422.779 410.529 422.779 413.55 419.757 413.55 416.029L413.55 300.829C413.55 297.1 410.529 294.079 406.8 294.079Z" fill="#2A6279" transform="matrix(1 0 0 1.00038 121 63.6762)"/><path d="M369.977 294.079C366.249 294.079 363.227 297.1 363.227 300.829L363.227 416.029C363.227 419.757 366.249 422.779 369.977 422.779 373.702 422.779 376.727 419.757 376.727 416.029L376.727 300.829C376.727 297.1 373.702 294.079 369.977 294.079Z" fill="#2A6279" transform="matrix(1 0 0 1.00038 121 63.6762)"/><path d="M567.134 292.577C563.421 292.943 560.713 296.249 561.079 299.958L572.377 414.603C572.718 418.054 575.619 420.69 579.086 420.694 579.311 420.694 579.541 420.682 579.761 420.658 583.474 420.292 586.182 416.989 585.816 413.281L574.51 298.636C574.342 296.852 573.466 295.213 572.079 294.076 570.697 292.939 568.913 292.4 567.133 292.581Z" fill="#2A6279" transform="matrix(1 0 0 1.00038 121 63.6762)"/><path d="M537.871 302.246C537.497 298.541 534.195 295.841 530.494 296.207 526.79 296.573 524.082 299.867 524.435 303.572L535.737 418.216C536.079 421.668 538.979 424.299 542.447 424.303 542.672 424.303 542.897 424.295 543.122 424.271 546.83 423.906 549.542 420.603 549.177 416.89Z" fill="#2A6279" transform="matrix(1 0 0 1.00038 121 63.6762)"/><path d="M3.76066-0.225C3.56781-0.128571 3.36289-0.0522309 3.14995 0 2.94504 0.0522319 2.73209 0.0803571 2.50709 0.0803571 1.82004 0.0803571 1.27363-0.104467 0.867754-0.482148 0.469985-0.867862 0.273117-1.38617 0.273117-2.04105 0.273117-2.704 0.469995-3.22226 0.867754-3.59995 1.27356-3.98567 1.81999-4.17853 2.50709-4.17853 2.73209-4.17853 2.94504-4.1504 3.14995-4.09817 3.36289-4.04192 3.56781-3.9696 3.76066-3.87317L3.76066-3.02139C3.56781-3.14996 3.37495-3.24639 3.18209-3.31067 2.99727-3.37496 2.8004-3.4071 2.58745-3.4071 2.20977-3.4071 1.91245-3.28255 1.68745-3.03745 1.47049-2.8004 1.36603-2.46692 1.36603-2.04103 1.36603-1.62317 1.47049-1.28968 1.68745-1.0446 1.91245-0.807542 2.20977-0.691025 2.58745-0.691025 2.8004-0.691025 2.99728-0.715132 3.18209-0.771382 3.37495-0.835668 3.56781-0.936118 3.76066-1.07674Z" fill="#2A6279" transform="matrix(1 0 0 1.00038 193 656.774)"/><path d="M2.76429-2.23395C2.67589-2.27413 2.59152-2.30628 2.50714-2.33038 2.41875-2.35047 2.33437-2.36253 2.25-2.36253 1.99286-2.36253 1.79197-2.27413 1.65536-2.10538 1.52679-1.94467 1.46251-1.71164 1.46251-1.41431L1.46251-2.05714e-05 0.466077-2.05714e-05 0.466077-3.06969 1.46251-3.06969 1.46251-2.57147C1.57902-2.77236 1.71965-2.91701 1.88036-3.0054 2.04911-3.10183 2.25001-3.15004 2.475-3.15004L2.58751-3.15004C2.62768-3.15004 2.68393-3.14201 2.74822-3.13397Z" fill="#2A6279" transform="matrix(1 0 0 1.00038 197.126 656.774)"/><path d="M3.53571-1.54286 3.53571-1.26965 1.23747-1.26965C1.26962-1.03259 1.35399-0.855813 1.49462-0.739296 1.63122-0.630813 1.83211-0.578582 2.08925-0.578582 2.3022-0.578582 2.51515-0.602689 2.73211-0.658939 2.94506-0.723225 3.16605-0.819653 3.39104-0.948225L3.39104-0.192862C3.16604-0.0964337 2.933-0.0241149 2.69996 0.0160611 2.4629 0.0562392 2.23389 0.0803469 2.00888 0.0803469 1.4504 0.0803469 1.01648-0.0562577 0.707122-0.33751 0.393727-0.626796 0.241056-1.02859 0.241056-1.54289 0.241056-2.03307 0.389715-2.42683 0.691056-2.71608 1.00043-3.00537 1.41829-3.15002 1.94468-3.15002 2.42682-3.15002 2.81254-3.00538 3.10182-2.71608 3.39111-2.42679 3.53576-2.03305 3.53576-1.54289ZM2.53929-1.88035C2.53929-2.06115 2.47902-2.2058 2.36249-2.31429 2.25401-2.4308 2.11339-2.49108 1.94464-2.49108 1.75178-2.49108 1.59509-2.43483 1.47857-2.33036 1.35803-2.22188 1.28571-2.07322 1.25357-1.88036Z" fill="#2A6279" transform="matrix(1 0 0 1.00038 199.903 656.774)"/><path d="M1.84824-1.38219C1.64333-1.38219 1.48664-1.34202 1.38217-1.26969 1.28575-1.2054 1.23754-1.10094 1.23754-0.964327 1.23754-0.843789 1.2737-0.74736 1.35004-0.675041 1.43442-0.610755 1.55093-0.578613 1.70361-0.578613 1.88441-0.578613 2.04111-0.642898 2.16968-0.77147 2.29825-0.900041 2.36254-1.06478 2.36254-1.26969L2.36254-1.38219ZM3.35901-1.75184 3.35901-8.22857e-05 2.36258-8.22857e-05 2.36258-0.450082C2.23401-0.265258 2.08132-0.132675 1.91258-0.0483017 1.75186 0.036073 1.55097 0.0802697 1.31794 0.0802697 0.996511 0.0802697 0.731335-0.00812366 0.530445-0.192939 0.337587-0.385797 0.241159-0.626873 0.241159-0.916149 0.241159-1.27775 0.361697-1.54695 0.610807-1.71972 0.855895-1.88847 1.24563-1.97686 1.784-1.97686L2.36257-1.97686 2.36257-2.04115C2.36257-2.20186 2.29828-2.31436 2.16971-2.37864 2.04917-2.45096 1.86435-2.49115 1.6072-2.49115 1.39024-2.49115 1.19337-2.46704 1.01257-2.42686 0.827743-2.38267 0.663017-2.3224 0.514347-2.25007L0.514347-2.98936C0.715238-3.04159 0.924172-3.07775 1.14114-3.10186 1.35408-3.13401 1.56703-3.15008 1.784-3.15008 2.33846-3.15008 2.74025-3.03757 2.98938-2.81258 3.23447-2.59562 3.35903-2.24204 3.35903-1.75192Z" fill="#2A6279" transform="matrix(1 0 0 1.00038 203.716 656.774)"/><path d="M1.54286-3.95362 1.54286-3.06969 2.55536-3.06969 2.55536-2.37861 1.54286-2.37861 1.54286-1.06081C1.54286-0.920181 1.56696-0.823752 1.62321-0.771521 1.6875-0.727324 1.80402-0.707235 1.97679-0.707235L2.47501-0.707235 2.47501-9.25714e-05 1.63929-9.25714e-05C1.24152-9.25714e-05 0.964291-0.0804497 0.803577-0.241169 0.642862-0.401889 0.5625-0.675103 0.5625-1.06082L0.5625-2.37862 0.0803571-2.37862 0.0803571-3.0697 0.5625-3.0697 0.5625-3.95363Z" fill="#2A6279" transform="matrix(1 0 0 1.00038 207.512 656.774)"/><path d="M3.53571-1.54286 3.53571-1.26965 1.23747-1.26965C1.26962-1.03259 1.35399-0.855813 1.49462-0.739296 1.63122-0.630813 1.83211-0.578582 2.08925-0.578582 2.3022-0.578582 2.51515-0.602689 2.73211-0.658939 2.94506-0.723225 3.16605-0.819653 3.39104-0.948225L3.39104-0.192862C3.16604-0.0964337 2.933-0.0241149 2.69996 0.0160611 2.4629 0.0562392 2.23389 0.0803469 2.00888 0.0803469 1.4504 0.0803469 1.01648-0.0562577 0.707122-0.33751 0.393727-0.626796 0.241056-1.02859 0.241056-1.54289 0.241056-2.03307 0.389715-2.42683 0.691056-2.71608 1.00043-3.00537 1.41829-3.15002 1.94468-3.15002 2.42682-3.15002 2.81254-3.00538 3.10182-2.71608 3.39111-2.42679 3.53576-2.03305 3.53576-1.54289ZM2.53929-1.88035C2.53929-2.06115 2.47902-2.2058 2.36249-2.31429 2.25401-2.4308 2.11339-2.49108 1.94464-2.49108 1.75178-2.49108 1.59509-2.43483 1.47857-2.33036 1.35803-2.22188 1.28571-2.07322 1.25357-1.88036Z" fill="#2A6279" transform="matrix(1 0 0 1.00038 210.2 656.774)"/><path d="M2.57143-2.61967 2.57143-4.27505 3.55178-4.27505 3.55178-0.000102857 2.57143-0.000102857 2.57143-0.450103C2.4308-0.265279 2.28214-0.132696 2.12143-0.0483223 1.96071 0.0360525 1.77188 0.0802491 1.55892 0.0802491 1.17321 0.0802491 0.855802-0.0684103 0.610704-0.369751 0.373649-0.66707 0.257133-1.06083 0.257133-1.54294 0.257133-2.01303 0.373649-2.39874 0.610704-2.70008 0.855792-2.9974 1.17321-3.15008 1.55892-3.15008 1.75981-3.15008 1.94464-3.10589 2.10535-3.02151 2.2741-2.93312 2.4308-2.80053 2.57142-2.61973ZM1.91251-0.626811C2.12545-0.626811 2.28616-0.699133 2.39465-0.851811 2.51116-1.01253 2.57144-1.24155 2.57144-1.54289 2.57144-1.83217 2.51117-2.04914 2.39465-2.20181 2.28616-2.36253 2.12545-2.44289 1.91251-2.44289 1.70759-2.44289 1.54688-2.36253 1.43036-2.20181 1.32188-2.04913 1.26965-1.83216 1.26965-1.54289 1.26965-1.24155 1.32188-1.01254 1.43036-0.851811 1.54688-0.69913 1.70759-0.626811 1.91251-0.626811Z" fill="#2A6279" transform="matrix(1 0 0 1.00038 214.017 656.774)"/><path d="M2.10538-0.626791C2.31833-0.626791 2.47904-0.699113 2.58753-0.851791 2.70404-1.01251 2.76432-1.24153 2.76432-1.54287 2.76432-1.83215 2.70405-2.04912 2.58753-2.20179 2.47904-2.36251 2.31833-2.44287 2.10538-2.44287 1.90047-2.44287 1.73976-2.36251 1.62324-2.20179 1.51476-2.04911 1.46253-1.83214 1.46253-1.54287 1.46253-1.24153 1.51476-1.01252 1.62324-0.851791 1.73976-0.69911 1.90047-0.626791 2.10538-0.626791ZM1.46253-2.61965C1.5911-2.80045 1.73573-2.93304 1.89646-3.02143 2.06521-3.1058 2.25806-3.15 2.47503-3.15 2.84869-3.15 3.15806-2.99732 3.40717-2.7 3.65226-2.39866 3.77682-2.01295 3.77682-1.54286 3.77682-1.06071 3.65227-0.666967 3.40717-0.369669 3.15806-0.068328 2.84869 0.0803314 2.47503 0.0803314 2.25806 0.0803314 2.06521 0.0361347 1.89646-0.04824 1.73575-0.132615 1.5911-0.265207 1.46253-0.450021L1.46253-2.05714e-05 0.466097-2.05714e-05 0.466097-4.27497 1.46253-4.27497Z" fill="#2A6279" transform="matrix(1 0 0 1.00038 220 656.774)"/><path d="M0.0642857-3.06967 1.04464-3.06967 1.88035-0.99648 2.5875-3.06967 3.56785-3.06967 2.26609 0.289234C2.13752 0.630751 1.98483 0.871827 1.81609 1.01244 1.64332 1.14905 1.41431 1.22137 1.12501 1.22137L0.562505 1.22137 0.562505 0.562443 0.867867 0.562443C1.03661 0.562443 1.16117 0.534318 1.23752 0.482086 1.30984 0.425836 1.37011 0.337449 1.41431 0.208877L1.44645 0.112449Z" fill="#2A6279" transform="matrix(1 0 0 1.00038 224.03 656.774)"/><path d="M0.514286-4.09824 1.57495-4.09824 1.57495 0 0.514286 0Z" fill="#2A6279" transform="matrix(1 0 0 1.00038 229.655 656.774)"/><path d="M2.95714-2.97319 2.95714-2.18569C2.82857-2.27007 2.69197-2.33435 2.55536-2.37855 2.41474-2.41873 2.27411-2.44284 2.13751-2.44284 1.85625-2.44284 1.64331-2.36248 1.49465-2.20176 1.34197-2.04105 1.26965-1.82007 1.26965-1.54284 1.26965-1.25355 1.34197-1.02855 1.49465-0.867837 1.64331-0.707122 1.85625-0.62676 2.13751-0.62676 2.28616-0.62676 2.43081-0.646849 2.57144-0.691046 2.70804-0.731225 2.83661-0.803551 2.95715-0.899969L2.95715-0.0963977C2.80447-0.032112 2.65179 0.008064 2.49109 0.0321737 2.33037 0.0643166 2.16966 0.080388 2.00894 0.080388 1.45046 0.080388 1.01654-0.0562166 0.707184-0.337469 0.393789-0.626755 0.241118-1.02855 0.241118-1.54285 0.241118-2.04508 0.393799-2.43482 0.707184-2.71604 1.01656-3.00533 1.45049-3.14997 2.00894-3.14997 2.16966-3.14997 2.33037-3.1339 2.49109-3.10176 2.6518-3.07765 2.80448-3.03747 2.95715-2.97319Z" fill="#2A6279" transform="matrix(1 0 0 1.00038 231.744 656.774)"/><path d="M1.92857-2.44286C1.7116-2.44286 1.54688-2.3625 1.43035-2.20178 1.32187-2.0491 1.26964-1.83213 1.26964-1.54286 1.26964-1.24152 1.32187-1.01251 1.43035-0.851781 1.54687-0.699099 1.7116-0.626781 1.92857-0.626781 2.14152-0.626781 2.30625-0.699103 2.42679-0.851781 2.54331-1.01249 2.60358-1.24152 2.60358-1.54286 2.60358-1.83214 2.54331-2.04911 2.42679-2.20178 2.30625-2.36249 2.14153-2.44286 1.92857-2.44286ZM1.92857-3.15C2.46295-3.15 2.87679-3.00536 3.16605-2.71607 3.46336-2.43481 3.61605-2.04509 3.61605-1.54288 3.61605-1.02859 3.46336-0.626811 3.16605-0.337495 2.87676-0.0562423 2.46292 0.0803623 1.92857 0.0803623 1.40223 0.0803623 0.988396-0.0562423 0.691097-0.337495 0.389757-0.626781 0.241097-1.02857 0.241097-1.54288 0.241097-2.04511 0.389757-2.43484 0.691097-2.71607 0.988416-3.00535 1.40226-3.15 1.92857-3.15Z" fill="#2A6279" transform="matrix(1 0 0 1.00038 235.079 656.774)"/><path d="M3.56791-1.88033 3.56791 0 2.57148 0 2.57148-1.43033C2.57148-1.69551 2.56345-1.88033 2.55541-1.97676 2.54335-2.08122 2.52327-2.15756 2.49112-2.20176 2.45898-2.26605 2.40273-2.31427 2.33041-2.3464 2.26612-2.38658 2.1938-2.41068 2.12149-2.41068 1.90452-2.41068 1.73979-2.33033 1.62327-2.16961 1.51478-2.00889 1.46255-1.78791 1.46255-1.51068L1.46255 8.22857e-05 0.466123 8.22857e-05 0.466123-3.06959 1.46255-3.06959 1.46255-2.61959C1.59916-2.80039 1.75586-2.93298 1.92862-3.02137 2.09737-3.10574 2.28219-3.14994 2.47505-3.14994 2.82862-3.14994 3.09379-3.03743 3.27862-2.81244 3.47148-2.59548 3.5679-2.2861 3.5679-1.8803Z" fill="#2A6279" transform="matrix(1 0 0 1.00038 238.944 656.774)"/><path d="M2.57143-0.514286C2.4308-0.341517 2.28214-0.212945 2.12143-0.128571 1.96071-0.0401781 1.77188 0 1.55892 0 1.18124 0 0.871869-0.144638 0.626781-0.433934 0.377671-0.731253 0.257133-1.11296 0.257133-1.57503 0.257133-2.03306 0.377671-2.41075 0.626781-2.70008 0.871869-2.9974 1.18124-3.15008 1.55892-3.15008 1.77187-3.15008 1.9607-3.10589 2.12143-3.02151 2.28214-2.93312 2.4308-2.80053 2.57143-2.61973L2.57143-3.06973 3.55178-3.06973 3.55178-0.305445C3.55178 0.184731 3.39509 0.562413 3.08571 0.819607 2.77232 1.08478 2.31831 1.22139 1.71967 1.22139 1.53484 1.22139 1.35404 1.20532 1.17324 1.17317 0.988416 1.14103 0.807614 1.09282 0.626811 1.02854L0.626811 0.273173C0.795559 0.369602 0.964306 0.437909 1.12503 0.482097 1.29378 0.534329 1.46655 0.562454 1.63932 0.562454 1.96075 0.562454 2.19378 0.490132 2.34646 0.35353 2.49512 0.212904 2.57146-0.00406286 2.57146-0.305393ZM1.91251-2.44286C1.70759-2.44286 1.54688-2.36652 1.43036-2.21786 1.32188-2.06518 1.26965-1.85223 1.26965-1.575 1.26965-1.29375 1.32188-1.0808 1.43036-0.932143 1.54688-0.779462 1.70759-0.707143 1.91251-0.707143 2.1134-0.707143 2.27411-0.779464 2.39465-0.932143 2.51116-1.0808 2.57144-1.29375 2.57144-1.575 2.57144-1.85223 2.51117-2.06518 2.39465-2.21786 2.27411-2.36652 2.1134-2.44286 1.91251-2.44286Z" fill="#2A6279" transform="matrix(1 0 0 1.00038 242.95 656.774)"/><path d="M3.53571-1.54286 3.53571-1.26965 1.23747-1.26965C1.26962-1.03259 1.35399-0.855813 1.49462-0.739296 1.63122-0.630813 1.83211-0.578582 2.08925-0.578582 2.3022-0.578582 2.51515-0.602689 2.73211-0.658939 2.94506-0.723225 3.16605-0.819653 3.39104-0.948225L3.39104-0.192862C3.16604-0.0964337 2.933-0.0241149 2.69996 0.0160611 2.4629 0.0562392 2.23389 0.0803469 2.00888 0.0803469 1.4504 0.0803469 1.01648-0.0562577 0.707122-0.33751 0.393727-0.626796 0.241056-1.02859 0.241056-1.54289 0.241056-2.03307 0.389715-2.42683 0.691056-2.71608 1.00043-3.00537 1.41829-3.15002 1.94468-3.15002 2.42682-3.15002 2.81254-3.00538 3.10182-2.71608 3.39111-2.42679 3.53576-2.03305 3.53576-1.54289ZM2.53929-1.88035C2.53929-2.06115 2.47902-2.2058 2.36249-2.31429 2.25401-2.4308 2.11339-2.49108 1.94464-2.49108 1.75178-2.49108 1.59509-2.43483 1.47857-2.33036 1.35803-2.22188 1.28571-2.07322 1.25357-1.88036Z" fill="#2A6279" transform="matrix(1 0 0 1.00038 246.976 656.774)"/><path d="M3.53571-1.54286 3.53571-1.26965 1.23747-1.26965C1.26962-1.03259 1.35399-0.855813 1.49462-0.739296 1.63122-0.630813 1.83211-0.578582 2.08925-0.578582 2.3022-0.578582 2.51515-0.602689 2.73211-0.658939 2.94506-0.723225 3.16605-0.819653 3.39104-0.948225L3.39104-0.192862C3.16604-0.0964337 2.933-0.0241149 2.69996 0.0160611 2.4629 0.0562392 2.23389 0.0803469 2.00888 0.0803469 1.4504 0.0803469 1.01648-0.0562577 0.707122-0.33751 0.393727-0.626796 0.241056-1.02859 0.241056-1.54289 0.241056-2.03307 0.389715-2.42683 0.691056-2.71608 1.00043-3.00537 1.41829-3.15002 1.94468-3.15002 2.42682-3.15002 2.81254-3.00538 3.10182-2.71608 3.39111-2.42679 3.53576-2.03305 3.53576-1.54289ZM2.53929-1.88035C2.53929-2.06115 2.47902-2.2058 2.36249-2.31429 2.25401-2.4308 2.11339-2.49108 1.94464-2.49108 1.75178-2.49108 1.59509-2.43483 1.47857-2.33036 1.35803-2.22188 1.28571-2.07322 1.25357-1.88036Z" fill="#2A6279" transform="matrix(1 0 0 1.00038 250.789 656.774)"/><path d="M0.466066-4.27495 1.46249-4.27495 1.46249-1.94462 2.58755-3.06967 3.72864-3.06967 2.23403-1.67143 3.84117 0 2.65193 0 1.4627-1.28571 1.4627 0 0.466272 0Z" fill="#2A6279" transform="matrix(1 0 0 1.00038 254.606 656.774)"/><path d="M1.62319-0.771429 3.42319-0.771429 3.42319 0 0.45 0 0.45-0.771429 1.94462-2.10538C2.07319-2.2219 2.16962-2.3344 2.2339-2.44288 2.29819-2.55939 2.33033-2.68395 2.33033-2.81253 2.33033-3.00538 2.26605-3.15806 2.13747-3.27859 2.0089-3.39511 1.83613-3.45538 1.62319-3.45538 1.46247-3.45538 1.27765-3.4152 1.07676-3.34288 0.883903-3.27859 0.674979-3.17413 0.449969-3.03752L0.449969-3.93752C0.695057-4.00984 0.932112-4.07011 1.15711-4.11431 1.39015-4.15448 1.62318-4.17859 1.84819-4.17859 2.33836-4.17859 2.72007-4.06609 2.98929-3.8411 3.25446-3.62413 3.39107-3.32681 3.39107-2.9411 3.39107-2.72413 3.3308-2.51521 3.21428-2.31431 3.10579-2.12145 2.86473-1.86431 2.49107-1.54288Z" fill="#2A6279" transform="matrix(1 0 0 1.00038 258.346 656.774)"/><path d="M2.0411-2.02505C1.84824-2.02505 1.7036-1.96478 1.60716-1.84826 1.51877-1.72772 1.47859-1.54692 1.47859-1.30183 1.47859-1.06478 1.51877-0.883975 1.60716-0.755403 1.70359-0.634865 1.84824-0.578613 2.0411-0.578613 2.2219-0.578613 2.35449-0.634863 2.44288-0.755403 2.53931-0.883975 2.58752-1.06478 2.58752-1.30183 2.58752-1.54692 2.5393-1.72772 2.44288-1.84826 2.35448-1.96478 2.2219-2.02505 2.0411-2.02505ZM3.34286-3.98571 3.34286-3.23035C3.17009-3.31473 3.00536-3.37499 2.84464-3.40714 2.69196-3.44732 2.5433-3.47143 2.39464-3.47143 2.08124-3.47143 1.83615-3.38304 1.65535-3.21429 1.48258-3.04152 1.38214-2.78437 1.34999-2.44286 1.47856-2.52723 1.61115-2.59152 1.75177-2.63571 1.88837-2.67589 2.04508-2.7 2.21784-2.7 2.63569-2.7 2.9732-2.57545 3.23034-2.33035 3.48748-2.0933 3.61606-1.77187 3.61606-1.36607 3.61606-0.924099 3.47142-0.570528 3.18212-0.305403 2.89284-0.0482606 2.50712 0.0803109 2.02498 0.0803109 1.48658 0.0803109 1.07676-0.09648 0.787505-0.450041 0.498219-0.811646 0.353571-1.32593 0.353571-1.9929 0.353571-2.6679 0.518307-3.19828 0.851791-3.584 1.19331-3.96971 1.6634-4.16257 2.26608-4.16257 2.45893-4.16257 2.63974-4.1465 2.81251-4.11435 2.99331-4.09025 3.1701-4.05007 3.34286-3.98578Z" fill="#2A6279" transform="matrix(1 0 0 1.00038 262.26 656.774)"/><path d="M2.4911-4.27495 2.4911-3.63209 1.96075-3.63209C1.82012-3.63209 1.71967-3.60397 1.65538-3.55173 1.59913-3.49548 1.57503-3.41111 1.57503-3.29459L1.57503-3.06959 2.42681-3.06959 2.42681-2.37852 1.57503-2.37852 1.57503 5.65714e-05 0.594674 5.65714e-05 0.594674-2.37852 0.112531-2.37852 0.112531-3.06959 0.594674-3.06959 0.594674-3.29459C0.594674-3.62405 0.683066-3.87316 0.867883-4.03388 1.06074-4.19459 1.35405-4.27495 1.75182-4.27495Z" fill="#2A6279" transform="matrix(1 0 0 1.00038 193 662.402)"/><path d="M2.76429-2.23395C2.67589-2.27413 2.59152-2.30628 2.50714-2.33038 2.41875-2.35047 2.33437-2.36253 2.25-2.36253 1.99286-2.36253 1.79197-2.27413 1.65536-2.10538 1.52679-1.94467 1.46251-1.71164 1.46251-1.41431L1.46251-2.05714e-05 0.466077-2.05714e-05 0.466077-3.06969 1.46251-3.06969 1.46251-2.57147C1.57902-2.77236 1.71965-2.91701 1.88036-3.0054 2.04911-3.10183 2.25001-3.15004 2.475-3.15004L2.58751-3.15004C2.62768-3.15004 2.68393-3.14201 2.74822-3.13397Z" fill="#2A6279" transform="matrix(1 0 0 1.00038 195.447 662.402)"/><path d="M1.92857-2.44286C1.7116-2.44286 1.54688-2.3625 1.43035-2.20178 1.32187-2.0491 1.26964-1.83213 1.26964-1.54286 1.26964-1.24152 1.32187-1.01251 1.43035-0.851781 1.54687-0.699099 1.7116-0.626781 1.92857-0.626781 2.14152-0.626781 2.30625-0.699103 2.42679-0.851781 2.54331-1.01249 2.60358-1.24152 2.60358-1.54286 2.60358-1.83214 2.54331-2.04911 2.42679-2.20178 2.30625-2.36249 2.14153-2.44286 1.92857-2.44286ZM1.92857-3.15C2.46295-3.15 2.87679-3.00536 3.16605-2.71607 3.46336-2.43481 3.61605-2.04509 3.61605-1.54288 3.61605-1.02859 3.46336-0.626811 3.16605-0.337495 2.87676-0.0562423 2.46292 0.0803623 1.92857 0.0803623 1.40223 0.0803623 0.988396-0.0562423 0.691097-0.337495 0.389757-0.626781 0.241097-1.02857 0.241097-1.54288 0.241097-2.04511 0.389757-2.43484 0.691097-2.71607 0.988416-3.00535 1.40226-3.15 1.92857-3.15Z" fill="#2A6279" transform="matrix(1 0 0 1.00038 198.223 662.402)"/><path d="M3.32681-2.57143C3.44333-2.75223 3.58798-2.89286 3.76075-2.98929 3.92949-3.09375 4.12235-3.15 4.33932-3.15 4.68083-3.15 4.942-3.0375 5.12681-2.81251 5.31967-2.59554 5.4161-2.28616 5.4161-1.88036L5.4161-3.08571e-05 4.41967-3.08571e-05 4.41967-1.60717C4.4277-1.62726 4.43574-1.64735 4.43574-1.67146L4.43574-1.78396C4.43574-2.00896 4.4036-2.16968 4.33931-2.26611 4.27503-2.36254 4.17056-2.41075 4.03395-2.41075 3.84109-2.41075 3.68841-2.33039 3.58395-2.16967 3.48752-2.01699 3.43931-1.80002 3.43931-1.51075L3.43931 2.05714e-05 2.44288 2.05714e-05 2.44288-1.60712C2.44288-1.94864 2.41074-2.16963 2.34645-2.26605 2.2902-2.36247 2.18976-2.41068 2.04109-2.41068 1.85627-2.41068 1.71163-2.33033 1.60716-2.16961 1.51073-2.01693 1.46252-1.79996 1.46252-1.51068L1.46252 8.22857e-05 0.466092 8.22857e-05 0.466092-3.06959 1.46252-3.06959 1.46252-2.61959C1.57904-2.80039 1.71163-2.93298 1.8643-3.02137 2.02502-3.10574 2.2018-3.14994 2.39465-3.14994 2.6076-3.14994 2.79643-3.09369 2.95716-2.98922 3.11787-2.8928 3.23841-2.75217 3.32681-2.57137Z" fill="#2A6279" transform="matrix(1 0 0 1.00038 202.084 662.402)"/><path d="M1.54286-3.95362 1.54286-3.06969 2.55536-3.06969 2.55536-2.37861 1.54286-2.37861 1.54286-1.06081C1.54286-0.920181 1.56696-0.823752 1.62321-0.771521 1.6875-0.727324 1.80402-0.707235 1.97679-0.707235L2.47501-0.707235 2.47501-9.25714e-05 1.63929-9.25714e-05C1.24152-9.25714e-05 0.964291-0.0804497 0.803577-0.241169 0.642862-0.401889 0.5625-0.675103 0.5625-1.06082L0.5625-2.37862 0.0803571-2.37862 0.0803571-3.0697 0.5625-3.0697 0.5625-3.95363Z" fill="#2A6279" transform="matrix(1 0 0 1.00038 209.907 662.402)"/><path d="M3.56791-1.88033 3.56791 0 2.57148 0 2.57148-1.43033C2.57148-1.69551 2.56345-1.88033 2.55541-1.97676 2.54335-2.08122 2.52327-2.15756 2.49112-2.20176 2.45898-2.26605 2.40273-2.31427 2.33041-2.3464 2.26612-2.38658 2.1938-2.41068 2.12149-2.41068 1.90452-2.41068 1.73979-2.33033 1.62327-2.16961 1.51478-2.00889 1.46255-1.78791 1.46255-1.51068L1.46255 8.22857e-05 0.466123 8.22857e-05 0.466123-4.27487 1.46255-4.27487 1.46255-2.61948C1.59916-2.80029 1.75586-2.93288 1.92862-3.02126 2.09737-3.10564 2.28219-3.14984 2.47505-3.14984 2.82862-3.14984 3.09379-3.03733 3.27862-2.81234 3.47148-2.59537 3.5679-2.286 3.5679-1.8802Z" fill="#2A6279" transform="matrix(1 0 0 1.00038 212.595 662.402)"/><path d="M3.53571-1.54286 3.53571-1.26965 1.23747-1.26965C1.26962-1.03259 1.35399-0.855813 1.49462-0.739296 1.63122-0.630813 1.83211-0.578582 2.08925-0.578582 2.3022-0.578582 2.51515-0.602689 2.73211-0.658939 2.94506-0.723225 3.16605-0.819653 3.39104-0.948225L3.39104-0.192862C3.16604-0.0964337 2.933-0.0241149 2.69996 0.0160611 2.4629 0.0562392 2.23389 0.0803469 2.00888 0.0803469 1.4504 0.0803469 1.01648-0.0562577 0.707122-0.33751 0.393727-0.626796 0.241056-1.02859 0.241056-1.54289 0.241056-2.03307 0.389715-2.42683 0.691056-2.71608 1.00043-3.00537 1.41829-3.15002 1.94468-3.15002 2.42682-3.15002 2.81254-3.00538 3.10182-2.71608 3.39111-2.42679 3.53576-2.03305 3.53576-1.54289ZM2.53929-1.88035C2.53929-2.06115 2.47902-2.2058 2.36249-2.31429 2.25401-2.4308 2.11339-2.49108 1.94464-2.49108 1.75178-2.49108 1.59509-2.43483 1.47857-2.33036 1.35803-2.22188 1.28571-2.07322 1.25357-1.88036Z" fill="#2A6279" transform="matrix(1 0 0 1.00038 216.597 662.402)"/><path d="M0.514286-4.09824 1.70352-4.09824 3.18209-1.28571 3.18209-4.09824 4.1946-4.09824 4.1946 0 3.00536 0 1.52679-2.81253 1.52679 0 0.514286 0Z" fill="#2A6279" transform="matrix(1 0 0 1.00038 222.371 662.402)"/><path d="M1.92857-2.44286C1.7116-2.44286 1.54688-2.3625 1.43035-2.20178 1.32187-2.0491 1.26964-1.83213 1.26964-1.54286 1.26964-1.24152 1.32187-1.01251 1.43035-0.851781 1.54687-0.699099 1.7116-0.626781 1.92857-0.626781 2.14152-0.626781 2.30625-0.699103 2.42679-0.851781 2.54331-1.01249 2.60358-1.24152 2.60358-1.54286 2.60358-1.83214 2.54331-2.04911 2.42679-2.20178 2.30625-2.36249 2.14153-2.44286 1.92857-2.44286ZM1.92857-3.15C2.46295-3.15 2.87679-3.00536 3.16605-2.71607 3.46336-2.43481 3.61605-2.04509 3.61605-1.54288 3.61605-1.02859 3.46336-0.626811 3.16605-0.337495 2.87676-0.0562423 2.46292 0.0803623 1.92857 0.0803623 1.40223 0.0803623 0.988396-0.0562423 0.691097-0.337495 0.389757-0.626781 0.241097-1.02857 0.241097-1.54288 0.241097-2.04511 0.389757-2.43484 0.691097-2.71607 0.988416-3.00535 1.40226-3.15 1.92857-3.15Z" fill="#2A6279" transform="matrix(1 0 0 1.00038 227.079 662.402)"/><path d="M0.433934-1.20538 0.433934-3.06967 1.43036-3.06967 1.43036-2.76431 1.43036-2.13752 1.43036-1.6393C1.43036-1.39019 1.43438-1.20938 1.44643-1.09287 1.45447-0.984384 1.47858-0.908044 1.51072-0.867867 1.5509-0.803582 1.60715-0.747329 1.67143-0.707153 1.73572-0.67501 1.80804-0.658939 1.89643-0.658939 2.09732-0.658939 2.25804-0.739296 2.37858-0.900015 2.49509-1.06073 2.55537-1.2777 2.55537-1.55894L2.55537-3.0697 3.53572-3.0697 3.53572-3.6e-05 2.55537-3.6e-05 2.55537-0.450036C2.40269-0.265212 2.24197-0.132629 2.07322-0.0482554 1.91251 0.0361193 1.72769 0.080316 1.5268 0.080316 1.17322 0.080316 0.900005-0.0241457 0.707148-0.241113 0.522324-0.466113 0.433939-0.787541 0.433939-1.2054Z" fill="#2A6279" transform="matrix(1 0 0 1.00038 230.945 662.402)"/><path d="M3.56791-1.88033 3.56791 0 2.57148 0 2.57148-1.43033C2.57148-1.69551 2.56345-1.88033 2.55541-1.97676 2.54335-2.08122 2.52327-2.15756 2.49112-2.20176 2.45898-2.26605 2.40273-2.31427 2.33041-2.3464 2.26612-2.38658 2.1938-2.41068 2.12149-2.41068 1.90452-2.41068 1.73979-2.33033 1.62327-2.16961 1.51478-2.00889 1.46255-1.78791 1.46255-1.51068L1.46255 8.22857e-05 0.466123 8.22857e-05 0.466123-3.06959 1.46255-3.06959 1.46255-2.61959C1.59916-2.80039 1.75586-2.93298 1.92862-3.02137 2.09737-3.10574 2.28219-3.14994 2.47505-3.14994 2.82862-3.14994 3.09379-3.03743 3.27862-2.81244 3.47148-2.59548 3.5679-2.2861 3.5679-1.8803Z" fill="#2A6279" transform="matrix(1 0 0 1.00038 234.95 662.402)"/><path d="M0.514286-4.09824 2.26605-4.09824C2.78836-4.09824 3.19016-3.9777 3.47143-3.74467 3.74866-3.51967 3.88929-3.19021 3.88929-2.76432 3.88929-2.3344 3.74866-2.00092 3.47143-1.76789 3.19018-1.54289 2.7884-1.43039 2.26605-1.43039L1.57497-1.43039 1.57497-6.17143e-05 0.514306-6.17143e-05ZM1.57495-3.32681 1.57495-2.18571 2.15352-2.18571C2.35441-2.18571 2.51111-2.23393 2.61959-2.33035 2.7361-2.43481 2.79638-2.57946 2.79638-2.76429 2.79638-2.94509 2.73611-3.08571 2.61959-3.18214 2.5111-3.27857 2.35441-3.32678 2.15352-3.32678Z" fill="#2A6279" transform="matrix(1 0 0 1.00038 240.913 662.402)"/><path d="M2.76429-2.23395C2.67589-2.27413 2.59152-2.30628 2.50714-2.33038 2.41875-2.35047 2.33437-2.36253 2.25-2.36253 1.99286-2.36253 1.79197-2.27413 1.65536-2.10538 1.52679-1.94467 1.46251-1.71164 1.46251-1.41431L1.46251-2.05714e-05 0.466077-2.05714e-05 0.466077-3.06969 1.46251-3.06969 1.46251-2.57147C1.57902-2.77236 1.71965-2.91701 1.88036-3.0054 2.04911-3.10183 2.25001-3.15004 2.475-3.15004L2.58751-3.15004C2.62768-3.15004 2.68393-3.14201 2.74822-3.13397Z" fill="#2A6279" transform="matrix(1 0 0 1.00038 245.035 662.402)"/><path d="M1.92857-2.44286C1.7116-2.44286 1.54688-2.3625 1.43035-2.20178 1.32187-2.0491 1.26964-1.83213 1.26964-1.54286 1.26964-1.24152 1.32187-1.01251 1.43035-0.851781 1.54687-0.699099 1.7116-0.626781 1.92857-0.626781 2.14152-0.626781 2.30625-0.699103 2.42679-0.851781 2.54331-1.01249 2.60358-1.24152 2.60358-1.54286 2.60358-1.83214 2.54331-2.04911 2.42679-2.20178 2.30625-2.36249 2.14153-2.44286 1.92857-2.44286ZM1.92857-3.15C2.46295-3.15 2.87679-3.00536 3.16605-2.71607 3.46336-2.43481 3.61605-2.04509 3.61605-1.54288 3.61605-1.02859 3.46336-0.626811 3.16605-0.337495 2.87676-0.0562423 2.46292 0.0803623 1.92857 0.0803623 1.40223 0.0803623 0.988396-0.0562423 0.691097-0.337495 0.389757-0.626781 0.241097-1.02857 0.241097-1.54288 0.241097-2.04511 0.389757-2.43484 0.691097-2.71607 0.988416-3.00535 1.40226-3.15 1.92857-3.15Z" fill="#2A6279" transform="matrix(1 0 0 1.00038 247.808 662.402)"/><path d="M0.466066-3.06967 1.46249-3.06967 1.46249-0.04824C1.46249 0.357562 1.35803 0.666936 1.15713 0.883903 0.964275 1.1089 0.679011 1.2214 0.305352 1.2214L-0.192867 1.2214-0.192867 0.562474-0.0160766 0.562474C0.164726 0.562474 0.289286 0.518278 0.353571 0.433903 0.425892 0.357563 0.466077 0.196848 0.466077-0.04824ZM0.466066-4.27505 1.46249-4.27505 1.46249-3.47148 0.466066-3.47148Z" fill="#2A6279" transform="matrix(1 0 0 1.00038 251.673 662.402)"/><path d="M3.53571-1.54286 3.53571-1.26965 1.23747-1.26965C1.26962-1.03259 1.35399-0.855813 1.49462-0.739296 1.63122-0.630813 1.83211-0.578582 2.08925-0.578582 2.3022-0.578582 2.51515-0.602689 2.73211-0.658939 2.94506-0.723225 3.16605-0.819653 3.39104-0.948225L3.39104-0.192862C3.16604-0.0964337 2.933-0.0241149 2.69996 0.0160611 2.4629 0.0562392 2.23389 0.0803469 2.00888 0.0803469 1.4504 0.0803469 1.01648-0.0562577 0.707122-0.33751 0.393727-0.626796 0.241056-1.02859 0.241056-1.54289 0.241056-2.03307 0.389715-2.42683 0.691056-2.71608 1.00043-3.00537 1.41829-3.15002 1.94468-3.15002 2.42682-3.15002 2.81254-3.00538 3.10182-2.71608 3.39111-2.42679 3.53576-2.03305 3.53576-1.54289ZM2.53929-1.88035C2.53929-2.06115 2.47902-2.2058 2.36249-2.31429 2.25401-2.4308 2.11339-2.49108 1.94464-2.49108 1.75178-2.49108 1.59509-2.43483 1.47857-2.33036 1.35803-2.22188 1.28571-2.07322 1.25357-1.88036Z" fill="#2A6279" transform="matrix(1 0 0 1.00038 253.601 662.402)"/><path d="M2.95714-2.97319 2.95714-2.18569C2.82857-2.27007 2.69197-2.33435 2.55536-2.37855 2.41474-2.41873 2.27411-2.44284 2.13751-2.44284 1.85625-2.44284 1.64331-2.36248 1.49465-2.20176 1.34197-2.04105 1.26965-1.82007 1.26965-1.54284 1.26965-1.25355 1.34197-1.02855 1.49465-0.867837 1.64331-0.707122 1.85625-0.62676 2.13751-0.62676 2.28616-0.62676 2.43081-0.646849 2.57144-0.691046 2.70804-0.731225 2.83661-0.803551 2.95715-0.899969L2.95715-0.0963977C2.80447-0.032112 2.65179 0.008064 2.49109 0.0321737 2.33037 0.0643166 2.16966 0.080388 2.00894 0.080388 1.45046 0.080388 1.01654-0.0562166 0.707184-0.337469 0.393789-0.626755 0.241118-1.02855 0.241118-1.54285 0.241118-2.04508 0.393799-2.43482 0.707184-2.71604 1.01656-3.00533 1.45049-3.14997 2.00894-3.14997 2.16966-3.14997 2.33037-3.1339 2.49109-3.10176 2.6518-3.07765 2.80448-3.03747 2.95715-2.97319Z" fill="#2A6279" transform="matrix(1 0 0 1.00038 257.414 662.402)"/><path d="M1.54286-3.95362 1.54286-3.06969 2.55536-3.06969 2.55536-2.37861 1.54286-2.37861 1.54286-1.06081C1.54286-0.920181 1.56696-0.823752 1.62321-0.771521 1.6875-0.727324 1.80402-0.707235 1.97679-0.707235L2.47501-0.707235 2.47501-9.25714e-05 1.63929-9.25714e-05C1.24152-9.25714e-05 0.964291-0.0804497 0.803577-0.241169 0.642862-0.401889 0.5625-0.675103 0.5625-1.06082L0.5625-2.37862 0.0803571-2.37862 0.0803571-3.0697 0.5625-3.0697 0.5625-3.95363Z" fill="#2A6279" transform="matrix(1 0 0 1.00038 260.749 662.402)"/></g></g></g></g></svg>