<svg viewBox="0 0 60 60" xmlns="http://www.w3.org/2000/svg" xmlns:xlink="http://www.w3.org/1999/xlink" id="Capa_1" overflow="hidden"><defs id="defs91"></defs><g id="g56" transform="matrix(0.933333 0 0 0.933333 2 2)"><g id="g24"><g id="g22"><path d="M53 12C53 11.9 53 11.8 52.9 11.7L52.9 11.6C52.8 11.5 52.8 11.4 52.7 11.3L41.7 0.3C41.6 0.2 41.5 0.2 41.4 0.1L41.3 0.1C41.2 0.1 41.1 0 41 0L41 0 8 0C7.4 0 7 0.4 7 1L7 59C7 59.6 7.4 60 8 60L13 60 19 60 24 60 33 60 52 60C52.6 60 53 59.6 53 59ZM49.6 11 42 11 42 3.4ZM14 23 18 23 18 52 14 52ZM14.5 21 16 17.5 17.5 21ZM14 58 14 54 18 54 18 58ZM25 58 25 52 29 52 29 50 25 50 25 44 29 44 29 42 25 42 25 35 29 35 29 33 25 33 25 27 29 27 29 25 25 25 25 20 32 20 32 58ZM34 58 34 19C34 18.4 33.6 18 33 18L24 18C23.4 18 23 18.4 23 19L23 58 20 58 20 53 20 22C20 21.7 19.9 21.4 19.7 21.3L16.9 14.7C16.8 14.3 16.4 14.1 16 14.1 15.6 14.1 15.3 14.3 15.1 14.7L12.3 21.3C12.1 21.5 12 21.7 12 22L12 53 12 58 9 58 9 2 40 2 40 12C40 12.6 40.4 13 41 13L51 13 51 58Z" id="path2" fill="#D60093"/><rect x="12" y="5" width="8" height="2" id="rect4" fill="#D60093"/><rect x="38" y="22" width="9" height="2" id="rect6" fill="#D60093"/><rect x="38" y="27" width="9" height="2" id="rect8" fill="#D60093"/><rect x="38" y="32" width="9" height="2" id="rect10" fill="#D60093"/><rect x="38" y="37" width="9" height="2" id="rect12" fill="#D60093"/><rect x="38" y="42" width="9" height="2" id="rect14" fill="#D60093"/><rect x="38" y="47" width="9" height="2" id="rect16" fill="#D60093"/><rect x="38" y="52" width="9" height="2" id="rect18" fill="#D60093"/><rect x="12" y="9" width="16" height="2" id="rect20" fill="#D60093"/></g></g><g id="g26"></g><g id="g28"></g><g id="g30"></g><g id="g32"></g><g id="g34"></g><g id="g36"></g><g id="g38"></g><g id="g40"></g><g id="g42"></g><g id="g44"></g><g id="g46"></g><g id="g48"></g><g id="g50"></g><g id="g52"></g><g id="g54"></g></g><g id="g58" transform="matrix(0.933333 0 0 0.933333 0.466667 0)"></g><g id="g60" transform="matrix(0.933333 0 0 0.933333 0.466667 0)"></g><g id="g62" transform="matrix(0.933333 0 0 0.933333 0.466667 0)"></g><g id="g64" transform="matrix(0.933333 0 0 0.933333 0.466667 0)"></g><g id="g66" transform="matrix(0.933333 0 0 0.933333 0.466667 0)"></g><g id="g68" transform="matrix(0.933333 0 0 0.933333 0.466667 0)"></g><g id="g70" transform="matrix(0.933333 0 0 0.933333 0.466667 0)"></g><g id="g72" transform="matrix(0.933333 0 0 0.933333 0.466667 0)"></g><g id="g74" transform="matrix(0.933333 0 0 0.933333 0.466667 0)"></g><g id="g76" transform="matrix(0.933333 0 0 0.933333 0.466667 0)"></g><g id="g78" transform="matrix(0.933333 0 0 0.933333 0.466667 0)"></g><g id="g80" transform="matrix(0.933333 0 0 0.933333 0.466667 0)"></g><g id="g82" transform="matrix(0.933333 0 0 0.933333 0.466667 0)"></g><g id="g84" transform="matrix(0.933333 0 0 0.933333 0.466667 0)"></g><g id="g86" transform="matrix(0.933333 0 0 0.933333 0.466667 0)"></g></svg>