<svg width="387" height="371" xmlns="http://www.w3.org/2000/svg" xmlns:xlink="http://www.w3.org/1999/xlink" overflow="hidden"><defs><clipPath id="clip0"><rect x="488" y="205" width="387" height="371"/></clipPath><clipPath id="clip1"><rect x="488" y="206" width="386" height="369"/></clipPath><clipPath id="clip2"><rect x="488" y="206" width="386" height="369"/></clipPath></defs><g clip-path="url(#clip0)" transform="translate(-488 -205)"><g clip-path="url(#clip1)"><g clip-path="url(#clip2)"><path d="M442.167 221.689C440.11 180.052 421.23 141.125 389.22 114.116 386.652 111.918 383.986 109.816 381.276 107.854 373.147 101.826 364.359 96.6857 355.062 92.3864 345.527 87.9929 335.575 84.6775 325.434 82.3402L325.434 63.8347C325.434 59.395 321.836 55.7963 317.396 55.7963L266.695 55.793C262.255 55.793 258.656 59.3917 258.656 63.8314L258.656 82.4312C192.811 97.2924 145.15 154.21 141.87 221.69 121.214 224.962 105.326 242.767 105.326 264.307 105.326 268.746 108.924 272.345 113.365 272.345L141.545 272.345 141.545 284.168C141.545 287.672 143.787 290.756 147.152 291.832L175.658 300.946C177.434 306.132 179.396 310.852 181.544 315.198L167.805 341.787C166.217 344.87 166.778 348.704 169.252 351.181L202.058 383.892C204.534 386.369 208.319 386.93 211.403 385.339L237.992 371.554C242.477 373.751 247.152 375.713 252.057 377.441L261.171 405.901C262.247 409.219 265.331 411.507 268.835 411.507L315.191 411.507C318.695 411.507 321.779 409.265 322.855 405.901L331.969 377.441C336.875 375.713 341.595 373.747 346.034 371.554L372.623 385.339C375.707 386.926 379.491 386.366 381.969 383.892L414.869 351.181C417.347 348.704 417.952 344.919 416.316 341.787L402.485 315.198C404.728 310.712 406.74 305.943 408.422 300.946L436.928 291.832C440.246 290.756 442.534 287.672 442.534 284.168L442.534 272.345 470.714 272.345C475.155 272.345 478.753 268.746 478.753 264.307 478.802 242.718 462.865 224.913 442.162 221.69ZM359.781 112.947C360.482 113.368 361.138 113.743 361.838 114.163 363.335 115.099 364.831 116.031 366.324 117.012 367.49 117.807 368.706 118.599 369.828 119.44 371.23 120.468 372.631 121.497 374.033 122.573 374.688 123.088 375.34 123.6 376.041 124.161L376.041 168.554 359.823 168.554 359.827 112.947ZM274.731 71.8231 309.453 71.8231 309.453 168.506 274.731 168.506ZM206.926 124.956C212.02 120.797 217.393 116.967 223.048 113.554L223.048 168.464 206.926 168.464ZM190.849 140.518 190.849 176.501C190.849 180.941 194.448 184.54 198.887 184.54L231.087 184.54C235.526 184.54 239.125 180.941 239.125 176.501L239.125 105.469C245.387 102.807 251.884 100.564 258.612 98.8328L258.612 176.498C258.612 180.938 262.21 184.537 266.65 184.537L317.446 184.537C321.886 184.537 325.484 180.938 325.484 176.498L325.481 98.8362C331.697 100.423 337.77 102.48 343.706 105.003L343.706 176.547C343.706 180.987 347.305 184.585 351.745 184.585L384.035 184.585C388.474 184.585 392.073 180.987 392.073 176.547L392.073 139.395C412.306 161.92 424.273 190.567 426.095 221.035L157.951 221.035C159.773 190.475 171.737 162.435 190.848 140.518ZM426.515 278.324 399.646 286.874C397.123 287.67 395.16 289.677 394.411 292.201 392.354 299.069 389.69 305.471 386.467 311.221 385.16 313.604 385.111 316.456 386.326 318.839L399.365 343.932 374.833 368.373 349.785 355.384C347.448 354.168 344.645 354.168 342.307 355.429 336.466 358.561 330.018 361.27 323.101 363.467 320.623 364.263 318.707 366.176 317.915 368.654L309.365 395.432 274.691 395.432 266.141 368.654C265.346 366.176 263.432 364.259 260.955 363.467 254.087 361.27 247.636 358.561 241.749 355.429 239.411 354.168 236.608 354.168 234.271 355.384L209.223 368.373 184.736 343.932 197.726 318.839C198.942 316.456 198.942 313.604 197.586 311.221 194.547 305.755 191.929 299.538 189.641 292.11 188.846 289.632 186.933 287.67 184.407 286.874L157.537 278.324 157.537 272.343 219.315 272.343C224.735 307.857 255.249 334.635 291.98 334.635 328.71 334.635 359.273 307.811 364.645 272.343L426.422 272.343 426.419 278.324ZM235.761 272.343 348.382 272.343C343.148 298.841 319.922 318.559 292.072 318.559 264.221 318.562 240.995 298.841 235.761 272.343ZM122.58 256.269C126.039 245.147 136.41 237.062 148.608 237.062L435.495 237.062C447.738 237.062 458.114 245.147 461.523 256.269Z" fill="#2A6279" transform="matrix(1.00111 0 0 1 386.159 155.554)"/><path d="M15.6599-0.938793C14.8515-0.521552 14.0072-0.208621 13.1304 0 12.2601 0.215138 11.3474 0.325966 10.3923 0.325966 7.55641 0.325966 5.31048-0.462879 3.65128-2.04714 1.98882-3.63783 1.16085-5.78929 1.16085-8.50138 1.16085-11.22 1.98881-13.3713 3.65128-14.9556 5.31048-16.5463 7.55641-17.3417 10.3923-17.3417 11.3474-17.3417 12.2601-17.2309 13.1304-17.0158 14.0073-16.8072 14.8515-16.4942 15.6599-16.077L15.6599-12.5565C14.8417-13.1041 14.0366-13.5083 13.2477-13.7691 12.4557-14.0298 11.6212-14.1602 10.7443-14.1602 9.17965-14.1602 7.94745-13.6549 7.0543-12.6477 6.1579-11.647 5.71128-10.2648 5.71128-8.5013 5.71128-6.7443 6.15787-5.36223 7.0543-4.35492 7.94745-3.35421 9.17965-2.85544 10.7443-2.85544 11.6212-2.85544 12.4557-2.97931 13.2477-3.23356 14.0366-3.49434 14.8418-3.9018 15.6599-4.45925Z" fill="#2A6279" transform="matrix(1.00111 0 0 1 444.638 692.961)"/><path d="M11.4608-9.29697C11.0957-9.45995 10.7339-9.58379 10.3785-9.66206 10.0297-9.74684 9.67775-9.79241 9.32243-9.79241 8.26956-9.79241 7.46111-9.45344 6.89725-8.77542 6.33006-8.10388 6.04975-7.14555 6.04975-5.89383L6.04975-0.000292069 1.96863-0.000292069 1.96863-12.7779 6.04975-12.7779 6.04975-10.6787C6.5713-11.5132 7.17113-12.1194 7.84906-12.5041 8.53359-12.8953 9.3518-13.0909 10.3004-13.0909 10.4373-13.0909 10.5873-13.0811 10.7437-13.0647 10.9067-13.055 11.1413-13.0322 11.4478-12.9996Z" fill="#2A6279" transform="matrix(1.00111 0 0 1 461.806 692.961)"/><path d="M14.7211-6.42811 14.7211-5.25466 5.16378-5.25466C5.26809-4.29634 5.61362-3.57918 6.20688-3.10328 6.79689-2.6241 7.62809-2.38614 8.69732-2.38614 9.55783-2.38614 10.4347-2.51001 11.3311-2.76426 12.234-3.02503 13.1598-3.40968 14.1084-3.92469L14.1084-0.782361C13.1435-0.417275 12.1786-0.143464 11.2137 0.0390872 10.2489 0.228148 9.28396 0.325941 8.31904 0.325941 6.00469 0.325941 4.20529-0.260801 2.92094-1.43432 1.64318-2.60777 1.00422-4.25395 1.00422-6.37604 1.00422-8.46224 1.63334-10.0986 2.89482-11.2916 4.15305-12.4912 5.88394-13.091 8.0843-13.091 10.0922-13.091 11.6993-12.4814 12.9086-11.2655 14.1147-10.0562 14.721-8.44263 14.721-6.42811ZM10.5227-7.78414C10.5227-8.5567 10.2945-9.17931 9.84465-9.64871 9.39152-10.1246 8.80154-10.3659 8.07137-10.3659 7.27926-10.3659 6.63706-10.1442 6.14163-9.70086 5.64619-9.2575 5.33648-8.61862 5.21585-7.78414Z" fill="#2A6279" transform="matrix(1.00111 0 0 1 473.342 692.961)"/><path d="M7.69293-5.75009C6.83892-5.75009 6.1967-5.60666 5.76319-5.31981 5.33617-5.03296 5.12429-4.60594 5.12429-4.04205 5.12429-3.5205 5.29706-3.10977 5.64584-2.81636 5.99137-2.52951 6.47055-2.38609 7.08015-2.38609 7.8527-2.38609 8.50138-2.6599 9.02293-3.20754 9.55099-3.76168 9.81828-4.45275 9.81828-5.28072L9.81828-5.75012ZM13.9255-7.28871 13.9255 0 9.81828 0 9.81828-1.8906C9.27069-1.11479 8.65133-0.550842 7.96672-0.195603 7.27893 0.149923 6.44446 0.325949 5.46328 0.325949 4.13987 0.325949 3.06739-0.0554347 2.24267-0.821465 1.41471-1.59401 1.00397-2.598 1.00397-3.83345 1.00397-5.32642 1.51574-6.42168 2.54259-7.11922 3.57593-7.82332 5.19599-8.17535 7.40604-8.17535L9.81819-8.17535 9.81819-8.5013C9.81819-9.14351 9.56067-9.61283 9.04888-9.90948 8.53384-10.2127 7.73851-10.3659 6.66278-10.3659 5.78265-10.3659 4.96778-10.2778 4.21149-10.1051 3.46175-9.9291 2.76741-9.66832 2.12528-9.32276L2.12528-12.4391C2.99239-12.6477 3.86593-12.8074 4.74605-12.9215 5.63269-13.0323 6.51933-13.091 7.40597-13.091 9.70729-13.091 11.3697-12.6347 12.3868-11.7219 13.4104-10.8157 13.9254-9.33903 13.9254-7.28874Z" fill="#2A6279" transform="matrix(1.00111 0 0 1 489.206 692.961)"/><path d="M6.42811-16.4026 6.42811-12.7778 10.6397-12.7778 10.6397-9.85708 6.42811-9.85708 6.42811-4.43294C6.42811-3.83967 6.54545-3.44199 6.78016-3.23337 7.01486-3.02475 7.47774-2.92044 8.17533-2.92044L10.2746-2.92044 10.2746 0.000250345 6.78016 0.000250345C5.16335 0.000250345 4.01593-0.332241 3.33791-1.00372 2.66641-1.68173 2.33395-2.82264 2.33395-4.43294L2.33395-9.85708 0.312914-9.85708 0.312914-12.7778 2.33395-12.7778 2.33395-16.4026Z" fill="#2A6279" transform="matrix(1.00111 0 0 1 504.99 692.961)"/><path d="M14.7211-6.42811 14.7211-5.25466 5.16378-5.25466C5.26809-4.29634 5.61362-3.57918 6.20688-3.10328 6.79689-2.6241 7.62809-2.38614 8.69732-2.38614 9.55783-2.38614 10.4347-2.51001 11.3311-2.76426 12.234-3.02503 13.1598-3.40968 14.1084-3.92469L14.1084-0.782361C13.1435-0.417275 12.1786-0.143464 11.2137 0.0390872 10.2489 0.228148 9.28396 0.325941 8.31904 0.325941 6.00469 0.325941 4.20529-0.260801 2.92094-1.43432 1.64318-2.60777 1.00422-4.25395 1.00422-6.37604 1.00422-8.46224 1.63334-10.0986 2.89482-11.2916 4.15305-12.4912 5.88394-13.091 8.0843-13.091 10.0922-13.091 11.6993-12.4814 12.9086-11.2655 14.1147-10.0562 14.721-8.44263 14.721-6.42811ZM10.5227-7.78414C10.5227-8.5567 10.2945-9.17931 9.84465-9.64871 9.39152-10.1246 8.80154-10.3659 8.07137-10.3659 7.27926-10.3659 6.63706-10.1442 6.14163-9.70086 5.64619-9.2575 5.33648-8.61862 5.21585-7.78414Z" fill="#2A6279" transform="matrix(1.00111 0 0 1 516.173 692.961)"/><path d="M10.653-10.9134 10.653-17.7587 14.7603-17.7587 14.7603-8.34483e-05 10.653-8.34483e-05 10.653-1.85163C10.0956-1.09538 9.47956-0.541246 8.80146-0.195686 8.12336 0.149873 7.3346 0.325866 6.44146 0.325866 4.86704 0.325866 3.57618-0.299997 2.56896-1.55172 1.55848-2.80345 1.05646-4.41049 1.05646-6.37603 1.05646-8.34817 1.55845-9.96172 2.56896-11.2134 3.57618-12.4652 4.86704-13.091 6.44146-13.091 7.32809-13.091 8.11042-12.9118 8.78844-12.5565 9.47297-12.1979 10.0956-11.6503 10.653-10.9135ZM7.96698-2.63371C8.83409-2.63371 9.499-2.94991 9.96189-3.58552 10.4215-4.22768 10.6529-5.15669 10.6529-6.37587 10.6529-7.59171 10.4215-8.51748 9.96189-9.15311 9.499-9.79524 8.834-10.1179 7.96698-10.1179 7.09661-10.1179 6.43169-9.79524 5.97206-9.15311 5.50918-8.51748 5.28101-7.59171 5.28101-6.37587 5.28101-5.15677 5.50919-4.22774 5.97206-3.58552 6.43168-2.94988 7.09669-2.63371 7.96698-2.63371Z" fill="#2A6279" transform="matrix(1.00111 0 0 1 532.036 692.961)"/><path d="M8.76207-2.63379C9.63895-2.63379 10.3072-2.94999 10.77-3.58561 11.2296-4.22777 11.461-5.15677 11.461-6.37595 11.461-7.59179 11.2296-8.51757 10.77-9.15319 10.3071-9.79533 9.63886-10.118 8.76207-10.118 7.88194-10.118 7.21043-9.79533 6.74104-9.15319 6.27816-8.5078 6.04998-7.58203 6.04998-6.37595 6.04998-5.16662 6.27817-4.24084 6.74104-3.59871 7.21043-2.95329 7.88194-2.63388 8.76207-2.63388ZM6.05-10.9135C6.61393-11.6501 7.23655-12.1978 7.91457-12.5564 8.5991-12.9117 9.38793-13.091 10.2746-13.091 11.8555-13.091 13.1496-12.4651 14.1601-11.2134 15.1673-9.96164 15.6726-8.34808 15.6726-6.37597 15.6726-4.41034 15.1673-2.80338 14.1601-1.55165 13.1496-0.29993 11.8555 0.325932 10.2746 0.325932 9.38793 0.325932 8.5991 0.149907 7.91457-0.195619 7.23655-0.550926 6.61394-1.10178 6.05-1.85157L6.05-1.66897e-05 1.96888-1.66897e-05 1.96888-17.7586 6.05-17.7586Z" fill="#2A6279" transform="matrix(1.00111 0 0 1 556.925 692.961)"/><path d="M0.286853-12.7776 4.36798-12.7776 7.81022-4.10649 10.7309-12.7776 14.8121-12.7776 9.44009 1.21334C8.89893 2.62804 8.26985 3.61899 7.54944 4.18618 6.82579 4.75989 5.88048 5.0467 4.70703 5.0467L2.33392 5.0467 2.33392 2.36067 3.61168 2.36067C4.306 2.36067 4.81125 2.24658 5.12418 2.02166 5.44363 1.80326 5.69137 1.4121 5.86739 0.84821L5.98474 0.496158Z" fill="#2A6279" transform="matrix(1.00111 0 0 1 573.67 692.961)"/><path d="M7.69293-5.75009C6.83892-5.75009 6.1967-5.60666 5.76319-5.31981 5.33617-5.03296 5.12429-4.60594 5.12429-4.04205 5.12429-3.5205 5.29706-3.10977 5.64584-2.81636 5.99137-2.52951 6.47055-2.38609 7.08015-2.38609 7.8527-2.38609 8.50138-2.6599 9.02293-3.20754 9.55099-3.76168 9.81828-4.45275 9.81828-5.28072L9.81828-5.75012ZM13.9255-7.28871 13.9255 0 9.81828 0 9.81828-1.8906C9.27069-1.11479 8.65133-0.550842 7.96672-0.195603 7.27893 0.149923 6.44446 0.325949 5.46328 0.325949 4.13987 0.325949 3.06739-0.0554347 2.24267-0.821465 1.41471-1.59401 1.00397-2.598 1.00397-3.83345 1.00397-5.32642 1.51574-6.42168 2.54259-7.11922 3.57593-7.82332 5.19599-8.17535 7.40604-8.17535L9.81819-8.17535 9.81819-8.5013C9.81819-9.14351 9.56067-9.61283 9.04888-9.90948 8.53384-10.2127 7.73851-10.3659 6.66278-10.3659 5.78265-10.3659 4.96778-10.2778 4.21149-10.1051 3.46175-9.9291 2.76741-9.66832 2.12528-9.32276L2.12528-12.4391C2.99239-12.6477 3.86593-12.8074 4.74605-12.9215 5.63269-13.0323 6.51933-13.091 7.40597-13.091 9.70729-13.091 11.3697-12.6347 12.3868-11.7219 13.4104-10.8157 13.9254-9.33903 13.9254-7.28874Z" fill="#2A6279" transform="matrix(1.00111 0 0 1 597.061 692.961)"/><path d="M1.96888-12.7776 6.05-12.7776 6.05 0 1.96888 0ZM1.96888-17.7585 6.05-17.7585 6.05-14.4205 1.96888-14.4205Z" fill="#2A6279" transform="matrix(1.00111 0 0 1 612.843 692.961)"/><path d="M14.8121-7.78414 14.8121 0 10.7048 0 10.7048-5.95871C10.7048-7.06048 10.6788-7.82328 10.6266-8.24052 10.5745-8.65776 10.4864-8.96418 10.3659-9.16629 10.2094-9.42707 9.99093-9.62918 9.71388-9.77914 9.44334-9.92584 9.13367-10.0008 8.78811-10.0008 7.9341-10.0008 7.26584-9.66832 6.78017-9.00983 6.29122-8.35785 6.05-7.44843 6.05-6.28474L6.05-8.34483e-05 1.96888-8.34483e-05 1.96888-12.7777 6.05-12.7777 6.05-10.9131C6.66608-11.6498 7.318-12.1975 8.00586-12.556 8.70015-12.9114 9.46621-13.0906 10.3007-13.0906 11.7773-13.0906 12.8987-12.6342 13.6647-11.7216 14.4275-10.8154 14.8121-9.50501 14.8121-7.78382Z" fill="#2A6279" transform="matrix(1.00111 0 0 1 620.863 692.961)"/><path d="M1.82543-4.98086 1.82543-12.7781 5.93267-12.7781 5.93267-11.5003C5.93267-10.8028 5.92616-9.93569 5.91963-8.89258 5.90986-7.84948 5.9066-7.15194 5.9066-6.80638 5.9066-5.76978 5.93267-5.02659 5.98483-4.57672 6.0435-4.12362 6.13478-3.79766 6.25864-3.59879 6.4314-3.32823 6.65307-3.11961 6.92362-2.97293 7.19091-2.83276 7.50059-2.76431 7.8494-2.76431 8.70015-2.76431 9.36841-3.09027 9.85733-3.74224 10.343-4.39418 10.5875-5.30038 10.5875-6.46733L10.5875-12.7781 14.6686-12.7781 14.6686-0.00050069 10.5875-0.00050069 10.5875-1.85205C9.96815-1.10232 9.31625-0.551426 8.63164-0.196103 7.94384 0.149423 7.18431 0.325448 6.34983 0.325448 4.87972 0.325448 3.75834-0.124388 2.98586-1.03059 2.21005-1.9335 1.82543-3.25048 1.82543-4.98136Z" fill="#2A6279" transform="matrix(1.00111 0 0 1 637.513 692.961)"/><path d="M1.96888-17.7586 6.05-17.7586 6.05 0 1.96888 0Z" fill="#2A6279" transform="matrix(1.00111 0 0 1 654.169 692.961)"/><path d="M13.8082-10.653C14.32-11.4418 14.9328-12.0482 15.6466-12.4654 16.3573-12.8827 17.1396-13.0913 17.9936-13.0913 19.4605-13.0913 20.5786-12.6349 21.3446-11.7222 22.1171-10.8161 22.505-9.50568 22.505-7.78447L22.505-0.000333793 18.3978-0.000333793 18.3978-6.66318 18.3978-6.96308C18.4043-7.0739 18.4108-7.23037 18.4108-7.43247 18.4108-8.33538 18.2739-8.98738 18.0066-9.38835 17.7458-9.79583 17.3188-10.0012 16.7288-10.0012 15.9531-10.0012 15.3532-9.67842 14.9295-9.03637 14.5025-8.40066 14.2841-7.47819 14.2776-6.27211L14.2776-0.00046731 10.1703-0.00046731 10.1703-6.66331C10.1703-8.07801 10.0465-8.98755 9.80526-9.38843 9.56075-9.79583 9.12724-10.0012 8.50138-10.0012 7.71905-10.0012 7.11271-9.6785 6.68896-9.03637 6.26193-8.40074 6.05006-7.48476 6.05006-6.28519L6.05006-0.000534069 1.94283-0.000534069 1.94283-12.7781 6.05006-12.7781 6.05006-10.9135C6.55205-11.6339 7.1258-12.1783 7.77119-12.5434 8.4231-12.9084 9.14026-13.091 9.92259-13.091 10.8092-13.091 11.5916-12.8759 12.2696-12.4522 12.9476-12.0251 13.4594-11.4253 13.8082-10.6528Z" fill="#2A6279" transform="matrix(1.00111 0 0 1 670.329 692.961)"/><path d="M1.82543-4.98086 1.82543-12.7781 5.93267-12.7781 5.93267-11.5003C5.93267-10.8028 5.92616-9.93569 5.91963-8.89258 5.90986-7.84948 5.9066-7.15194 5.9066-6.80638 5.9066-5.76978 5.93267-5.02659 5.98483-4.57672 6.0435-4.12362 6.13478-3.79766 6.25864-3.59879 6.4314-3.32823 6.65307-3.11961 6.92362-2.97293 7.19091-2.83276 7.50059-2.76431 7.8494-2.76431 8.70015-2.76431 9.36841-3.09027 9.85733-3.74224 10.343-4.39418 10.5875-5.30038 10.5875-6.46733L10.5875-12.7781 14.6686-12.7781 14.6686-0.00050069 10.5875-0.00050069 10.5875-1.85205C9.96815-1.10232 9.31625-0.551426 8.63164-0.196103 7.94384 0.149423 7.18431 0.325448 6.34983 0.325448 4.87972 0.325448 3.75834-0.124388 2.98586-1.03059 2.21005-1.9335 1.82543-3.25048 1.82543-4.98136Z" fill="#2A6279" transform="matrix(1.00111 0 0 1 694.703 692.961)"/><path d="M6.42811-16.4026 6.42811-12.7778 10.6397-12.7778 10.6397-9.85708 6.42811-9.85708 6.42811-4.43294C6.42811-3.83967 6.54545-3.44199 6.78016-3.23337 7.01486-3.02475 7.47774-2.92044 8.17533-2.92044L10.2746-2.92044 10.2746 0.000250345 6.78016 0.000250345C5.16335 0.000250345 4.01593-0.332241 3.33791-1.00372 2.66641-1.68173 2.33395-2.82264 2.33395-4.43294L2.33395-9.85708 0.312914-9.85708 0.312914-12.7778 2.33395-12.7778 2.33395-16.4026Z" fill="#2A6279" transform="matrix(1.00111 0 0 1 711.356 692.961)"/><path d="M6.42811-16.4026 6.42811-12.7778 10.6397-12.7778 10.6397-9.85708 6.42811-9.85708 6.42811-4.43294C6.42811-3.83967 6.54545-3.44199 6.78016-3.23337 7.01486-3.02475 7.47774-2.92044 8.17533-2.92044L10.2746-2.92044 10.2746 0.000250345 6.78016 0.000250345C5.16335 0.000250345 4.01593-0.332241 3.33791-1.00372 2.66641-1.68173 2.33395-2.82264 2.33395-4.43294L2.33395-9.85708 0.312914-9.85708 0.312914-12.7778 2.33395-12.7778 2.33395-16.4026Z" fill="#2A6279" transform="matrix(1.00111 0 0 1 722.535 692.961)"/><path d="M7.69293-5.75009C6.83892-5.75009 6.1967-5.60666 5.76319-5.31981 5.33617-5.03296 5.12429-4.60594 5.12429-4.04205 5.12429-3.5205 5.29706-3.10977 5.64584-2.81636 5.99137-2.52951 6.47055-2.38609 7.08015-2.38609 7.8527-2.38609 8.50138-2.6599 9.02293-3.20754 9.55099-3.76168 9.81828-4.45275 9.81828-5.28072L9.81828-5.75012ZM13.9255-7.28871 13.9255 0 9.81828 0 9.81828-1.8906C9.27069-1.11479 8.65133-0.550842 7.96672-0.195603 7.27893 0.149923 6.44446 0.325949 5.46328 0.325949 4.13987 0.325949 3.06739-0.0554347 2.24267-0.821465 1.41471-1.59401 1.00397-2.598 1.00397-3.83345 1.00397-5.32642 1.51574-6.42168 2.54259-7.11922 3.57593-7.82332 5.19599-8.17535 7.40604-8.17535L9.81819-8.17535 9.81819-8.5013C9.81819-9.14351 9.56067-9.61283 9.04888-9.90948 8.53384-10.2127 7.73851-10.3659 6.66278-10.3659 5.78265-10.3659 4.96778-10.2778 4.21149-10.1051 3.46175-9.9291 2.76741-9.66832 2.12528-9.32276L2.12528-12.4391C2.99239-12.6477 3.86593-12.8074 4.74605-12.9215 5.63269-13.0323 6.51933-13.091 7.40597-13.091 9.70729-13.091 11.3697-12.6347 12.3868-11.7219 13.4104-10.8157 13.9254-9.33903 13.9254-7.28874Z" fill="#2A6279" transform="matrix(1.00111 0 0 1 733.719 692.961)"/><path d="M7.96672-10.1181C7.09636-10.1181 6.43144-9.79541 5.97181-9.15328 5.50893-8.51765 5.28076-7.59188 5.28076-6.37603 5.28076-5.15694 5.50894-4.22791 5.97181-3.58569 6.43143-2.95005 7.09644-2.63388 7.96672-2.63388 8.83384-2.63388 9.49875-2.95007 9.96164-3.58569 10.4213-4.22785 10.6527-5.15685 10.6527-6.37603 10.6527-7.59188 10.4213-8.51765 9.96164-9.15328 9.49875-9.79541 8.83375-10.1181 7.96672-10.1181ZM10.6528-1.85155C10.0953-1.0953 9.47931-0.541162 8.80121-0.195603 8.12311 0.149957 7.33435 0.325949 6.44121 0.325949 4.86679 0.325949 3.57593-0.299913 2.56871-1.55164 1.55823-2.80336 1.05621-4.41041 1.05621-6.37595 1.05621-8.34808 1.5582-9.95513 2.56871-11.2003 3.57593-12.4422 4.86679-13.0648 6.44121-13.0648 7.33435-13.0648 8.12319-12.8856 8.80121-12.5303 9.47923-12.1814 10.0953-11.6339 10.6528-10.8873L10.6528-12.7779 14.76-12.7779 14.76 4.86388 10.6528 4.86388Z" fill="#2A6279" transform="matrix(1.00111 0 0 1 749.504 692.961)"/><path d="M1.96888-12.7776 6.05-12.7776 6.05 0 1.96888 0ZM1.96888-17.7585 6.05-17.7585 6.05-14.4205 1.96888-14.4205Z" fill="#2A6279" transform="matrix(1.00111 0 0 1 766.248 692.961)"/><path d="M14.8121-7.78414 14.8121 0 10.7048 0 10.7048-5.95871C10.7048-7.06048 10.6788-7.82328 10.6266-8.24052 10.5745-8.65776 10.4864-8.96418 10.3659-9.16629 10.2094-9.42707 9.99093-9.62918 9.71388-9.77914 9.44334-9.92584 9.13367-10.0008 8.78811-10.0008 7.9341-10.0008 7.26584-9.66832 6.78017-9.00983 6.29122-8.35785 6.05-7.44843 6.05-6.28474L6.05-8.34483e-05 1.96888-8.34483e-05 1.96888-12.7777 6.05-12.7777 6.05-10.9131C6.66608-11.6498 7.318-12.1975 8.00586-12.556 8.70015-12.9114 9.46621-13.0906 10.3007-13.0906 11.7773-13.0906 12.8987-12.6342 13.6647-11.7216 14.4275-10.8154 14.8121-9.50501 14.8121-7.78382Z" fill="#2A6279" transform="matrix(1.00111 0 0 1 774.266 692.961)"/><path d="M10.3659-17.7586 10.3659-15.0726 8.11026-15.0726C7.53655-15.0726 7.13233-14.9683 6.89767-14.7597 6.66949-14.551 6.55866-14.186 6.55866-13.6644L6.55866-12.7778 10.0531-12.7778 10.0531-9.85708 6.55866-9.85708 6.55866-0.000166897 2.47754-0.000166897 2.47754-9.85708 0.443486-9.85708 0.443486-12.7778 2.47754-12.7778 2.47754-13.6644C2.47754-15.0531 2.86218-16.0831 3.63797-16.7546 4.41052-17.4228 5.61336-17.7585 7.2497-17.7585Z" fill="#2A6279" transform="matrix(1.00111 0 0 1 444.638 716.326)"/><path d="M11.4608-9.29697C11.0957-9.45995 10.7339-9.58379 10.3785-9.66206 10.0297-9.74684 9.67775-9.79241 9.32243-9.79241 8.26956-9.79241 7.46111-9.45344 6.89725-8.77542 6.33006-8.10388 6.04975-7.14555 6.04975-5.89383L6.04975-0.000292069 1.96863-0.000292069 1.96863-12.7779 6.04975-12.7779 6.04975-10.6787C6.5713-11.5132 7.17113-12.1194 7.84906-12.5041 8.53359-12.8953 9.3518-13.0909 10.3004-13.0909 10.4373-13.0909 10.5873-13.0811 10.7437-13.0647 10.9067-13.055 11.1413-13.0322 11.4478-12.9996Z" fill="#2A6279" transform="matrix(1.00111 0 0 1 454.816 716.326)"/><path d="M8.04492-10.1707C7.13875-10.1707 6.44763-9.84473 5.97173-9.19275 5.49255-8.54077 5.25459-7.60206 5.25459-6.37637 5.25459-5.15068 5.49255-4.21189 5.97173-3.55999 6.44764-2.91457 7.13867-2.59516 8.04492-2.59516 8.93155-2.59516 9.60957-2.91461 10.079-3.55999 10.5549-4.21193 10.7961-5.15068 10.7961-6.37637 10.7961-7.60206 10.5549-8.54085 10.079-9.19275 9.60957-9.84465 8.93155-10.1707 8.04492-10.1707ZM8.04492-13.0914C10.2419-13.0914 11.9598-12.4949 13.1953-11.3051 14.4275-10.1218 15.0468-8.47893 15.0468-6.37645 15.0468-4.28048 14.4275-2.63755 13.1953-1.44783 11.9598-0.264531 10.2419 0.325448 8.04492 0.325448 5.83487 0.325448 4.1105-0.264556 2.86854-1.44783 1.62332-2.63763 1.00397-4.28048 1.00397-6.37645 1.00397-8.47893 1.62331-10.1219 2.86854-11.3051 4.1105-12.4949 5.83487-13.0914 8.04492-13.0914Z" fill="#2A6279" transform="matrix(1.00111 0 0 1 466.352 716.326)"/><path d="M13.8082-10.653C14.32-11.4418 14.9328-12.0482 15.6466-12.4654 16.3573-12.8827 17.1396-13.0913 17.9936-13.0913 19.4605-13.0913 20.5786-12.6349 21.3446-11.7222 22.1171-10.8161 22.505-9.50568 22.505-7.78447L22.505-0.000333793 18.3978-0.000333793 18.3978-6.66318 18.3978-6.96308C18.4043-7.0739 18.4108-7.23037 18.4108-7.43247 18.4108-8.33538 18.2739-8.98738 18.0066-9.38835 17.7458-9.79583 17.3188-10.0012 16.7288-10.0012 15.9531-10.0012 15.3532-9.67842 14.9295-9.03637 14.5025-8.40066 14.2841-7.47819 14.2776-6.27211L14.2776-0.00046731 10.1703-0.00046731 10.1703-6.66331C10.1703-8.07801 10.0465-8.98755 9.80526-9.38843 9.56075-9.79583 9.12724-10.0012 8.50138-10.0012 7.71905-10.0012 7.11271-9.6785 6.68896-9.03637 6.26193-8.40074 6.05006-7.48476 6.05006-6.28519L6.05006-0.000534069 1.94283-0.000534069 1.94283-12.7781 6.05006-12.7781 6.05006-10.9135C6.55205-11.6339 7.1258-12.1783 7.77119-12.5434 8.4231-12.9084 9.14026-13.091 9.92259-13.091 10.8092-13.091 11.5916-12.8759 12.2696-12.4522 12.9476-12.0251 13.4594-11.4253 13.8082-10.6528Z" fill="#2A6279" transform="matrix(1.00111 0 0 1 482.421 716.326)"/><path d="M6.42811-16.4026 6.42811-12.7778 10.6397-12.7778 10.6397-9.85708 6.42811-9.85708 6.42811-4.43294C6.42811-3.83967 6.54545-3.44199 6.78016-3.23337 7.01486-3.02475 7.47774-2.92044 8.17533-2.92044L10.2746-2.92044 10.2746 0.000250345 6.78016 0.000250345C5.16335 0.000250345 4.01593-0.332241 3.33791-1.00372 2.66641-1.68173 2.33395-2.82264 2.33395-4.43294L2.33395-9.85708 0.312914-9.85708 0.312914-12.7778 2.33395-12.7778 2.33395-16.4026Z" fill="#2A6279" transform="matrix(1.00111 0 0 1 514.939 716.326)"/><path d="M14.8121-7.78414 14.8121 0 10.7048 0 10.7048-5.93267C10.7048-7.05405 10.6788-7.82328 10.6266-8.24052 10.5745-8.65776 10.4864-8.96418 10.3659-9.16629 10.2094-9.42707 9.99093-9.62918 9.71388-9.77914 9.44334-9.92584 9.13367-10.0008 8.78811-10.0008 7.9341-10.0008 7.26584-9.66832 6.78017-9.00983 6.29122-8.35785 6.05-7.44843 6.05-6.28474L6.05-8.34483e-05 1.96888-8.34483e-05 1.96888-17.7587 6.05-17.7587 6.05-10.9134C6.66608-11.65 7.318-12.1977 8.00586-12.5563 8.70015-12.9116 9.46621-13.0909 10.3007-13.0909 11.7773-13.0909 12.8987-12.6345 13.6647-11.7218 14.4275-10.8156 14.8121-9.50526 14.8121-7.78407Z" fill="#2A6279" transform="matrix(1.00111 0 0 1 526.12 716.326)"/><path d="M14.7211-6.42811 14.7211-5.25466 5.16378-5.25466C5.26809-4.29634 5.61362-3.57918 6.20688-3.10328 6.79689-2.6241 7.62809-2.38614 8.69732-2.38614 9.55783-2.38614 10.4347-2.51001 11.3311-2.76426 12.234-3.02503 13.1598-3.40968 14.1084-3.92469L14.1084-0.782361C13.1435-0.417275 12.1786-0.143464 11.2137 0.0390872 10.2489 0.228148 9.28396 0.325941 8.31904 0.325941 6.00469 0.325941 4.20529-0.260801 2.92094-1.43432 1.64318-2.60777 1.00422-4.25395 1.00422-6.37604 1.00422-8.46224 1.63334-10.0986 2.89482-11.2916 4.15305-12.4912 5.88394-13.091 8.0843-13.091 10.0922-13.091 11.6993-12.4814 12.9086-11.2655 14.1147-10.0562 14.721-8.44263 14.721-6.42811ZM10.5227-7.78414C10.5227-8.5567 10.2945-9.17931 9.84465-9.64871 9.39152-10.1246 8.80154-10.3659 8.07137-10.3659 7.27926-10.3659 6.63706-10.1442 6.14163-9.70086 5.64619-9.2575 5.33648-8.61862 5.21585-7.78414Z" fill="#2A6279" transform="matrix(1.00111 0 0 1 542.773 716.326)"/><path d="M2.15138-17.0285 7.05397-17.0285 13.2474-5.3457 13.2474-17.0285 17.4068-17.0285 17.4068 0 12.5042 0 6.31078-11.6828 6.31078 0 2.15138 0Z" fill="#2A6279" transform="matrix(1.00111 0 0 1 566.781 716.326)"/><path d="M8.04492-10.1707C7.13875-10.1707 6.44763-9.84473 5.97173-9.19275 5.49255-8.54077 5.25459-7.60206 5.25459-6.37637 5.25459-5.15068 5.49255-4.21189 5.97173-3.55999 6.44764-2.91457 7.13867-2.59516 8.04492-2.59516 8.93155-2.59516 9.60957-2.91461 10.079-3.55999 10.5549-4.21193 10.7961-5.15068 10.7961-6.37637 10.7961-7.60206 10.5549-8.54085 10.079-9.19275 9.60957-9.84465 8.93155-10.1707 8.04492-10.1707ZM8.04492-13.0914C10.2419-13.0914 11.9598-12.4949 13.1953-11.3051 14.4275-10.1218 15.0468-8.47893 15.0468-6.37645 15.0468-4.28048 14.4275-2.63755 13.1953-1.44783 11.9598-0.264531 10.2419 0.325448 8.04492 0.325448 5.83487 0.325448 4.1105-0.264556 2.86854-1.44783 1.62332-2.63763 1.00397-4.28048 1.00397-6.37645 1.00397-8.47893 1.62331-10.1219 2.86854-11.3051 4.1105-12.4949 5.83487-13.0914 8.04492-13.0914Z" fill="#2A6279" transform="matrix(1.00111 0 0 1 586.358 716.326)"/><path d="M1.82543-4.98086 1.82543-12.7781 5.93267-12.7781 5.93267-11.5003C5.93267-10.8028 5.92616-9.93569 5.91963-8.89258 5.90986-7.84948 5.9066-7.15194 5.9066-6.80638 5.9066-5.76978 5.93267-5.02659 5.98483-4.57672 6.0435-4.12362 6.13478-3.79766 6.25864-3.59879 6.4314-3.32823 6.65307-3.11961 6.92362-2.97293 7.19091-2.83276 7.50059-2.76431 7.8494-2.76431 8.70015-2.76431 9.36841-3.09027 9.85733-3.74224 10.343-4.39418 10.5875-5.30038 10.5875-6.46733L10.5875-12.7781 14.6686-12.7781 14.6686-0.00050069 10.5875-0.00050069 10.5875-1.85205C9.96815-1.10232 9.31625-0.551426 8.63164-0.196103 7.94384 0.149423 7.18431 0.325448 6.34983 0.325448 4.87972 0.325448 3.75834-0.124388 2.98586-1.03059 2.21005-1.9335 1.82543-3.25048 1.82543-4.98136Z" fill="#2A6279" transform="matrix(1.00111 0 0 1 602.429 716.326)"/><path d="M14.8121-7.78414 14.8121 0 10.7048 0 10.7048-5.95871C10.7048-7.06048 10.6788-7.82328 10.6266-8.24052 10.5745-8.65776 10.4864-8.96418 10.3659-9.16629 10.2094-9.42707 9.99093-9.62918 9.71388-9.77914 9.44334-9.92584 9.13367-10.0008 8.78811-10.0008 7.9341-10.0008 7.26584-9.66832 6.78017-9.00983 6.29122-8.35785 6.05-7.44843 6.05-6.28474L6.05-8.34483e-05 1.96888-8.34483e-05 1.96888-12.7777 6.05-12.7777 6.05-10.9131C6.66608-11.6498 7.318-12.1975 8.00586-12.556 8.70015-12.9114 9.46621-13.0906 10.3007-13.0906 11.7773-13.0906 12.8987-12.6342 13.6647-11.7216 14.4275-10.8154 14.8121-9.50501 14.8121-7.78382Z" fill="#2A6279" transform="matrix(1.00111 0 0 1 619.082 716.326)"/><path d="M2.15138-17.0285 9.44009-17.0285C11.6046-17.0285 13.2637-16.546 14.4209-15.5811 15.5846-14.6228 16.1682-13.2537 16.1682-11.4739 16.1682-9.69085 15.5847-8.31854 14.4209-7.35363 13.2638-6.3888 11.6046-5.9063 9.44009-5.9063L6.53242-5.9063 6.53242 0.000250345 2.15138 0.000250345ZM6.53242-13.847 6.53242-9.08785 8.97069-9.08785C9.82145-9.08785 10.4767-9.29647 10.9396-9.71371 11.409-10.131 11.6436-10.7177 11.6436-11.474 11.6436-12.2368 11.409-12.8235 10.9396-13.2342 10.4767-13.6417 9.82153-13.8471 8.97069-13.8471Z" fill="#2A6279" transform="matrix(1.00111 0 0 1 643.877 716.326)"/><path d="M11.4608-9.29697C11.0957-9.45995 10.7339-9.58379 10.3785-9.66206 10.0297-9.74684 9.67775-9.79241 9.32243-9.79241 8.26956-9.79241 7.46111-9.45344 6.89725-8.77542 6.33006-8.10388 6.04975-7.14555 6.04975-5.89383L6.04975-0.000292069 1.96863-0.000292069 1.96863-12.7779 6.04975-12.7779 6.04975-10.6787C6.5713-11.5132 7.17113-12.1194 7.84906-12.5041 8.53359-12.8953 9.3518-13.0909 10.3004-13.0909 10.4373-13.0909 10.5873-13.0811 10.7437-13.0647 10.9067-13.055 11.1413-13.0322 11.4478-12.9996Z" fill="#2A6279" transform="matrix(1.00111 0 0 1 661.022 716.326)"/><path d="M8.04492-10.1707C7.13875-10.1707 6.44763-9.84473 5.97173-9.19275 5.49255-8.54077 5.25459-7.60206 5.25459-6.37637 5.25459-5.15068 5.49255-4.21189 5.97173-3.55999 6.44764-2.91457 7.13867-2.59516 8.04492-2.59516 8.93155-2.59516 9.60957-2.91461 10.079-3.55999 10.5549-4.21193 10.7961-5.15068 10.7961-6.37637 10.7961-7.60206 10.5549-8.54085 10.079-9.19275 9.60957-9.84465 8.93155-10.1707 8.04492-10.1707ZM8.04492-13.0914C10.2419-13.0914 11.9598-12.4949 13.1953-11.3051 14.4275-10.1218 15.0468-8.47893 15.0468-6.37645 15.0468-4.28048 14.4275-2.63755 13.1953-1.44783 11.9598-0.264531 10.2419 0.325448 8.04492 0.325448 5.83487 0.325448 4.1105-0.264556 2.86854-1.44783 1.62332-2.63763 1.00397-4.28048 1.00397-6.37645 1.00397-8.47893 1.62331-10.1219 2.86854-11.3051 4.1105-12.4949 5.83487-13.0914 8.04492-13.0914Z" fill="#2A6279" transform="matrix(1.00111 0 0 1 672.554 716.326)"/><path d="M1.96888-12.7776 6.05-12.7776 6.05-0.23449C6.05 1.47687 5.63602 2.784 4.8113 3.69017 3.99311 4.59308 2.80336 5.0462 1.23871 5.0462L-0.782328 5.0462-0.782328 2.36017-0.0651898 2.36017C0.707358 2.36017 1.23869 2.18414 1.5255 1.83862 1.81887 1.48983 1.96882 0.798767 1.96882-0.234573ZM1.96888-17.7585 6.05-17.7585 6.05-14.4205 1.96888-14.4205Z" fill="#2A6279" transform="matrix(1.00111 0 0 1 688.627 716.326)"/><path d="M14.7211-6.42811 14.7211-5.25466 5.16378-5.25466C5.26809-4.29634 5.61362-3.57918 6.20688-3.10328 6.79689-2.6241 7.62809-2.38614 8.69732-2.38614 9.55783-2.38614 10.4347-2.51001 11.3311-2.76426 12.234-3.02503 13.1598-3.40968 14.1084-3.92469L14.1084-0.782361C13.1435-0.417275 12.1786-0.143464 11.2137 0.0390872 10.2489 0.228148 9.28396 0.325941 8.31904 0.325941 6.00469 0.325941 4.20529-0.260801 2.92094-1.43432 1.64318-2.60777 1.00422-4.25395 1.00422-6.37604 1.00422-8.46224 1.63334-10.0986 2.89482-11.2916 4.15305-12.4912 5.88394-13.091 8.0843-13.091 10.0922-13.091 11.6993-12.4814 12.9086-11.2655 14.1147-10.0562 14.721-8.44263 14.721-6.42811ZM10.5227-7.78414C10.5227-8.5567 10.2945-9.17931 9.84465-9.64871 9.39152-10.1246 8.80154-10.3659 8.07137-10.3659 7.27926-10.3659 6.63706-10.1442 6.14163-9.70086 5.64619-9.2575 5.33648-8.61862 5.21585-7.78414Z" fill="#2A6279" transform="matrix(1.00111 0 0 1 696.644 716.326)"/><path d="M12.2828-12.3737 12.2828-9.0488C11.7351-9.43016 11.1777-9.7138 10.6138-9.8963 10.0564-10.0788 9.47939-10.1701 8.87965-10.1701 7.73874-10.1701 6.84885-9.83438 6.20672-9.16613 5.57107-8.50438 5.25491-7.57545 5.25491-6.3758 5.25491-5.18274 5.5711-4.25371 6.20672-3.58546 6.84888-2.92374 7.73874-2.59451 8.87965-2.59451 9.51202-2.59451 10.1184-2.68578 10.6921-2.86832 11.2658-3.05738 11.7938-3.34098 12.2828-3.71582L12.2828-0.377887C11.6471-0.143189 10.9984 0.0295741 10.34 0.143665 9.68801 0.264272 9.02635 0.326208 8.3581 0.326208 6.05351 0.326208 4.25086-0.263797 2.94698-1.44707 1.64961-2.62711 1.00422-4.26996 1.00422-6.37569 1.00422-8.48794 1.64964-10.1341 2.94698-11.3174 4.25086-12.4975 6.05351-13.0907 8.3581-13.0907 9.02635-13.0907 9.6881-13.0288 10.34-12.9081 10.9919-12.794 11.6374-12.6148 12.2828-12.3735Z" fill="#2A6279" transform="matrix(1.00111 0 0 1 712.51 716.326)"/><path d="M6.42811-16.4026 6.42811-12.7778 10.6397-12.7778 10.6397-9.85708 6.42811-9.85708 6.42811-4.43294C6.42811-3.83967 6.54545-3.44199 6.78016-3.23337 7.01486-3.02475 7.47774-2.92044 8.17533-2.92044L10.2746-2.92044 10.2746 0.000250345 6.78016 0.000250345C5.16335 0.000250345 4.01593-0.332241 3.33791-1.00372 2.66641-1.68173 2.33395-2.82264 2.33395-4.43294L2.33395-9.85708 0.312914-9.85708 0.312914-12.7778 2.33395-12.7778 2.33395-16.4026Z" fill="#2A6279" transform="matrix(1.00111 0 0 1 726.373 716.326)"/></g></g></g></svg>