<svg width="256" height="256" viewBox="0 0 256 256" xmlns="http://www.w3.org/2000/svg" xmlns:xlink="http://www.w3.org/1999/xlink" id="Layer_1" overflow="hidden"><defs id="defs7"></defs><path d="M132.72 104.539C137.978 104.539 142.24 108.801 142.24 114.059 142.24 119.317 137.978 123.58 132.72 123.58 127.462 123.58 123.2 119.317 123.2 114.059 123.2 108.801 127.461 104.539 132.72 104.539ZM97.7957 162.234 97.7077 162.146 97.7077 162.146C97.313 161.883 96.9618 161.663 96.6543 161.312L97.7077 173.378 84.4581 192.156C82.5718 194.876 83.2296 198.562 85.8618 200.448 88.5819 202.334 92.2674 201.677 94.1537 199.045L108.457 178.424C109.202 177.371 109.685 175.967 109.51 174.563L109.027 168.728ZM137.151 201.502 193.925 201.502 183.307 168.376C183.307 168.376 177.296 169.868 165.407 182.504 165.144 182.767 164.836 183.075 164.573 183.338L135.879 166.753C136.362 165.832 136.45 164.779 136.274 163.638L126.095 125.906C125.261 122.22 121.971 119.412 118.11 119.412L99.1122 119.412C97.7086 119.412 96.304 120.158 95.5147 121.387L86.0378 137.84C84.8093 139.814 85.5551 142.359 87.5294 143.5L98.1468 149.599 96.7432 151.968C95.032 154.776 95.9974 158.373 98.8926 159.953L122.716 173.685 122.716 195.447C122.716 198.738 125.348 201.37 128.639 201.37 131.93 201.37 134.562 198.738 134.562 195.447L134.562 170.614 160.93 185.882C155.49 188.997 149.259 189.568 144.828 192.2 139.389 195.446 137.151 201.502 137.151 201.502ZM100.165 146.132 93.1883 142.095 93.1883 142.095 101.48 127.792 110.782 127.792ZM115.477 154.994 122.058 143.5 126.972 161.576ZM231.056 225.905 24.9447 225.905C20.9007 225.905 17.1472 223.722 15.1484 220.207 13.1496 216.692 13.1913 212.349 15.2591 208.874L118.315 35.6045C120.366 32.1549 123.987 30.0953 128 30.0953 132.013 30.0953 135.634 32.1549 137.686 35.6045L240.741 208.874C242.808 212.349 242.851 216.692 240.852 220.207 238.853 223.721 235.1 225.905 231.056 225.905ZM26.2684 215.422 26.2684 215.422C26.2693 215.422 26.2693 215.42 26.2702 215.419ZM27.653 213.094 228.347 213.094 128 44.3792Z" id="path2" stroke-width="0.907315" fill="#C00000"/></svg>