<?xml version="1.0" encoding="UTF-8"?>
<!DOCTYPE svg PUBLIC "-//W3C//DTD SVG 1.1//EN" "http://www.w3.org/Graphics/SVG/1.1/DTD/svg11.dtd">
<svg xmlns="http://www.w3.org/2000/svg" version="1.1" width="512px" height="512px" style="shape-rendering:geometricPrecision; text-rendering:geometricPrecision; image-rendering:optimizeQuality; fill-rule:evenodd; clip-rule:evenodd" xmlns:xlink="http://www.w3.org/1999/xlink">
<g><path style="opacity:0.94" fill="#5ec7f2" d="M 225.5,14.5 C 245.503,14.3334 265.503,14.5 285.5,15C 294.237,17.4035 300.071,22.9035 303,31.5C 303.5,44.1623 303.667,56.8289 303.5,69.5C 314.701,72.177 325.201,76.5104 335,82.5C 343.898,72.9321 353.398,64.0988 363.5,56C 373.636,51.9332 382.97,53.2666 391.5,60C 403.333,71.8333 415.167,83.6667 427,95.5C 433.481,105.091 434.148,115.091 429,125.5C 421.016,134.318 412.85,142.984 404.5,151.5C 409.687,161.398 413.687,171.731 416.5,182.5C 428.838,182.333 441.171,182.5 453.5,183C 462.237,185.404 468.071,190.904 471,199.5C 471.667,220.167 471.667,240.833 471,261.5C 467.102,272.557 459.269,278.557 447.5,279.5C 447.334,273.824 447.501,268.157 448,262.5C 452.116,261.384 454.449,258.718 455,254.5C 455.667,238.833 455.667,223.167 455,207.5C 454.883,204.089 453.383,201.589 450.5,200C 434.837,199.5 419.17,199.333 403.5,199.5C 399.82,181.125 392.82,164.125 382.5,148.5C 392.819,137.681 403.319,127.014 414,116.5C 416,113.5 416,110.5 414,107.5C 402.167,95.6667 390.333,83.8333 378.5,72C 375.002,70.0333 371.668,70.3666 368.5,73C 358.319,83.3476 347.986,93.5143 337.5,103.5C 322.652,94.048 306.652,87.2147 289.5,83C 287.691,68.74 286.858,54.24 287,39.5C 286.883,36.0885 285.383,33.5885 282.5,32C 264.5,31.3333 246.5,31.3333 228.5,32C 225.617,33.5885 224.117,36.0885 224,39.5C 224.142,54.24 223.309,68.74 221.5,83C 204.348,87.2147 188.348,94.048 173.5,103.5C 163.014,93.5143 152.681,83.3476 142.5,73C 139.332,70.3666 135.998,70.0333 132.5,72C 120.667,83.8333 108.833,95.6667 97,107.5C 95,110.5 95,113.5 97,116.5C 107.681,127.014 118.181,137.681 128.5,148.5C 118.182,164.119 111.182,181.119 107.5,199.5C 91.8298,199.333 76.1631,199.5 60.5,200C 57.617,201.589 56.117,204.089 56,207.5C 55.3333,223.167 55.3333,238.833 56,254.5C 56.5506,258.718 58.8839,261.384 63,262.5C 63.4994,268.157 63.6661,273.824 63.5,279.5C 51.7311,278.557 43.8978,272.557 40,261.5C 39.3333,240.833 39.3333,220.167 40,199.5C 42.3513,192.481 46.8513,187.314 53.5,184C 67.1069,182.573 80.7736,182.073 94.5,182.5C 97.0932,171.643 101.093,161.31 106.5,151.5C 99.848,144.348 93.0147,137.348 86,130.5C 76.8098,119.354 76.1431,107.687 84,95.5C 97.2279,81.6032 111.061,68.4365 125.5,56C 134.477,52.3712 143.143,53.0379 151.5,58C 159.667,66.1667 167.833,74.3333 176,82.5C 185.799,76.5104 196.299,72.177 207.5,69.5C 207.333,56.8289 207.5,44.1623 208,31.5C 211.118,22.8798 216.951,17.2131 225.5,14.5 Z M 248.5,215.5 C 275.415,214.673 287.915,227.673 286,254.5C 281.069,269.06 270.903,277.06 255.5,278.5C 232.859,275.206 222.692,262.206 225,239.5C 228.349,226.985 236.182,218.985 248.5,215.5 Z"/></g>
<g><path style="opacity:0.928" fill="#5ec7f2" d="M 242.5,118.5 C 297.648,115.635 336.814,138.969 360,188.5C 365.524,202.311 368.024,216.644 367.5,231.5C 361.907,231.807 356.407,231.473 351,230.5C 347.304,179.307 320.471,147.974 270.5,136.5C 223.4,131.816 189.234,150.483 168,192.5C 162.802,204.626 160.136,217.292 160,230.5C 154.593,231.473 149.093,231.807 143.5,231.5C 145.164,180.355 169.497,144.855 216.5,125C 225.14,122.173 233.807,120.007 242.5,118.5 Z"/></g>
<g><path style="opacity:0.931" fill="#5ec7f2" d="M 246.5,198.5 C 275.752,195.949 294.585,208.616 303,236.5C 306.358,265.634 294.191,284.801 266.5,294C 236.261,298.073 216.761,285.573 208,256.5C 204.764,226.275 217.597,206.942 246.5,198.5 Z M 248.5,215.5 C 236.182,218.985 228.349,226.985 225,239.5C 222.692,262.206 232.859,275.206 255.5,278.5C 270.903,277.06 281.069,269.06 286,254.5C 287.915,227.673 275.415,214.673 248.5,215.5 Z"/></g>
<g><path style="opacity:0.931" fill="#5ec7f2" d="M 110.5,230.5 C 139.752,227.949 158.585,240.616 167,268.5C 170.358,297.634 158.191,316.801 130.5,326C 100.261,330.073 80.7613,317.573 72,288.5C 68.7637,258.275 81.5971,238.942 110.5,230.5 Z M 112.5,247.5 C 139.415,246.673 151.915,259.673 150,286.5C 145.069,301.06 134.903,309.06 119.5,310.5C 96.8589,307.206 86.6922,294.206 89,271.5C 92.349,258.985 100.182,250.985 112.5,247.5 Z"/></g>
<g><path style="opacity:0.931" fill="#5ec7f2" d="M 382.5,230.5 C 411.752,227.949 430.585,240.616 439,268.5C 442.358,297.634 430.191,316.801 402.5,326C 372.261,330.073 352.761,317.573 344,288.5C 340.764,258.275 353.597,238.942 382.5,230.5 Z M 384.5,247.5 C 411.415,246.673 423.915,259.673 422,286.5C 417.069,301.06 406.903,309.06 391.5,310.5C 368.859,307.206 358.692,294.206 361,271.5C 364.349,258.985 372.182,250.985 384.5,247.5 Z"/></g>
<g><path style="opacity:0.958" fill="#5ec7f2" d="M 212.5,302.5 C 242.875,302.039 273.208,302.539 303.5,304C 322.731,308.693 337.898,319.193 349,335.5C 377.428,334.338 405.928,334.172 434.5,335C 467.561,341.728 487.728,361.561 495,394.5C 495.667,412.833 495.667,431.167 495,449.5C 489.603,473.231 475.103,488.064 451.5,494C 420.866,495.445 390.199,495.945 359.5,495.5C 359.5,489.833 359.5,484.167 359.5,478.5C 383.5,478.5 407.5,478.5 431.5,478.5C 431.5,449.167 431.5,419.833 431.5,390.5C 436.833,390.5 442.167,390.5 447.5,390.5C 447.333,419.502 447.5,448.502 448,477.5C 463.325,472.842 473.325,462.842 478,447.5C 479.979,430.502 479.979,413.502 478,396.5C 471.745,372.579 456.579,357.746 432.5,352C 407.169,351.5 381.836,351.333 356.5,351.5C 357.172,355.188 358.005,358.855 359,362.5C 359.667,396.167 359.667,429.833 359,463.5C 354.074,481.758 342.241,492.258 323.5,495C 314.173,495.5 304.839,495.666 295.5,495.5C 295.5,452.5 295.5,409.5 295.5,366.5C 300.833,366.5 306.167,366.5 311.5,366.5C 311.5,403.833 311.5,441.167 311.5,478.5C 326.101,480.456 336.268,474.789 342,461.5C 343.608,432.531 343.941,403.531 343,374.5C 340.476,345.306 324.976,327.14 296.5,320C 269.167,319.333 241.833,319.333 214.5,320C 186.088,327.083 170.588,345.25 168,374.5C 167.059,403.531 167.392,432.531 169,461.5C 174.732,474.789 184.899,480.456 199.5,478.5C 199.5,441.167 199.5,403.833 199.5,366.5C 204.833,366.5 210.167,366.5 215.5,366.5C 215.5,409.5 215.5,452.5 215.5,495.5C 206.161,495.666 196.827,495.5 187.5,495C 168.759,492.258 156.926,481.758 152,463.5C 151.333,429.833 151.333,396.167 152,362.5C 152.737,358.793 153.571,355.127 154.5,351.5C 129.164,351.333 103.831,351.5 78.5,352C 53.7801,357.103 38.6134,371.936 33,396.5C 31.0207,413.502 31.0207,430.502 33,447.5C 37.6754,462.842 47.6754,472.842 63,477.5C 63.5,448.502 63.6666,419.502 63.5,390.5C 68.8333,390.5 74.1667,390.5 79.5,390.5C 79.5,419.833 79.5,449.167 79.5,478.5C 103.5,478.5 127.5,478.5 151.5,478.5C 151.5,484.167 151.5,489.833 151.5,495.5C 123.165,495.667 94.8314,495.5 66.5,495C 39.2259,491.391 22.3925,476.225 16,449.5C 15.3333,431.167 15.3333,412.833 16,394.5C 23.2723,361.561 43.4389,341.728 76.5,335C 105.072,334.172 133.572,334.338 162,335.5C 174.371,317.571 191.205,306.571 212.5,302.5 Z"/></g>
<g><path style="opacity:0.941" fill="#5ec7f2" d="M 223.5,478.5 C 244.833,478.5 266.167,478.5 287.5,478.5C 287.5,484.167 287.5,489.833 287.5,495.5C 266.167,495.5 244.833,495.5 223.5,495.5C 223.5,489.833 223.5,484.167 223.5,478.5 Z"/></g>
</svg>
