<svg width="281" height="271" xmlns="http://www.w3.org/2000/svg" xmlns:xlink="http://www.w3.org/1999/xlink" overflow="hidden"><defs><clipPath id="clip0"><rect x="419" y="134" width="281" height="271"/></clipPath><clipPath id="clip1"><rect x="419" y="135" width="280" height="269"/></clipPath><clipPath id="clip2"><rect x="419" y="135" width="280" height="269"/></clipPath><clipPath id="clip3"><rect x="401" y="135" width="326" height="325"/></clipPath></defs><g clip-path="url(#clip0)" transform="translate(-419 -134)"><g clip-path="url(#clip1)"><g clip-path="url(#clip2)"><g clip-path="url(#clip3)"><path d="M109.628 0C100.699 0 93.3796 7.32108 93.3796 16.2486L93.3796 73.0697 56.8368 73.0697C47.9079 73.0697 40.5882 80.3908 40.5882 89.3183L40.5864 219.271 36.5261 219.271C34.2965 219.28 32.4911 221.086 32.4821 223.315L32.4821 231.443C32.4821 247.094 45.2449 259.858 60.8968 259.858L263.926 259.858C279.576 259.858 292.341 247.093 292.341 231.443L292.341 223.315C292.332 221.082 290.521 219.275 288.288 219.271L284.227 219.271 284.227 89.3183C284.227 80.3912 276.915 73.0697 267.986 73.0697L231.443 73.0697 231.443 64.9491 263.942 64.9491C272.871 64.9491 280.153 57.6679 280.153 48.7385L280.153 32.488C280.162 30.2458 278.351 28.4205 276.109 28.4114L255.814 28.4132 255.814 16.2466C255.814 7.31955 248.493-0.00199257 239.564-0.00199257ZM109.628 8.12061 225.521 8.12061C224.125 10.5169 223.317 13.2937 223.317 16.2486L223.317 162.429 101.498 162.429 101.498 16.2486C101.498 11.6808 105.057 8.12061 109.626 8.12061ZM239.567 8.12061C244.137 8.12061 247.688 11.6806 247.688 16.2486L247.688 48.7385C247.688 51.6967 248.502 54.4665 249.901 56.8591L231.446 56.8609 231.446 16.2486C231.446 11.6807 234.999 8.12056 239.567 8.12056ZM142.129 32.4899C135.446 32.4899 129.918 37.9747 129.918 44.6545 129.918 46.4055 130.3 48.075 130.98 49.5868L111.099 65.8753C109.366 67.3055 109.123 69.8722 110.56 71.6015 111.978 73.3235 114.521 73.5791 116.254 72.1725L136.548 55.4872C138.223 56.3591 140.123 56.8593 142.124 56.8593 145.38 56.8593 148.354 55.5434 150.545 53.4262L170.633 63.4665C170.57 63.9541 170.535 64.4472 170.535 64.9493 170.535 71.6291 176.02 77.1538 182.7 77.1538 189.38 77.1538 194.897 71.6291 194.897 64.9493 194.897 62.8684 194.36 60.9034 193.421 59.1832L213.937 39.4761C215.566 37.9226 215.615 35.3396 214.056 33.7193 213.308 32.9489 212.284 32.5066 211.209 32.4903 210.136 32.4758 209.101 32.8873 208.33 33.6323L187.411 53.7361C185.961 53.1234 184.369 52.7845 182.709 52.7845 179.44 52.7845 176.457 54.0932 174.264 56.2176L154.207 46.1629C154.268 45.6698 154.294 45.1641 154.294 44.6566 154.294 37.9768 148.813 32.49 142.129 32.49ZM255.818 36.5338 272.066 36.5338 272.066 48.7384C272.066 53.3081 268.515 56.859 263.946 56.859 259.376 56.859 255.818 53.3081 255.818 48.7384ZM142.12 40.6105C144.411 40.6105 146.164 42.3651 146.164 44.6544 146.164 46.9456 144.411 48.7383 142.12 48.7383 140.311 48.7075 139.584 47.8628 138.854 47.136 138.339 46.4544 138.036 45.5952 138.036 44.6544 138.036 42.3633 139.829 40.6105 142.12 40.6105ZM182.709 60.9046C185 60.9046 186.785 62.6592 186.785 64.9485 186.783 67.2397 184.998 69.0252 182.709 69.0252 180.417 69.0252 178.663 67.2397 178.663 64.9485 178.663 62.6592 180.417 60.9046 182.709 60.9046ZM56.8391 81.1987 93.3819 81.1987 93.3819 89.3193 60.8832 89.3193C58.641 89.3283 56.8301 91.1536 56.8392 93.3959L56.8392 219.275 48.7186 219.275 48.7186 89.3217C48.7186 84.752 52.2696 81.2011 56.8392 81.2011ZM231.451 81.1987 267.993 81.1987C272.563 81.1987 276.114 84.7496 276.114 89.3193L276.114 219.272 267.993 219.272 267.992 93.3935C268.001 91.1513 266.19 89.3259 263.948 89.3168L231.449 89.3168ZM186.787 89.3193C184.533 89.3102 182.704 91.141 182.711 93.3959L182.711 138.067 174.59 138.067 174.59 109.645C174.603 107.399 172.792 105.57 170.546 105.561L154.289 105.561C152.043 105.57 150.232 107.399 150.245 109.645L150.245 138.067 142.124 138.067 142.122 121.809C142.113 119.563 140.284 117.753 138.038 117.765L121.797 117.765C119.568 117.774 117.762 119.58 117.753 121.809L117.753 138.067 113.677 138.067C111.447 138.074 109.642 139.881 109.633 142.111 109.624 144.353 111.434 146.178 113.677 146.187L211.156 146.187C213.399 146.178 215.21 144.353 215.2 142.111 215.191 139.881 213.386 138.076 211.156 138.067L207.08 138.067 207.08 93.394C207.089 91.1518 205.278 89.3265 203.036 89.3174ZM64.9598 97.4399 93.3819 97.4399 93.3819 162.428 89.3361 162.428C87.0938 162.419 85.2685 164.23 85.2613 166.472 85.2486 168.73 87.0794 170.565 89.3379 170.556L235.49 170.556C237.749 170.565 239.58 168.73 239.567 166.472 239.558 164.23 237.733 162.419 235.49 162.428L231.444 162.428 231.444 97.4399 259.859 97.4399 259.859 219.272 64.9553 219.272ZM190.829 97.4399 198.95 97.4399 198.95 138.067 190.829 138.067ZM158.331 113.689 166.459 113.689 166.459 138.067 158.331 138.067ZM125.872 125.853 133.992 125.853 133.992 138.065 125.872 138.067ZM40.5729 227.403 129.932 227.403 129.932 231.447C129.932 238.124 135.426 243.611 142.106 243.611L182.725 243.611C189.405 243.611 194.889 238.124 194.889 231.447L194.889 227.403 284.216 227.403 284.216 231.447C284.216 242.707 275.191 251.732 263.931 251.732L60.8971 251.734C49.635 251.734 40.5719 242.709 40.5719 231.448ZM138.053 227.403 186.767 227.403 186.767 231.447C186.767 233.767 185.043 235.523 182.723 235.523L142.104 235.523C139.784 235.523 138.051 233.767 138.051 231.447Z" fill="#2A6279" transform="matrix(1.00186 0 0 1 401.238 135)"/></g></g></g></g></svg>