<?xml version="1.0" encoding="UTF-8"?>
<!DOCTYPE svg PUBLIC "-//W3C//DTD SVG 1.1//EN" "http://www.w3.org/Graphics/SVG/1.1/DTD/svg11.dtd">
<svg xmlns="http://www.w3.org/2000/svg" version="1.1" width="512px" height="512px" style="shape-rendering:geometricPrecision; text-rendering:geometricPrecision; image-rendering:optimizeQuality; fill-rule:evenodd; clip-rule:evenodd" xmlns:xlink="http://www.w3.org/1999/xlink">
<g><path style="opacity:0.92" fill="#ee6b4d" d="M 221.5,8.5 C 239.029,5.85711 253.529,11.1904 265,24.5C 276.589,42.418 276.255,60.0847 264,77.5C 247.323,94.1725 228.49,97.0059 207.5,86C 187.751,69.929 183.585,50.429 195,27.5C 201.811,18.1666 210.644,11.8333 221.5,8.5 Z M 230.5,22.5 C 254.049,26.9275 262.216,40.5942 255,63.5C 244.679,78.3492 231.512,81.5159 215.5,73C 201.459,60.5106 199.959,46.6773 211,31.5C 216.64,26.4613 223.14,23.4613 230.5,22.5 Z"/></g>
<g><path style="opacity:0.92" fill="#ee6b4d" d="M 410.5,8.5 C 428.029,5.85711 442.529,11.1904 454,24.5C 465.589,42.418 465.255,60.0847 453,77.5C 436.323,94.1725 417.49,97.0059 396.5,86C 376.751,69.929 372.585,50.429 384,27.5C 390.811,18.1666 399.644,11.8333 410.5,8.5 Z M 419.5,22.5 C 443.049,26.9275 451.216,40.5942 444,63.5C 433.679,78.3492 420.512,81.5159 404.5,73C 390.459,60.5106 388.959,46.6773 400,31.5C 405.64,26.4613 412.14,23.4613 419.5,22.5 Z"/></g>
<g><path style="opacity:0.921" fill="#ee6b4d" d="M 316.5,34.5 C 334.408,31.8514 348.908,37.518 360,51.5C 367.025,61.808 369.358,73.1413 367,85.5C 362.833,103 352,113.833 334.5,118C 316.584,121.144 302.084,115.644 291,101.5C 283.975,91.192 281.642,79.8587 284,67.5C 288.348,49.9858 299.182,38.9858 316.5,34.5 Z M 319.5,49.5 C 342.31,48.8096 353.143,59.8096 352,82.5C 346.717,98.7597 335.55,105.593 318.5,103C 299.613,95.0487 294.113,81.5487 302,62.5C 306.392,56.071 312.225,51.7376 319.5,49.5 Z"/></g>
<g><path style="opacity:0.925" fill="#ee6b4d" d="M 226.5,97.5 C 254.928,97.1258 278.094,107.792 296,129.5C 309.76,124.768 323.927,123.268 338.5,125C 344.177,125.96 349.677,127.46 355,129.5C 371.694,108.64 393.527,97.9729 420.5,97.5C 456.438,99.6232 481.938,116.957 497,149.5C 502.045,161.716 503.711,174.382 502,187.5C 497.792,198.706 489.959,206.206 478.5,210C 467.842,214.081 456.842,216.748 445.5,218C 431.844,218.951 418.177,219.785 404.5,220.5C 398.369,228.13 390.702,233.63 381.5,237C 357.408,244.676 332.741,247.343 307.5,245C 291.056,243.972 275.389,239.972 260.5,233C 255.038,229.703 250.371,225.536 246.5,220.5C 225.576,220.641 204.91,218.474 184.5,214C 149.019,204.863 138.853,183.363 154,149.5C 168.483,118.521 192.65,101.188 226.5,97.5 Z M 227.5,112.5 C 249.076,112.462 267.076,120.296 281.5,136C 257.271,152.276 244.271,175.109 242.5,204.5C 224.954,205.375 207.621,203.875 190.5,200C 184.264,198.255 178.264,195.922 172.5,193C 169,190.833 166.167,188 164,184.5C 163.591,150.903 179.091,128.069 210.5,116C 216.229,114.432 221.896,113.265 227.5,112.5 Z M 416.5,112.5 C 454.203,114.045 477.703,133.045 487,169.5C 490.012,179.666 487.178,187.499 478.5,193C 464.903,199.454 450.57,203.121 435.5,204C 426.506,204.5 417.506,204.666 408.5,204.5C 406.745,175.146 393.745,152.313 369.5,136C 382.239,122.297 397.906,114.464 416.5,112.5 Z M 324.5,138.5 C 359.897,141.103 382.397,159.436 392,193.5C 396.766,207.466 392.266,216.966 378.5,222C 355.785,229.783 332.452,232.45 308.5,230C 294.527,229.173 281.194,225.84 268.5,220C 261.484,217.159 257.818,211.993 257.5,204.5C 262.726,164.939 285.059,142.939 324.5,138.5 Z"/></g>
<g><path style="opacity:0.923" fill="#ee6b4d" d="M 185.5,283.5 C 199.464,282.661 212.797,285.161 225.5,291C 233.828,295.162 241.828,299.829 249.5,305C 272.5,311.333 295.5,317.667 318.5,324C 327.276,327.776 333.776,333.942 338,342.5C 371.354,332.272 404.854,322.438 438.5,313C 450.781,310.262 463.114,309.928 475.5,312C 497.011,318.866 505.845,333.366 502,355.5C 498.385,371.446 489.218,382.946 474.5,390C 423.5,409.667 372.5,429.333 321.5,449C 303.579,456.765 284.912,459.765 265.5,458C 238.46,450.49 211.46,442.823 184.5,435C 178.763,434.211 173.097,434.544 167.5,436C 158.378,440.061 149.378,444.394 140.5,449C 149.087,462.134 147.754,474.134 136.5,485C 122.948,490.943 109.281,496.609 95.5,502C 81.5825,504.794 72.0825,499.627 67,486.5C 48.2761,440.719 29.2761,395.052 10,349.5C 5.88499,338.382 8.38499,328.882 17.5,321C 31.0522,315.057 44.7189,309.391 58.5,304C 74.7131,301.698 84.8798,308.531 89,324.5C 115.733,311.05 142.899,298.55 170.5,287C 175.596,285.64 180.596,284.474 185.5,283.5 Z M 187.5,298.5 C 208.155,299.163 226.488,305.996 242.5,319C 265.833,325.333 289.167,331.667 312.5,338C 325.863,345.42 329.696,356.253 324,370.5C 317.91,379.627 309.41,383.461 298.5,382C 268.721,373.93 238.887,366.097 209,358.5C 202.435,359.271 200.102,362.938 202,369.5C 203.214,371.049 204.714,372.215 206.5,373C 236.5,381 266.5,389 296.5,397C 317.477,399.325 331.977,390.825 340,371.5C 341.25,366.58 341.75,361.58 341.5,356.5C 373.193,347.493 404.859,338.326 436.5,329C 448.365,325.498 460.365,324.831 472.5,327C 485.245,331.313 490.078,340.146 487,353.5C 483.763,363.404 477.597,370.904 468.5,376C 422.833,393.667 377.167,411.333 331.5,429C 318.773,434.131 305.773,438.464 292.5,442C 284.221,443.497 275.888,443.831 267.5,443C 243.122,436.155 218.788,429.155 194.5,422C 183.491,418.707 172.491,418.707 161.5,422C 152.711,425.894 144.045,430.061 135.5,434.5C 121.545,402.807 107.879,370.974 94.5,339C 116.469,328.349 138.469,317.683 160.5,307C 169.374,303.372 178.374,300.539 187.5,298.5 Z M 61.5,318.5 C 67.4676,317.297 71.3009,319.631 73,325.5C 91.7239,371.281 110.724,416.948 130,462.5C 131.378,466.942 130.212,470.442 126.5,473C 115.167,477.667 103.833,482.333 92.5,487C 86.5308,488.71 82.6974,486.543 81,480.5C 62.2761,434.719 43.2761,389.052 24,343.5C 22.6217,339.058 23.7884,335.558 27.5,333C 39.0569,328.434 50.3903,323.601 61.5,318.5 Z"/></g>
</svg>
