<?xml version="1.0" encoding="UTF-8"?>
<!DOCTYPE svg PUBLIC "-//W3C//DTD SVG 1.1//EN" "http://www.w3.org/Graphics/SVG/1.1/DTD/svg11.dtd">
<svg xmlns="http://www.w3.org/2000/svg" version="1.1" width="512px" height="512px" style="shape-rendering:geometricPrecision; text-rendering:geometricPrecision; image-rendering:optimizeQuality; fill-rule:evenodd; clip-rule:evenodd" xmlns:xlink="http://www.w3.org/1999/xlink">
<g><path style="opacity:0.952" fill="#2A6279" d="M 358.5,-0.5 C 363.5,-0.5 368.5,-0.5 373.5,-0.5C 380.745,4.78602 382.911,11.786 380,20.5C 367.751,38.6624 355.751,56.9957 344,75.5C 336.268,82.9372 328.268,83.2705 320,76.5C 316.776,71.6378 315.776,66.3044 317,60.5C 329,41.8333 341,23.1667 353,4.5C 354.73,2.59809 356.563,0.93142 358.5,-0.5 Z"/></g>
<g><path style="opacity:0.943" fill="#2A6279" d="M 489.5,-0.5 C 494.833,-0.5 500.167,-0.5 505.5,-0.5C 507.167,1.83333 509.167,3.83333 511.5,5.5C 511.5,10.8333 511.5,16.1667 511.5,21.5C 484.062,49.4384 456.395,77.2717 428.5,105C 421.951,110.135 414.951,110.801 407.5,107C 400.162,99.2842 399.662,91.1176 406,82.5C 433.728,54.6047 461.562,26.938 489.5,-0.5 Z"/></g>
<g><path style="opacity:0.963" fill="#2A6279" d="M 213.5,63.5 C 227.488,62.9958 239.822,67.1625 250.5,76C 312,137.5 373.5,199 435,260.5C 451.656,282.115 451.656,303.781 435,325.5C 417.261,341.744 397.427,344.744 375.5,334.5C 365.713,339.227 356.046,344.227 346.5,349.5C 353.501,392.691 339.501,427.191 304.5,453C 266.081,474.797 228.748,473.131 192.5,448C 188.599,443.929 184.599,440.096 180.5,436.5C 173.922,439.706 167.422,443.039 161,446.5C 168.033,473.262 159.533,493.429 135.5,507C 115.404,514.44 97.4037,511.106 81.5,497C 55.9408,472.109 31.1075,446.609 7,420.5C -5.51134,394.725 -0.678008,372.892 21.5,355C 34.8591,347.272 48.8591,345.772 63.5,350.5C 101.51,279.816 139.01,208.816 176,137.5C 176.667,136.167 176.667,134.833 176,133.5C 164.634,105.431 171.801,83.5975 197.5,68C 202.821,65.9414 208.155,64.4414 213.5,63.5 Z M 214.5,94.5 C 220.092,94.0866 225.092,95.5866 229.5,99C 290.333,159.833 351.167,220.667 412,281.5C 418.776,291.071 417.609,299.571 408.5,307C 401.965,310.558 395.631,310.225 389.5,306C 328,244.5 266.5,183 205,121.5C 198.76,109.048 201.927,100.048 214.5,94.5 Z M 198.5,160.5 C 249.763,210.096 300.43,260.43 350.5,311.5C 280.991,348.422 211.325,385.088 141.5,421.5C 123.833,404.5 106.5,387.167 89.5,369.5C 126.114,299.937 162.447,230.271 198.5,160.5 Z M 314.5,365.5 C 318.383,392.254 308.716,413.087 285.5,428C 258.576,442.294 233.243,439.961 209.5,421C 244.878,402.98 279.878,384.48 314.5,365.5 Z M 44.5,378.5 C 49.2504,378.27 53.5838,379.437 57.5,382C 81.3333,405.833 105.167,429.667 129,453.5C 134.298,462.22 133.131,470.053 125.5,477C 119.139,480.272 112.806,480.272 106.5,477C 82.3333,452.833 58.1667,428.667 34,404.5C 28.4106,392.026 31.9106,383.36 44.5,378.5 Z"/></g>
<g><path style="opacity:0.951" fill="#2A6279" d="M 511.5,137.5 C 511.5,142.5 511.5,147.5 511.5,152.5C 510.069,154.437 508.402,156.27 506.5,158C 487.833,170 469.167,182 450.5,194C 434.49,195.487 427.99,188.32 431,172.5C 432.141,170.391 433.641,168.558 435.5,167C 454.004,155.249 472.338,143.249 490.5,131C 499.27,127.87 506.27,130.036 511.5,137.5 Z"/></g>
</svg>
