<svg viewBox="0 0 512 512" xmlns="http://www.w3.org/2000/svg" xmlns:xlink="http://www.w3.org/1999/xlink" id="Layer_1" overflow="hidden"><defs id="defs59"></defs><g id="g6" transform="matrix(0.898443 0 0 0.898443 25.9987 25.9982)"><g id="g4"><path d="M455.364 56.638C418.843 20.115 370.284 0.002 318.635 0.002 266.986 0.002 218.426 20.115 181.904 56.637 145.381 93.158 125.269 141.717 125.269 193.368 125.269 236.756 139.468 277.958 165.658 311.68L142.394 334.944 136.617 329.167C133.426 325.976 128.253 325.976 125.063 329.167L8.749 445.479C3.107 451.12 0 458.643 0 466.662 0 474.681 3.107 482.204 8.749 487.844L24.155 503.25C29.796 508.892 37.319 511.999 45.337 511.999 53.355 511.999 60.879 508.892 66.519 503.25L182.832 386.937C186.023 383.746 186.023 378.573 182.832 375.383L177.056 369.607 200.319 346.343C234.041 372.533 275.244 386.733 318.633 386.733 370.283 386.733 418.841 366.619 455.364 330.097 491.886 293.574 512 245.017 512 193.366 512 141.715 491.886 93.159 455.364 56.638ZM54.965 491.696C52.409 494.251 48.991 495.658 45.336 495.658 41.681 495.658 38.263 494.251 35.707 491.696L20.301 476.29C14.992 470.98 14.992 462.342 20.301 457.032L107.729 369.604 142.392 404.267ZM153.947 392.715 119.284 358.052 130.839 346.497 165.502 381.16ZM165.502 358.054 153.946 346.498 176.253 324.191C178.094 326.19 179.971 328.164 181.903 330.097 183.836 332.029 185.809 333.907 187.808 335.746ZM443.81 318.544C410.375 351.979 365.919 370.394 318.634 370.394 271.349 370.394 226.894 351.98 193.458 318.544 124.436 249.522 124.436 137.214 193.458 68.192 226.893 34.757 271.349 16.342 318.634 16.342 365.919 16.342 410.375 34.755 443.81 68.192 512.832 137.214 512.832 249.521 443.81 318.544Z" id="path2" fill="#BF9000"/></g></g><g id="g12" transform="matrix(0.898443 0 0 0.898443 25.9987 25.9982)"><g id="g10"><path d="M389.885 122.116C370.853 103.084 345.549 92.602 318.634 92.602 291.72 92.602 266.414 103.084 247.383 122.116 208.095 161.403 208.095 225.331 247.383 264.618 266.415 283.65 291.72 294.132 318.634 294.132 345.549 294.132 370.854 283.65 389.885 264.618 408.917 245.587 419.399 220.283 419.399 193.367 419.399 166.451 408.917 141.147 389.885 122.116ZM378.332 253.065C362.387 269.011 341.185 277.792 318.635 277.792 296.085 277.792 274.884 269.01 258.938 253.065 226.021 220.148 226.021 166.588 258.938 133.67 274.884 117.724 296.085 108.943 318.635 108.943 341.185 108.943 362.386 117.725 378.332 133.67 394.278 149.615 403.059 170.817 403.059 193.367 403.059 215.917 394.276 237.119 378.332 253.065Z" id="path8" fill="#BF9000"/></g></g><g id="g18" transform="matrix(0.898443 0 0 0.898443 25.9987 25.9982)"><g id="g16"><path d="M318.631 149.791C294.604 149.791 275.057 169.338 275.057 193.365 275.057 217.392 294.604 236.939 318.631 236.939 342.658 236.939 362.205 217.392 362.205 193.365 362.205 169.338 342.658 149.791 318.631 149.791ZM318.631 220.599C303.614 220.599 291.397 208.382 291.397 193.365 291.397 178.348 303.614 166.131 318.631 166.131 333.648 166.131 345.865 178.348 345.865 193.365 345.865 208.382 333.648 220.599 318.631 220.599Z" id="path14" fill="#BF9000"/></g></g><g id="g24" transform="matrix(0.898443 0 0 0.898443 25.9987 25.9982)"><g id="g22"><path d="M428.396 83.606C367.873 23.083 269.394 23.083 208.871 83.606 148.348 144.129 148.348 242.607 208.871 303.13 234.055 328.314 266.046 343.702 301.39 347.631 305.879 348.127 309.914 344.898 310.413 340.414 310.912 335.93 307.68 331.89 303.196 331.391 271.579 327.876 242.957 314.109 220.425 291.576 166.274 237.425 166.274 149.313 220.425 95.16 274.578 41.009 362.689 41.009 416.842 95.16 470.993 149.313 470.993 237.424 416.842 291.577 394.31 314.109 365.688 327.876 334.072 331.39 329.587 331.889 326.356 335.928 326.855 340.413 327.319 344.591 330.857 347.681 334.965 347.681 335.267 347.681 335.572 347.665 335.878 347.631 371.222 343.702 403.214 328.315 428.397 303.131 488.919 242.607 488.919 144.129 428.396 83.606Z" id="path20" fill="#BF9000"/></g></g><g id="g26" transform="matrix(0.898443 0 0 0.898443 25.9987 25.9982)"></g><g id="g28" transform="matrix(0.898443 0 0 0.898443 25.9987 25.9982)"></g><g id="g30" transform="matrix(0.898443 0 0 0.898443 25.9987 25.9982)"></g><g id="g32" transform="matrix(0.898443 0 0 0.898443 25.9987 25.9982)"></g><g id="g34" transform="matrix(0.898443 0 0 0.898443 25.9987 25.9982)"></g><g id="g36" transform="matrix(0.898443 0 0 0.898443 25.9987 25.9982)"></g><g id="g38" transform="matrix(0.898443 0 0 0.898443 25.9987 25.9982)"></g><g id="g40" transform="matrix(0.898443 0 0 0.898443 25.9987 25.9982)"></g><g id="g42" transform="matrix(0.898443 0 0 0.898443 25.9987 25.9982)"></g><g id="g44" transform="matrix(0.898443 0 0 0.898443 25.9987 25.9982)"></g><g id="g46" transform="matrix(0.898443 0 0 0.898443 25.9987 25.9982)"></g><g id="g48" transform="matrix(0.898443 0 0 0.898443 25.9987 25.9982)"></g><g id="g50" transform="matrix(0.898443 0 0 0.898443 25.9987 25.9982)"></g><g id="g52" transform="matrix(0.898443 0 0 0.898443 25.9987 25.9982)"></g><g id="g54" transform="matrix(0.898443 0 0 0.898443 25.9987 25.9982)"></g></svg>