<svg viewBox="0 0 512 512" xmlns="http://www.w3.org/2000/svg" xmlns:xlink="http://www.w3.org/1999/xlink" id="Layer_1" overflow="hidden"><defs id="defs41"></defs><g id="g6" transform="matrix(0.898438 0 0 0.898438 26 26)"><g id="g4"><path d="M503.983 111.165 281.632 111.165 311.874 90.196C314.034 88.699 315.323 86.237 315.323 83.607L315.323 16.567 315.323 8.017C315.323 3.59 311.735 0 307.306 0L200.418 0C195.99 0 192.401 3.589 192.401 8.017L192.401 16.568 192.401 83.609C192.401 86.342 193.794 88.887 196.096 90.361L228.602 111.165 8.017 111.165C3.589 111.165 0 114.754 0 119.182L0 503.984C0 508.411 3.588 512 8.017 512L256 512 503.983 512C508.411 512 512 508.411 512 503.983L512 119.182C512 114.754 508.412 111.165 503.983 111.165ZM247.983 440.384 54.514 440.384 54.514 392.284 247.984 392.284 247.984 440.384ZM247.983 333.495 54.514 333.495 54.514 285.395 247.984 285.395 247.984 333.495ZM247.983 226.605 54.514 226.605 54.514 178.505 247.984 178.505 247.984 226.605ZM247.983 162.472 46.497 162.472C42.069 162.472 38.48 166.061 38.48 170.489L38.48 234.623C38.48 239.05 42.068 242.64 46.497 242.64L247.983 242.64 247.983 269.362 46.497 269.362C42.069 269.362 38.48 272.951 38.48 277.379L38.48 341.513C38.48 345.94 42.068 349.53 46.497 349.53L247.983 349.53 247.983 376.252 46.497 376.252C42.069 376.252 38.48 379.841 38.48 384.269L38.48 448.403C38.48 452.83 42.068 456.42 46.497 456.42L247.983 456.42 247.983 495.969 16.033 495.969 16.033 127.198 247.983 127.198ZM255.822 109.55 208.435 79.221 208.435 16.568 208.435 16.034 299.291 16.034 299.291 16.568 299.291 79.412ZM264.017 178.505 303.566 178.505 303.566 226.605 264.017 226.605ZM264.017 285.395 376.251 285.395 376.251 333.495 264.017 333.495ZM264.017 392.284 440.384 392.284 440.384 440.384 264.017 440.384ZM495.967 495.967 264.017 495.967 264.017 456.418 448.401 456.418C452.829 456.418 456.418 452.829 456.418 448.401L456.418 384.267C456.418 379.84 452.83 376.25 448.401 376.25L264.017 376.25 264.017 349.528 384.267 349.528C388.695 349.528 392.284 345.939 392.284 341.511L392.284 277.377C392.284 272.95 388.696 269.36 384.267 269.36L264.017 269.36 264.017 242.638 311.583 242.638C316.011 242.638 319.6 239.049 319.6 234.621L319.6 170.487C319.6 166.06 316.012 162.47 311.583 162.47L264.017 162.47 264.017 127.197 495.967 127.197Z" id="path2" fill="#C55A11"/></g></g><g id="g8" transform="matrix(0.9375 0 0 0.9375 16 16)"></g><g id="g10" transform="matrix(0.9375 0 0 0.9375 16 16)"></g><g id="g12" transform="matrix(0.9375 0 0 0.9375 16 16)"></g><g id="g14" transform="matrix(0.9375 0 0 0.9375 16 16)"></g><g id="g16" transform="matrix(0.9375 0 0 0.9375 16 16)"></g><g id="g18" transform="matrix(0.9375 0 0 0.9375 16 16)"></g><g id="g20" transform="matrix(0.9375 0 0 0.9375 16 16)"></g><g id="g22" transform="matrix(0.9375 0 0 0.9375 16 16)"></g><g id="g24" transform="matrix(0.9375 0 0 0.9375 16 16)"></g><g id="g26" transform="matrix(0.9375 0 0 0.9375 16 16)"></g><g id="g28" transform="matrix(0.9375 0 0 0.9375 16 16)"></g><g id="g30" transform="matrix(0.9375 0 0 0.9375 16 16)"></g><g id="g32" transform="matrix(0.9375 0 0 0.9375 16 16)"></g><g id="g34" transform="matrix(0.9375 0 0 0.9375 16 16)"></g><g id="g36" transform="matrix(0.9375 0 0 0.9375 16 16)"></g></svg>