<?xml version="1.0" encoding="UTF-8"?>
<!DOCTYPE svg PUBLIC "-//W3C//DTD SVG 1.1//EN" "http://www.w3.org/Graphics/SVG/1.1/DTD/svg11.dtd">
<svg xmlns="http://www.w3.org/2000/svg" version="1.1" width="512px" height="512px" style="shape-rendering:geometricPrecision; text-rendering:geometricPrecision; image-rendering:optimizeQuality; fill-rule:evenodd; clip-rule:evenodd" xmlns:xlink="http://www.w3.org/1999/xlink">
<g><path style="opacity:0.943" fill="#2A6279" d="M 51.5,-0.5 C 159.5,-0.5 267.5,-0.5 375.5,-0.5C 400.731,5.56399 416.564,21.2307 423,46.5C 424.632,101.142 424.966,155.809 424,210.5C 423.716,214.12 421.883,216.62 418.5,218C 400.503,218.5 382.503,218.667 364.5,218.5C 365.092,221.127 365.425,223.794 365.5,226.5C 359.5,226.5 353.5,226.5 347.5,226.5C 346.956,220.656 345.622,214.989 343.5,209.5C 344.182,206.634 345.516,204.134 347.5,202C 367.099,200.537 386.766,200.037 406.5,200.5C 406.667,151.499 406.5,102.499 406,53.5C 401.711,32.8775 389.211,20.7108 368.5,17C 319.834,16.5 271.168,16.3333 222.5,16.5C 222.5,30.5 222.5,44.5 222.5,58.5C 248.557,56.1105 267.057,66.7772 278,90.5C 285.319,114.871 279.153,135.038 259.5,151C 248.13,157.974 235.796,160.808 222.5,159.5C 222.5,173.167 222.5,186.833 222.5,200.5C 241.17,200.333 259.836,200.5 278.5,201C 280.624,202.122 282.457,203.622 284,205.5C 283.717,212.536 282.883,219.536 281.5,226.5C 282.756,243.762 291.756,254.762 308.5,259.5C 307.144,264.78 305.977,270.114 305,275.5C 284.307,272.161 270.973,260.161 265,239.5C 263.712,232.563 263.212,225.563 263.5,218.5C 249.833,218.5 236.167,218.5 222.5,218.5C 222.978,240.591 222.478,262.591 221,284.5C 219.291,287.387 216.791,288.721 213.5,288.5C 196.582,281.779 182.082,285.112 170,298.5C 160.888,312.942 161.555,326.942 172,340.5C 175.894,343.74 179.727,346.907 183.5,350C 181.363,354.441 179.363,358.941 177.5,363.5C 176.635,364.583 175.635,364.749 174.5,364C 155.988,354.322 146.322,338.989 145.5,318C 149.615,283.054 169.282,266.221 204.5,267.5C 204.5,251.167 204.5,234.833 204.5,218.5C 184.766,218.963 165.099,218.463 145.5,217C 143.147,214.867 142.147,212.2 142.5,209C 149.724,189.866 145.057,174.533 128.5,163C 110.34,155.163 95.5062,159.33 84,175.5C 81.1742,180.636 79.6742,186.136 79.5,192C 80.1827,197.729 81.1827,203.396 82.5,209C 82.9869,213.7 80.9869,216.7 76.5,218C 57.8363,218.5 39.1696,218.667 20.5,218.5C 20.3333,267.501 20.5,316.501 21,365.5C 24.611,384.445 35.7777,396.278 54.5,401C 88.165,401.5 121.832,401.667 155.5,401.5C 155.5,407.5 155.5,413.5 155.5,419.5C 121.832,419.667 88.165,419.5 54.5,419C 27.8799,414.11 11.0466,398.61 4,372.5C 2.35056,266.189 2.01722,159.856 3,53.5C 7.10544,24.5658 23.2721,6.56585 51.5,-0.5 Z M 58.5,16.5 C 107.167,16.5 155.833,16.5 204.5,16.5C 204.024,36.2592 204.524,55.9258 206,75.5C 207.921,77.8666 210.421,79.1999 213.5,79.5C 236.141,70.9129 252.307,77.5796 262,99.5C 265.543,120.248 257.376,134.082 237.5,141C 229.282,142.009 221.282,141.176 213.5,138.5C 209.387,138.643 206.553,140.643 205,144.5C 204.5,163.164 204.333,181.83 204.5,200.5C 190.496,200.667 176.496,200.5 162.5,200C 165.605,174.546 155.605,156.213 132.5,145C 109.493,137.211 89.6593,142.044 73,159.5C 63.8647,171.375 60.3647,184.709 62.5,199.5C 48.5159,200.499 34.5159,200.833 20.5,200.5C 20.0228,149.795 20.5228,99.1283 22,48.5C 27.8613,30.4626 40.028,19.7959 58.5,16.5 Z"/></g>
<g><path style="opacity:0.935" fill="#2A6279" d="M 270.5,511.5 C 267.5,511.5 264.5,511.5 261.5,511.5C 260.542,510.038 259.376,508.705 258,507.5C 253.423,493.75 248.09,480.417 242,467.5C 216.933,478.257 195.267,473.59 177,453.5C 162.746,431.953 163.079,410.619 178,389.5C 186.075,380.712 195.909,374.879 207.5,372C 200.475,353.928 193.642,335.761 187,317.5C 185.075,311.569 186.908,307.402 192.5,305C 212.723,297.203 233.057,289.703 253.5,282.5C 256.579,282.8 259.079,284.133 261,286.5C 261.26,297.549 264.594,307.549 271,316.5C 288.907,331.612 305.907,330.612 322,313.5C 330.757,299.082 330.424,284.749 321,270.5C 319.435,264.799 321.268,260.633 326.5,258C 345.517,249.44 364.683,241.274 384,233.5C 388.539,233.928 391.539,236.261 393,240.5C 401.735,264.205 410.568,287.872 419.5,311.5C 443.326,328.247 467.326,344.747 491.5,361C 501.309,368.816 506.809,378.982 508,391.5C 508.5,429.165 508.667,466.832 508.5,504.5C 502.5,504.5 496.5,504.5 490.5,504.5C 490.976,465.452 490.476,426.452 489,387.5C 487.46,383.581 485.293,380.081 482.5,377C 465.696,365.695 449.029,354.195 432.5,342.5C 432.167,343 431.833,343.5 431.5,344C 437.397,359.025 442.897,374.192 448,389.5C 450.208,399.796 449.708,409.962 446.5,420C 451.97,426.305 457.636,432.472 463.5,438.5C 459.802,443.384 455.468,447.218 450.5,450C 430.833,430.333 411.167,410.667 391.5,391C 381.399,386.384 374.732,389.384 371.5,400C 372.32,403.474 373.82,406.641 376,409.5C 386,419.5 396,429.5 406,439.5C 406.966,463.312 418.8,478.479 441.5,485C 444.146,485.497 446.813,485.664 449.5,485.5C 449.5,491.5 449.5,497.5 449.5,503.5C 422.131,502.741 403.298,489.741 393,464.5C 385.109,467.74 377.275,471.073 369.5,474.5C 370.93,477.433 372.93,479.933 375.5,482C 378.702,483.763 381.702,485.763 384.5,488C 383.089,493.591 380.922,498.757 378,503.5C 366.229,499.201 357.395,491.534 351.5,480.5C 324.323,490.665 297.323,500.999 270.5,511.5 Z M 378.5,254.5 C 396.667,301.492 414.167,348.825 431,396.5C 431.667,399.5 431.667,402.5 431,405.5C 420.104,393.935 408.604,383.101 396.5,373C 382.406,367.732 370.239,370.566 360,381.5C 351.441,393.844 351.441,406.178 360,418.5C 369.5,428 379,437.5 388.5,447C 349.728,462.034 310.895,476.868 272,491.5C 266.408,477.975 261.075,464.308 256,450.5C 254.143,444.822 250.309,442.655 244.5,444C 239.698,447.238 234.698,450.238 229.5,453C 207.97,458.152 193.47,450.318 186,429.5C 184.514,402.646 197.347,388.813 224.5,388C 228.327,384.692 229.494,380.526 228,375.5C 220.829,356.65 213.662,337.817 206.5,319C 219.277,314.444 231.944,309.611 244.5,304.5C 256.912,338.374 280.579,350.54 315.5,341C 339.583,328.333 349.417,308.5 345,281.5C 344.025,278.24 342.858,275.073 341.5,272C 353.858,266.056 366.192,260.223 378.5,254.5 Z"/></g>
</svg>
